<svg xmlns="http://www.w3.org/2000/svg" width="115.252" height="91" viewBox="0 0 115.252 91">
  <g id="그룹_706" data-name="그룹 706" transform="translate(-1172 -1862.695)">
    <g id="그룹_704" data-name="그룹 704" transform="translate(1172 1862.695)">
      <path id="패스_1107" data-name="패스 1107" d="M1400.362,2021.549a1.9,1.9,0,0,1-1.333-.55,1.918,1.918,0,0,1-.233-.286,1.977,1.977,0,0,1-.173-.328,1.908,1.908,0,0,1-.1-.35,1.789,1.789,0,0,1,0-.734,1.97,1.97,0,0,1,.1-.354,2.1,2.1,0,0,1,.173-.324,1.732,1.732,0,0,1,.233-.286,1.894,1.894,0,0,1,1.7-.516,1.942,1.942,0,0,1,.35.105,2.031,2.031,0,0,1,.324.173,1.955,1.955,0,0,1,.286.237,1.916,1.916,0,0,1,.237.286,2.056,2.056,0,0,1,.173.324,1.933,1.933,0,0,1,.105.354,1.823,1.823,0,0,1,0,.734,1.872,1.872,0,0,1-.105.35,2.222,2.222,0,0,1-.173.328,2.147,2.147,0,0,1-.237.286,1.679,1.679,0,0,1-.286.233,2.012,2.012,0,0,1-.324.173,1.944,1.944,0,0,1-.35.106A1.78,1.78,0,0,1,1400.362,2021.549Z" transform="translate(-1313.178 -1959.371)" fill="#5f5f5f"/>
      <g id="그룹_703" data-name="그룹 703" transform="translate(59.116 28.199)">
        <path id="패스_1108" data-name="패스 1108" d="M1392.027,1977.829a1.883,1.883,0,0,1-1.883-1.883v-.662a6.9,6.9,0,0,1,3.081-5.757l.551-.367a3.146,3.146,0,0,0,1.4-2.623v-.662a3.152,3.152,0,1,0-6.3,0,1.883,1.883,0,1,1-3.766,0,6.919,6.919,0,0,1,13.838,0v.662a6.905,6.905,0,0,1-3.081,5.757l-.551.367a3.145,3.145,0,0,0-1.4,2.623v.662A1.883,1.883,0,0,1,1392.027,1977.829Z" transform="translate(-1363.959 -1950.899)" fill="#5f5f5f"/>
        <path id="패스_1109" data-name="패스 1109" d="M1342.938,1989.269a3.926,3.926,0,0,1-1.624-.355,3.856,3.856,0,0,1-2.287-3.549v-5.633a.131.131,0,0,0-.131-.131h-2.014a7.935,7.935,0,0,1-7.926-7.926V1945.49a7.934,7.934,0,0,1,7.926-7.926h40.284a7.935,7.935,0,0,1,7.926,7.926v26.185a7.935,7.935,0,0,1-7.926,7.926h-18.628a2.146,2.146,0,0,0-1.413.531,1.827,1.827,0,0,1-.158.124l-11.564,8.117A3.859,3.859,0,0,1,1342.938,1989.269Zm-6.056-47.938a4.164,4.164,0,0,0-4.159,4.159v26.185a4.164,4.164,0,0,0,4.159,4.159h2.014a3.9,3.9,0,0,1,3.9,3.9v5.633a.131.131,0,0,0,.218.1,2,2,0,0,1,.158-.124l11.559-8.113a5.91,5.91,0,0,1,3.809-1.391h18.628a4.164,4.164,0,0,0,4.16-4.159V1945.49a4.164,4.164,0,0,0-4.16-4.159Z" transform="translate(-1328.957 -1937.565)" fill="#5f5f5f"/>
      </g>
      <path id="패스_1110" data-name="패스 1110" d="M1269.255,1953.695H1181.94a9.951,9.951,0,0,1-9.94-9.94v-71.119a9.951,9.951,0,0,1,9.94-9.94h87.315a9.951,9.951,0,0,1,9.94,9.94v12.085a1.883,1.883,0,0,1-3.766,0v-12.085a6.181,6.181,0,0,0-6.173-6.174H1181.94a6.181,6.181,0,0,0-6.174,6.174v71.119a6.181,6.181,0,0,0,6.174,6.174h87.315a6.18,6.18,0,0,0,6.173-6.174V1939.1a1.883,1.883,0,0,1,3.766,0v4.651A9.951,9.951,0,0,1,1269.255,1953.695Z" transform="translate(-1172 -1862.695)" fill="#5f5f5f"/>
      <path id="패스_1111" data-name="패스 1111" d="M1277.312,1909.245H1173.883a1.883,1.883,0,1,1,0-3.766h103.428a1.883,1.883,0,1,1,0,3.766Z" transform="translate(-1172 -1889.365)" fill="#5f5f5f"/>
      <path id="패스_1112" data-name="패스 1112" d="M1250.55,1885.753a2.014,2.014,0,1,1-2.014-2.014A2.014,2.014,0,0,1,1250.55,1885.753Z" transform="translate(-1218.454 -1875.813)" fill="#5f5f5f"/>
      <path id="패스_1113" data-name="패스 1113" d="M1229.159,1885.753a2.014,2.014,0,1,1-2.014-2.014A2.014,2.014,0,0,1,1229.159,1885.753Z" transform="translate(-1205.119 -1875.813)" fill="#5f5f5f"/>
      <path id="패스_1114" data-name="패스 1114" d="M1207.768,1885.753a2.014,2.014,0,1,1-2.014-2.014A2.014,2.014,0,0,1,1207.768,1885.753Z" transform="translate(-1191.785 -1875.813)" fill="#5f5f5f"/>
    </g>
    <g id="그룹_705" data-name="그룹 705" transform="translate(1194.433 1902.594)">
      <path id="패스_1115" data-name="패스 1115" d="M1231.56,1989.625v-21h3.4v21Z" transform="translate(-1231.56 -1968.629)" fill="#5f5f5f"/>
      <path id="패스_1116" data-name="패스 1116" d="M1260.716,1989.625h-7.265v-21h7.265q4.843,0,6.621,2.452t1.778,7.693a24.7,24.7,0,0,1-.353,4.521,10.31,10.31,0,0,1-1.241,3.356Q1265.773,1989.626,1260.716,1989.625Zm4.874-10.851a11.772,11.772,0,0,0-.95-5.487q-.95-1.685-3.924-1.686h-3.862v15.019h3.862q3.034,0,4.046-2.237a9.028,9.028,0,0,0,.659-2.422A25.185,25.185,0,0,0,1265.589,1978.775Z" transform="translate(-1245.206 -1968.629)" fill="#5f5f5f"/>
    </g>
  </g>
</svg>
