<svg xmlns="http://www.w3.org/2000/svg" width="128.326" height="89.61" viewBox="0 0 128.326 89.61">
  <g id="그룹_719" data-name="그룹 719" transform="translate(-1172 -1862.695)">
    <g id="그룹_717" data-name="그룹 717" transform="translate(1172 1862.695)">
      <path id="패스_1118" data-name="패스 1118" d="M1440.333,2021.49a1.7,1.7,0,0,1-.363-.037,1.84,1.84,0,0,1-.345-.1,1.868,1.868,0,0,1-.322-.171,1.841,1.841,0,0,1-.282-.23,1.888,1.888,0,0,1-.23-.281,1.948,1.948,0,0,1-.171-.323,1.875,1.875,0,0,1-.1-.344,1.769,1.769,0,0,1,0-.723,1.927,1.927,0,0,1,.1-.349,2.067,2.067,0,0,1,.171-.319,1.7,1.7,0,0,1,.23-.282,2.19,2.19,0,0,1,.282-.234,1.893,1.893,0,0,1,.322-.171,1.87,1.87,0,0,1,1.072-.1,1.912,1.912,0,0,1,.345.1,2.024,2.024,0,0,1,.319.171,1.931,1.931,0,0,1,.282.234,1.9,1.9,0,0,1,.234.282,2.382,2.382,0,0,1,.171.319,1.927,1.927,0,0,1,.1.349,1.8,1.8,0,0,1,0,.723,1.875,1.875,0,0,1-.1.344,2.219,2.219,0,0,1-.171.323,2.134,2.134,0,0,1-.234.281A1.865,1.865,0,0,1,1440.333,2021.49Z" transform="translate(-1339.646 -1960.263)" fill="#5f5f5f"/>
      <g id="그룹_716" data-name="그룹 716" transform="translate(73.048 27.768)">
        <path id="패스_1119" data-name="패스 1119" d="M1431.922,1977.541a1.854,1.854,0,0,1-1.854-1.854v-.652a6.8,6.8,0,0,1,3.033-5.669l.542-.362a3.1,3.1,0,0,0,1.383-2.583v-.652a3.1,3.1,0,1,0-6.209,0,1.854,1.854,0,0,1-3.709,0,6.813,6.813,0,1,1,13.626,0v.652a6.8,6.8,0,0,1-3.034,5.669l-.542.362a3.1,3.1,0,0,0-1.382,2.583v.652A1.854,1.854,0,0,1,1431.922,1977.541Z" transform="translate(-1404.282 -1951.022)" fill="#5f5f5f"/>
        <path id="패스_1120" data-name="패스 1120" d="M1382.724,1988.479a3.866,3.866,0,0,1-1.6-.35,3.8,3.8,0,0,1-2.252-3.495v-5.547a.129.129,0,0,0-.129-.129h-1.983a7.813,7.813,0,0,1-7.8-7.8v-25.785a7.813,7.813,0,0,1,7.8-7.8h39.668a7.813,7.813,0,0,1,7.8,7.8v25.785a7.813,7.813,0,0,1-7.8,7.8h-18.344a2.114,2.114,0,0,0-1.392.523,1.723,1.723,0,0,1-.156.122l-11.387,7.993A3.8,3.8,0,0,1,1382.724,1988.479Zm-5.963-47.205a4.1,4.1,0,0,0-4.1,4.1v25.785a4.1,4.1,0,0,0,4.1,4.1h1.983a3.842,3.842,0,0,1,3.838,3.837v5.547a.129.129,0,0,0,.214.1,1.921,1.921,0,0,1,.156-.123l11.382-7.989a5.819,5.819,0,0,1,3.751-1.369h18.344a4.1,4.1,0,0,0,4.1-4.1v-25.785a4.1,4.1,0,0,0-4.1-4.1Z" transform="translate(-1368.956 -1937.565)" fill="#5f5f5f"/>
      </g>
      <path id="패스_1121" data-name="패스 1121" d="M1282.6,1952.3H1181.788a9.8,9.8,0,0,1-9.788-9.788v-70.033a9.8,9.8,0,0,1,9.788-9.789H1282.6a9.8,9.8,0,0,1,9.788,9.789v11.9a1.854,1.854,0,1,1-3.709,0v-11.9a6.086,6.086,0,0,0-6.079-6.08H1181.788a6.086,6.086,0,0,0-6.079,6.08v70.033a6.086,6.086,0,0,0,6.079,6.08H1282.6a6.086,6.086,0,0,0,6.079-6.08v-4.58a1.854,1.854,0,1,1,3.709,0v4.58A9.8,9.8,0,0,1,1282.6,1952.3Z" transform="translate(-1172 -1862.695)" fill="#5f5f5f"/>
      <path id="패스_1122" data-name="패스 1122" d="M1290.538,1909.188H1173.854a1.854,1.854,0,1,1,0-3.709h116.683a1.854,1.854,0,0,1,0,3.709Z" transform="translate(-1172 -1889.611)" fill="#5f5f5f"/>
      <path id="패스_1123" data-name="패스 1123" d="M1250.489,1885.722a1.983,1.983,0,1,1-1.983-1.983A1.983,1.983,0,0,1,1250.489,1885.722Z" transform="translate(-1218.883 -1875.934)" fill="#5f5f5f"/>
      <path id="패스_1124" data-name="패스 1124" d="M1229.1,1885.722a1.983,1.983,0,1,1-1.983-1.983A1.983,1.983,0,0,1,1229.1,1885.722Z" transform="translate(-1205.425 -1875.934)" fill="#5f5f5f"/>
      <path id="패스_1125" data-name="패스 1125" d="M1207.706,1885.722a1.984,1.984,0,1,1-1.984-1.983A1.983,1.983,0,0,1,1207.706,1885.722Z" transform="translate(-1191.968 -1875.934)" fill="#5f5f5f"/>
    </g>
    <g id="그룹_718" data-name="그룹 718" transform="translate(1194.09 1901.984)">
      <path id="패스_1126" data-name="패스 1126" d="M1239.136,1982.875h-4.226v6.429h-3.35v-20.676h7.576q7.032,0,7.033,6.942A7.627,7.627,0,0,1,1244.4,1981,6.907,6.907,0,0,1,1239.136,1982.875Zm-4.226-2.9h4.2q3.622,0,3.622-4.407a4.5,4.5,0,0,0-.875-3.079,3.536,3.536,0,0,0-2.747-.966h-4.2Z" transform="translate(-1231.56 -1968.629)" fill="#5f5f5f"/>
      <path id="패스_1127" data-name="패스 1127" d="M1275.18,1968.629h3.532l2.958,17.778h.634l3.924-17.718h3.924l3.924,17.718h.664l2.958-17.778h3.532l-4.075,20.676h-5.4l-3.562-16.571-3.532,16.571h-5.433Z" transform="translate(-1259.002 -1968.629)" fill="#5f5f5f"/>
    </g>
  </g>
</svg>
