<svg id="그룹_552" data-name="그룹 552" xmlns="http://www.w3.org/2000/svg" width="88.426" height="75.142" viewBox="0 0 88.426 75.142">
  <g id="그룹_548" data-name="그룹 548" transform="translate(0 58.889)">
    <g id="그룹_547" data-name="그룹 547">
      <path id="패스_1024" data-name="패스 1024" d="M1294.69,574.237v7.148a3.514,3.514,0,0,1-3.51,3.51h-28.52a3.514,3.514,0,0,1-3.51-3.51v-7.148h35.539m2.8-2.8h-41.134v9.946a6.307,6.307,0,0,0,6.307,6.307h28.52a6.307,6.307,0,0,0,6.307-6.307v-9.946Z" transform="translate(-1256.353 -571.439)" fill="#858585"/>
    </g>
  </g>
  <g id="그룹_550" data-name="그룹 550" transform="translate(0 0)">
    <g id="그룹_549" data-name="그룹 549" transform="translate(0 0)">
      <path id="패스_1025" data-name="패스 1025" d="M1290.906,276.325a3.788,3.788,0,0,1,3.784,3.784v51.969a.053.053,0,0,1-.053.053H1259.15V280.109a3.788,3.788,0,0,1,3.784-3.784h27.971m0-2.8h-27.971a6.581,6.581,0,0,0-6.581,6.581v52.734a2.084,2.084,0,0,0,2.084,2.085h36.2a2.85,2.85,0,0,0,2.85-2.85V280.109a6.581,6.581,0,0,0-6.581-6.581Z" transform="translate(-1256.353 -273.528)" fill="#858585"/>
    </g>
  </g>
  <path id="패스_1026" data-name="패스 1026" d="M1347.171,607.763h-4.936a1.4,1.4,0,0,1,0-2.8h4.936a1.4,1.4,0,0,1,0,2.8Z" transform="translate(-1324.136 -539.449)" fill="#858585"/>
  <g id="그룹_551" data-name="그룹 551" transform="translate(31.681 13.93)">
    <path id="패스_1027" data-name="패스 1027" d="M1435.423,354.1v3.647l-11.727,4.611,11.727,4.468v3.79a3.035,3.035,0,0,0,3.026,3.026h36.167a3.035,3.035,0,0,0,3.026-3.026V354.1a3.035,3.035,0,0,0-3.026-3.027H1438.45A3.035,3.035,0,0,0,1435.423,354.1Z" transform="translate(-1422.297 -349.671)" fill="#fff"/>
    <path id="패스_1028" data-name="패스 1028" d="M1468.94,369.362h-36.167a4.43,4.43,0,0,1-4.425-4.425v-2.826l-10.826-4.125a1.4,1.4,0,0,1-.014-2.609l10.84-4.262V348.42a4.43,4.43,0,0,1,4.425-4.425h36.167a4.43,4.43,0,0,1,4.425,4.425v16.517A4.43,4.43,0,0,1,1468.94,369.362Zm-47.046-12.7,8.35,3.182a1.4,1.4,0,0,1,.9,1.307v3.79a1.629,1.629,0,0,0,1.628,1.628h36.167a1.629,1.629,0,0,0,1.627-1.628V348.42a1.629,1.629,0,0,0-1.627-1.628h-36.167a1.629,1.629,0,0,0-1.628,1.628v3.648a1.4,1.4,0,0,1-.887,1.3Zm7.852-4.59h0Z" transform="translate(-1416.62 -343.995)" fill="#858585"/>
  </g>
  <path id="패스_1029" data-name="패스 1029" d="M1586.886,393.968" transform="translate(-1521.548 -370.16)" fill="#858585"/>
  <path id="패스_1030" data-name="패스 1030" d="M1526.922,393.968" transform="translate(-1473.438 -370.16)" fill="#858585"/>
  <path id="패스_1031" data-name="패스 1031" d="M1586.886,421.721" transform="translate(-1521.548 -392.427)" fill="#858585"/>
  <path id="패스_1032" data-name="패스 1032" d="M1526.922,421.721" transform="translate(-1473.438 -392.427)" fill="#858585"/>
  <circle id="타원_18" data-name="타원 18" cx="2.277" cy="2.277" r="2.277" transform="translate(51.775 24.344)" fill="#df3818"/>
  <circle id="타원_19" data-name="타원 19" cx="2.277" cy="2.277" r="2.277" transform="translate(60.099 24.344)" fill="#df3818"/>
  <circle id="타원_20" data-name="타원 20" cx="2.277" cy="2.277" r="2.277" transform="translate(68.424 24.344)" fill="#df3818"/>
  <circle id="타원_21" data-name="타원 21" cx="2.277" cy="2.277" r="2.277" transform="translate(76.748 24.344)" fill="#df3818"/>
</svg>
