<svg xmlns="http://www.w3.org/2000/svg" width="163.058" height="47.65" viewBox="0 0 163.058 47.65">
  <g id="그룹_555" data-name="그룹 555" transform="translate(-592.979 -1100.571)">
    <path id="패스_977" data-name="패스 977" d="M151.33,338.284c.47-.1,1.355-.312,2.484-.587v-7.542A2.093,2.093,0,0,0,152.1,328c-2.479-.472-17.366-3.266-17.366-3.266s-4.21-1.031-4.21,2.484v26.512a3.166,3.166,0,0,0,3.4,2.709c2.191,0,10.277-1.593,14.893-2.541V342.06S148.781,338.833,151.33,338.284Z" transform="translate(469.758 782.508)" fill="#fff"/>
    <path id="패스_978" data-name="패스 978" d="M283.795,451.149V441.42l-1.381.261a1.485,1.485,0,0,0-1.217,1.525v10.975l.882-.187S283.795,453.672,283.795,451.149Z" transform="translate(339.778 681.73)" fill="#fff"/>
    <path id="패스_979" data-name="패스 979" d="M285.145,443.758s-1.312.386-3.357.969a1.614,1.614,0,0,0,1.137,1.3s10.683,2.289,12.895,2.289a2.246,2.246,0,0,0,2.411-1.922V427.588c0-2.494-2.986-1.762-2.986-1.762l-7.551,1.418v12.648A3.969,3.969,0,0,1,285.145,443.758Z" transform="translate(339.267 695.269)" fill="#fff"/>
    <path id="패스_980" data-name="패스 980" d="M107.792,283.267c-3.594-.773-24.291-6.05-24.291-6.05s-6.141-1.454-6.141,3.5v37.393s.409,3.821,4.958,3.821c3.035,0,13.8-2.874,20.634-4.788.906-.254,1.743-.491,2.484-.7,2.045-.583,3.357-.969,3.357-.969a3.969,3.969,0,0,0,2.548-3.867V298.96l-3.387.637v9.729c0,2.524-1.716,2.846-1.716,2.846l-.882.187c-.578.122-1.409.3-2.4.5-4.615.948-12.7,2.541-14.893,2.541a3.166,3.166,0,0,1-3.4-2.709V286.178c0-3.515,4.21-2.484,4.21-2.484s14.887,2.793,17.366,3.266a2.093,2.093,0,0,1,1.716,2.15v7.542c.981-.239,2.147-.528,3.387-.837V288.59S111.385,284.041,107.792,283.267Z" transform="translate(515.62 823.552)" fill="#858585"/>
    <path id="패스_981" data-name="패스 981" d="M283.453,392.114s-6.3,1.606-11.36,2.868c-1.24.309-2.406.6-3.387.837-1.129.275-2.014.486-2.484.587-2.549.549-2.517,3.776-2.517,3.776v11.844c.993-.2,1.824-.378,2.4-.5V400.55a1.485,1.485,0,0,1,1.217-1.525l1.381-.261,3.387-.637,7.551-1.418s2.986-.731,2.986,1.762v18.807a2.246,2.246,0,0,1-2.411,1.922c-2.212,0-12.895-2.289-12.895-2.289a1.614,1.614,0,0,1-1.137-1.3c-.741.211-1.577.448-2.483.7v.2a2.815,2.815,0,0,0,1.807,2.743s15.554,4.582,18.781,4.582a3.23,3.23,0,0,0,3.517-2.711V394.6C287.81,391.082,283.453,392.114,283.453,392.114Z" transform="translate(354.867 724.386)" fill="#858585"/>
    <path id="패스_982" data-name="패스 982" d="M524.263,376.571c-5.2,0-9.409,3.471-9.409,7.753s4.213,7.753,9.409,7.753,9.409-3.471,9.409-7.753S529.46,376.571,524.263,376.571Zm0,13.173c-2.286,0-4.14-2.426-4.14-5.42s1.854-5.42,4.14-5.42,4.14,2.427,4.14,5.42S526.549,389.744,524.263,389.744Z" transform="translate(138.21 737.673)" fill="#858585"/>
    <path id="패스_983" data-name="패스 983" d="M782.955,376.571c-5.2,0-9.409,3.471-9.409,7.753s4.213,7.753,9.409,7.753,9.409-3.471,9.409-7.753S788.152,376.571,782.955,376.571Zm0,13.173c-2.286,0-4.14-2.426-4.14-5.42s1.854-5.42,4.14-5.42,4.14,2.427,4.14,5.42S785.241,389.744,782.955,389.744Z" transform="translate(-84.953 737.673)" fill="#858585"/>
    <path id="패스_984" data-name="패스 984" d="M683.113,366.158V392.5h5.118V377.148h4.818v-2.86h-4.968v-8.129Z" transform="translate(-6.94 746.656)" fill="#858585"/>
    <path id="패스_985" data-name="패스 985" d="M906.179,365.217s4.065-7.226,8.958-8.882,4.366,3.237,4.366,3.237l-6.4,17.087s-.226,7.226,10.087-4.441c0,0-4.817,8.957-10.388,8.957s-5.57-1.957-5.043-4.14,6.4-16.56,6.4-16.56S915.136,354.83,906.179,365.217Z" transform="translate(-199.37 755.425)" fill="#858585"/>
    <path id="패스_986" data-name="패스 986" d="M1057.884,366.706v12.269h-6.4V370.62h2.71v-2.71h-22.431l-.075,2.785h4.215v8.732h-4.065v2.71h16.334c3.914,0,9.785-1.806,9.785-1.806v4.817h5.645V366.706Zm-12.5,12.8h-4.1V370.62h4.1Z" transform="translate(-307.643 746.183)" fill="#858585"/>
    <path id="패스_987" data-name="패스 987" d="M1079.384,514.86V511.4h-5.495v6.473h26.195V514.86Z" transform="translate(-344.047 621.363)" fill="#858585"/>
    <path id="패스_988" data-name="패스 988" d="M521.75,582.666v-4.091h.515v4.091Z" transform="translate(132.261 563.412)" fill="#858585"/>
    <path id="패스_989" data-name="패스 989" d="M532.929,589.079v-1.794a.829.829,0,0,0-.171-.584.691.691,0,0,0-.524-.18.822.822,0,0,0-.613.249.844.844,0,0,0-.243.613v1.7h-.527V586.11h.527v.336a2.292,2.292,0,0,1,.492-.336,1.187,1.187,0,0,1,.694-.1.875.875,0,0,1,.689.4,1.252,1.252,0,0,1,.208.648v2.025Z" transform="translate(124.409 557.011)" fill="#858585"/>
    <path id="패스_990" data-name="패스 990" d="M553.662,584.06a.513.513,0,0,1-.281-.075.738.738,0,0,1-.194-.174.545.545,0,0,1-.1-.214,1.689,1.689,0,0,1-.026-.347v-1.7h-.382v-.428l.382-.006v-.937h.526v.937l.446.006v.428h-.446v1.626q0,.1,0,.191a.238.238,0,0,0,.1.168.314.314,0,0,0,.174.078,1.3,1.3,0,0,0,.174.014l.006.434Z" transform="translate(105.581 562.03)" fill="#858585"/>
    <path id="패스_991" data-name="패스 991" d="M564.971,587.957a1.037,1.037,0,0,0,.289.732.89.89,0,0,0,.654.281.824.824,0,0,0,.556-.162.738.738,0,0,0,.231-.307h.567a1.372,1.372,0,0,1-.411.584,1.351,1.351,0,0,1-.937.289,1.4,1.4,0,0,1-1.071-.446,1.748,1.748,0,0,1-.015-2.248,1.4,1.4,0,0,1,1.079-.437,1.5,1.5,0,0,1,1.045.405,1.667,1.667,0,0,1,.431,1.308Zm1.869-.4a.982.982,0,0,0-.266-.663.886.886,0,0,0-.66-.246.928.928,0,0,0-.639.223.991.991,0,0,0-.292.686Z" transform="translate(95.44 556.796)" fill="#858585"/>
    <path id="패스_992" data-name="패스 992" d="M591.1,586.577a2.6,2.6,0,0,0-.266.012.6.6,0,0,0-.22.07.909.909,0,0,0-.4.379,1.385,1.385,0,0,0-.136.668v1.4h-.526v-2.963h.526v.417l.035.012a1.074,1.074,0,0,1,.234-.281,1.247,1.247,0,0,1,.31-.182.725.725,0,0,1,.286-.07l.159-.006Z" transform="translate(73.777 556.978)" fill="#858585"/>
    <path id="패스_993" data-name="패스 993" d="M606.158,589.079v-1.794a.83.83,0,0,0-.171-.584.691.691,0,0,0-.524-.18.822.822,0,0,0-.613.249.844.844,0,0,0-.243.613v1.7h-.527V586.11h.527v.336a2.3,2.3,0,0,1,.492-.336,1.187,1.187,0,0,1,.694-.1.875.875,0,0,1,.689.4,1.253,1.253,0,0,1,.208.648v2.025Z" transform="translate(61.238 557.011)" fill="#858585"/>
    <path id="패스_994" data-name="패스 994" d="M627.035,587.957a1.036,1.036,0,0,0,.289.732.89.89,0,0,0,.654.281.824.824,0,0,0,.556-.162.736.736,0,0,0,.231-.307h.567a1.373,1.373,0,0,1-.411.584,1.35,1.35,0,0,1-.937.289,1.4,1.4,0,0,1-1.071-.446,1.748,1.748,0,0,1-.015-2.248,1.4,1.4,0,0,1,1.079-.437,1.5,1.5,0,0,1,1.045.405,1.667,1.667,0,0,1,.431,1.308Zm1.869-.4a.982.982,0,0,0-.266-.663.885.885,0,0,0-.66-.246.928.928,0,0,0-.639.223.991.991,0,0,0-.292.686Z" transform="translate(41.9 556.796)" fill="#858585"/>
    <path id="패스_995" data-name="패스 995" d="M650.192,584.06a.513.513,0,0,1-.281-.075.739.739,0,0,1-.194-.174.548.548,0,0,1-.1-.214,1.694,1.694,0,0,1-.026-.347v-1.7h-.382v-.428l.382-.006v-.937h.527v.937l.446.006v.428h-.446v1.626q0,.1,0,.191a.238.238,0,0,0,.1.168.313.313,0,0,0,.174.078,1.3,1.3,0,0,0,.174.014l.006.434Z" transform="translate(22.309 562.03)" fill="#858585"/>
    <path id="패스_996" data-name="패스 996" d="M680.189,578.865a1.1,1.1,0,0,1,.405.894,1.144,1.144,0,0,1-.405.9,1.463,1.463,0,0,1-1,.353h-1.146v1.615h-.527v-4.1h1.673A1.516,1.516,0,0,1,680.189,578.865Zm-.42,1.481a.669.669,0,0,0,.258-.587.631.631,0,0,0-.258-.573,1.03,1.03,0,0,0-.576-.168h-1.146v1.51h1.146A.973.973,0,0,0,679.769,580.346Z" transform="translate(-2.116 563.449)" fill="#858585"/>
    <path id="패스_997" data-name="패스 997" d="M700.518,587.957a1.035,1.035,0,0,0,.289.732.89.89,0,0,0,.654.281.823.823,0,0,0,.555-.162.736.736,0,0,0,.232-.307h.567a1.373,1.373,0,0,1-.411.584,1.351,1.351,0,0,1-.937.289,1.4,1.4,0,0,1-1.07-.446,1.748,1.748,0,0,1-.015-2.248,1.4,1.4,0,0,1,1.079-.437,1.5,1.5,0,0,1,1.044.405,1.667,1.667,0,0,1,.431,1.308Zm1.869-.4a.983.983,0,0,0-.266-.663.885.885,0,0,0-.66-.246.928.928,0,0,0-.639.223.991.991,0,0,0-.292.686Z" transform="translate(-21.491 556.796)" fill="#858585"/>
    <path id="패스_998" data-name="패스 998" d="M726.643,586.577a2.593,2.593,0,0,0-.266.012.6.6,0,0,0-.22.07.909.909,0,0,0-.4.379,1.386,1.386,0,0,0-.136.668v1.4h-.527v-2.963h.527v.417l.035.012a1.077,1.077,0,0,1,.234-.281,1.249,1.249,0,0,1,.31-.182.725.725,0,0,1,.286-.07l.159-.006Z" transform="translate(-43.154 556.978)" fill="#858585"/>
    <path id="패스_999" data-name="패스 999" d="M738.95,587.874a.549.549,0,0,1,.151.451.858.858,0,0,1-.391.668,1.466,1.466,0,0,1-.877.263,1.238,1.238,0,0,1-1.071-.4,1.337,1.337,0,0,1-.3-.674h.526a.607.607,0,0,0,.24.417.911.911,0,0,0,.581.168.985.985,0,0,0,.489-.1.436.436,0,0,0,.223-.3.262.262,0,0,0-.072-.237.845.845,0,0,0-.263-.173,1.885,1.885,0,0,0-.523-.156,3.3,3.3,0,0,1-.466-.1,1.118,1.118,0,0,1-.451-.278.615.615,0,0,1-.162-.486.83.83,0,0,1,.336-.6,1.32,1.32,0,0,1,.874-.266,1.173,1.173,0,0,1,.914.327.9.9,0,0,1,.284.617h-.527a.516.516,0,0,0-.136-.289.7.7,0,0,0-.564-.174.756.756,0,0,0-.492.122.351.351,0,0,0-.139.266.279.279,0,0,0,.133.269,1.6,1.6,0,0,0,.307.124,4.007,4.007,0,0,0,.48.1,1.526,1.526,0,0,1,.492.159A1.6,1.6,0,0,1,738.95,587.874Z" transform="translate(-52.967 556.943)" fill="#858585"/>
    <path id="패스_1000" data-name="패스 1000" d="M759.986,586.441a1.65,1.65,0,0,1,.4,1.14,1.672,1.672,0,0,1-.4,1.146,1.572,1.572,0,0,1-2.217,0,1.671,1.671,0,0,1-.4-1.146,1.649,1.649,0,0,1,.4-1.14,1.586,1.586,0,0,1,2.217,0Zm-.414,1.985a1.289,1.289,0,0,0,.266-.845,1.254,1.254,0,0,0-.266-.836.932.932,0,0,0-1.4,0,1.262,1.262,0,0,0-.263.836,1.3,1.3,0,0,0,.263.845.915.915,0,0,0,1.4,0Z" transform="translate(-70.996 557.015)" fill="#858585"/>
    <path id="패스_1001" data-name="패스 1001" d="M784.766,589.079v-1.794a.83.83,0,0,0-.171-.584.691.691,0,0,0-.523-.18.822.822,0,0,0-.614.249.844.844,0,0,0-.243.613v1.7h-.527V586.11h.527v.336a2.3,2.3,0,0,1,.492-.336,1.187,1.187,0,0,1,.694-.1.876.876,0,0,1,.689.4,1.254,1.254,0,0,1,.208.648v2.025Z" transform="translate(-92.84 557.011)" fill="#858585"/>
    <path id="패스_1002" data-name="패스 1002" d="M807.194,589.08a.539.539,0,0,1-.072-.206,2.155,2.155,0,0,1-.026-.223,1.91,1.91,0,0,1-.463.35,1.434,1.434,0,0,1-.642.176,1.483,1.483,0,0,1-.787-.156.726.726,0,0,1-.388-.584.752.752,0,0,1,.153-.642,1.127,1.127,0,0,1,.547-.324,2.419,2.419,0,0,1,.558-.1,4.705,4.705,0,0,0,.576-.069c.1-.019.195-.044.3-.072s.15-.113.15-.252a.533.533,0,0,0-.174-.37.819.819,0,0,0-.6-.179.966.966,0,0,0-.622.162.421.421,0,0,0-.165.394H805a.744.744,0,0,1,.359-.738,1.735,1.735,0,0,1,.961-.258,1.68,1.68,0,0,1,.92.258.805.805,0,0,1,.4.715V588.6a.881.881,0,0,0,.055.338c.037.087.057.134.061.142Zm-.1-1.551a.935.935,0,0,1-.145.081.752.752,0,0,1-.173.058,3.49,3.49,0,0,1-.466.067,2.043,2.043,0,0,0-.431.072,1.135,1.135,0,0,0-.4.2.367.367,0,0,0-.1.356.355.355,0,0,0,.234.315,1.071,1.071,0,0,0,.437.066,1.176,1.176,0,0,0,.781-.3.743.743,0,0,0,.266-.5Z" transform="translate(-111.917 557.015)" fill="#858585"/>
    <path id="패스_1003" data-name="패스 1003" d="M830.259,582.672v-4.1h.521v4.1Z" transform="translate(-133.877 563.412)" fill="#858585"/>
    <path id="패스_1004" data-name="패스 1004" d="M854.106,582.672v-4.1h.521v4.1Z" transform="translate(-154.449 563.412)" fill="#858585"/>
    <path id="패스_1005" data-name="패스 1005" d="M864.127,582.672v-.318a1.458,1.458,0,0,1-.457.321,1.412,1.412,0,0,1-1.583-.333,1.66,1.66,0,0,1-.4-1.146,1.642,1.642,0,0,1,.4-1.151,1.341,1.341,0,0,1,1.039-.434,1.361,1.361,0,0,1,.544.11,1.424,1.424,0,0,1,.457.318v-1.464h.544v4.1Zm-.24-.66a1.245,1.245,0,0,0,.24-.816,1.221,1.221,0,0,0-.24-.81.849.849,0,0,0-.686-.284.814.814,0,0,0-.674.3,1.234,1.234,0,0,0-.24.793,1.258,1.258,0,0,0,.24.8.807.807,0,0,0,.674.307A.841.841,0,0,0,863.887,582.012Z" transform="translate(-160.992 563.412)" fill="#858585"/>
    <path id="패스_1006" data-name="패스 1006" d="M887.426,587.957a1.036,1.036,0,0,0,.289.732.89.89,0,0,0,.654.281.824.824,0,0,0,.556-.162.738.738,0,0,0,.231-.307h.567a1.371,1.371,0,0,1-.411.584,1.35,1.35,0,0,1-.937.289,1.4,1.4,0,0,1-1.071-.446,1.748,1.748,0,0,1-.015-2.248,1.4,1.4,0,0,1,1.079-.437,1.5,1.5,0,0,1,1.045.405,1.666,1.666,0,0,1,.431,1.308Zm1.869-.4a.982.982,0,0,0-.266-.663.886.886,0,0,0-.66-.246.928.928,0,0,0-.639.223.991.991,0,0,0-.292.686Z" transform="translate(-182.729 556.796)" fill="#858585"/>
    <path id="패스_1007" data-name="패스 1007" d="M914.076,589.079v-1.794a.83.83,0,0,0-.171-.584.691.691,0,0,0-.524-.18.822.822,0,0,0-.614.249.844.844,0,0,0-.243.613v1.7H912V586.11h.527v.336a2.294,2.294,0,0,1,.492-.336,1.187,1.187,0,0,1,.694-.1.875.875,0,0,1,.689.4,1.252,1.252,0,0,1,.208.648v2.025Z" transform="translate(-204.391 557.011)" fill="#858585"/>
    <path id="패스_1008" data-name="패스 1008" d="M934.81,584.06a.513.513,0,0,1-.281-.075.736.736,0,0,1-.194-.174.545.545,0,0,1-.1-.214,1.679,1.679,0,0,1-.026-.347v-1.7h-.382v-.428l.382-.006v-.937h.527v.937l.446.006v.428h-.446v1.626c0,.07,0,.133,0,.191a.238.238,0,0,0,.1.168.314.314,0,0,0,.174.078,1.3,1.3,0,0,0,.174.014l.006.434Z" transform="translate(-223.22 562.03)" fill="#858585"/>
    <path id="패스_1009" data-name="패스 1009" d="M947.393,578.739v-.544h.532v.544Zm0,3.6v-2.986h.526v2.986Z" transform="translate(-234.924 563.74)" fill="#858585"/>
    <path id="패스_1010" data-name="패스 1010" d="M955,580.127v2.511h-.526v-2.511l-.382.006V579.7l.382-.006v-.359a1.7,1.7,0,0,1,.026-.347.6.6,0,0,1,.1-.22.7.7,0,0,1,.194-.171.5.5,0,0,1,.281-.067h.37v.451q-.058,0-.159-.009a.239.239,0,0,0-.182.061.272.272,0,0,0-.093.165,1.681,1.681,0,0,0-.012.211v.284l.446.006v.428Z" transform="translate(-240.704 563.451)" fill="#858585"/>
    <path id="패스_1011" data-name="패스 1011" d="M967.659,578.739v-.544h.532v.544Zm0,3.6v-2.986h.527v2.986Z" transform="translate(-252.407 563.74)" fill="#858585"/>
    <path id="패스_1012" data-name="패스 1012" d="M977.811,588.143a1.481,1.481,0,0,1-.449.723,1.34,1.34,0,0,1-.946.318,1.405,1.405,0,0,1-1.105-.454,1.815,1.815,0,0,1,0-2.286,1.406,1.406,0,0,1,1.105-.454,1.381,1.381,0,0,1,1.395,1.042h-.585a.874.874,0,0,0-.231-.379.768.768,0,0,0-.579-.194.816.816,0,0,0-.677.315,1.457,1.457,0,0,0,0,1.629.813.813,0,0,0,.677.319.8.8,0,0,0,.541-.177.825.825,0,0,0,.269-.4Z" transform="translate(-258.658 557.015)" fill="#858585"/>
    <path id="패스_1013" data-name="패스 1013" d="M999.79,589.08a.538.538,0,0,1-.072-.206,2.167,2.167,0,0,1-.026-.223,1.914,1.914,0,0,1-.463.35,1.433,1.433,0,0,1-.642.176,1.482,1.482,0,0,1-.787-.156.726.726,0,0,1-.388-.584.752.752,0,0,1,.153-.642,1.128,1.128,0,0,1,.547-.324,2.418,2.418,0,0,1,.558-.1,4.708,4.708,0,0,0,.576-.069c.1-.019.195-.044.3-.072s.15-.113.15-.252a.534.534,0,0,0-.174-.37.82.82,0,0,0-.6-.179.966.966,0,0,0-.622.162.421.421,0,0,0-.165.394H997.6a.745.745,0,0,1,.359-.738,1.735,1.735,0,0,1,.961-.258,1.68,1.68,0,0,1,.92.258.805.805,0,0,1,.405.715V588.6a.881.881,0,0,0,.055.338c.037.087.057.134.061.142Zm-.1-1.551a.952.952,0,0,1-.145.081.756.756,0,0,1-.174.058,3.484,3.484,0,0,1-.466.067,2.041,2.041,0,0,0-.431.072,1.134,1.134,0,0,0-.4.2.367.367,0,0,0-.1.356.356.356,0,0,0,.234.315,1.072,1.072,0,0,0,.437.066,1.176,1.176,0,0,0,.781-.3.744.744,0,0,0,.266-.5Z" transform="translate(-278.062 557.015)" fill="#858585"/>
    <path id="패스_1014" data-name="패스 1014" d="M1021.438,584.06a.513.513,0,0,1-.281-.075.735.735,0,0,1-.194-.174.548.548,0,0,1-.1-.214,1.7,1.7,0,0,1-.026-.347v-1.7h-.382v-.428l.382-.006v-.937h.527v.937l.446.006v.428h-.446v1.626c0,.07,0,.133,0,.191a.239.239,0,0,0,.1.168.314.314,0,0,0,.174.078,1.3,1.3,0,0,0,.174.014l.006.434Z" transform="translate(-297.951 562.03)" fill="#858585"/>
    <path id="패스_1015" data-name="패스 1015" d="M1034.021,578.739v-.544h.532v.544Zm0,3.6v-2.986h.527v2.986Z" transform="translate(-309.654 563.74)" fill="#858585"/>
    <path id="패스_1016" data-name="패스 1016" d="M1043.718,586.441a1.65,1.65,0,0,1,.4,1.14,1.672,1.672,0,0,1-.4,1.146,1.572,1.572,0,0,1-2.216,0,1.671,1.671,0,0,1-.4-1.146,1.65,1.65,0,0,1,.4-1.14,1.586,1.586,0,0,1,2.216,0Zm-.414,1.985a1.29,1.29,0,0,0,.266-.845,1.254,1.254,0,0,0-.266-.836.931.931,0,0,0-1.4,0,1.26,1.26,0,0,0-.264.836,1.3,1.3,0,0,0,.264.845.915.915,0,0,0,1.4,0Z" transform="translate(-315.761 557.015)" fill="#858585"/>
    <path id="패스_1017" data-name="패스 1017" d="M1068.5,589.079v-1.794a.83.83,0,0,0-.171-.584.692.692,0,0,0-.524-.18.822.822,0,0,0-.614.249.845.845,0,0,0-.243.613v1.7h-.527V586.11h.527v.336a2.3,2.3,0,0,1,.492-.336,1.187,1.187,0,0,1,.694-.1.875.875,0,0,1,.689.4,1.253,1.253,0,0,1,.208.648v2.025Z" transform="translate(-337.605 557.011)" fill="#858585"/>
    <path id="패스_1018" data-name="패스 1018" d="M1107.977,582.647l-2.02-3.252-.035.012v3.223h-.526v-4.1h.625l2.025,3.246.035-.011v-3.229h.532v4.109Z" transform="translate(-371.227 563.449)" fill="#858585"/>
    <path id="패스_1019" data-name="패스 1019" d="M1135.831,589.808v-.37a1.149,1.149,0,0,1-.408.33,1.3,1.3,0,0,1-.616.145,1.121,1.121,0,0,1-.718-.272,1.009,1.009,0,0,1-.335-.833v-1.973h.527v1.794a.816.816,0,0,0,.194.6.673.673,0,0,0,.547.171.811.811,0,0,0,.81-.885v-1.678h.544v2.974Z" transform="translate(-395.69 556.287)" fill="#858585"/>
    <path id="패스_1020" data-name="패스 1020" d="M1161.487,589.06l-.006-1.881a1.158,1.158,0,0,0-.1-.544q-.1-.185-.46-.168a.67.67,0,0,0-.48.234.881.881,0,0,0-.179.588v1.771h-.532v-1.881a1.187,1.187,0,0,0-.1-.544q-.1-.185-.457-.168a.676.676,0,0,0-.486.234.881.881,0,0,0-.179.588v1.771h-.527v-2.968h.527v.359a2.236,2.236,0,0,1,.393-.336.9.9,0,0,1,.614-.133.757.757,0,0,1,.648.515,2.779,2.779,0,0,1,.374-.347.961.961,0,0,1,.726-.168.7.7,0,0,1,.59.367,1.525,1.525,0,0,1,.156.686v2.025Z" transform="translate(-416.589 557.029)" fill="#858585"/>
    <path id="패스_1021" data-name="패스 1021" d="M1195.057,580.045a1.635,1.635,0,0,1,.4,1.151,1.652,1.652,0,0,1-.4,1.146,1.326,1.326,0,0,1-1.036.446,1.347,1.347,0,0,1-.547-.113,1.49,1.49,0,0,1-.46-.315v.318h-.526v-4.1h.526v1.458a1.454,1.454,0,0,1,.46-.313,1.38,1.38,0,0,1,.547-.11A1.343,1.343,0,0,1,1195.057,580.045Zm-.417,1.973a1.449,1.449,0,0,0,0-1.641.858.858,0,0,0-.7-.31.879.879,0,0,0-.7.292,1.52,1.52,0,0,0,0,1.675.875.875,0,0,0,.7.3A.855.855,0,0,0,1194.641,582.018Z" transform="translate(-446.358 563.412)" fill="#858585"/>
    <path id="패스_1022" data-name="패스 1022" d="M1217.041,587.957a1.035,1.035,0,0,0,.289.732.89.89,0,0,0,.654.281.824.824,0,0,0,.556-.162.74.74,0,0,0,.232-.307h.567a1.372,1.372,0,0,1-.411.584,1.351,1.351,0,0,1-.937.289,1.4,1.4,0,0,1-1.071-.446,1.748,1.748,0,0,1-.015-2.248,1.4,1.4,0,0,1,1.079-.437,1.5,1.5,0,0,1,1.045.405,1.667,1.667,0,0,1,.431,1.308Zm1.869-.4a.985.985,0,0,0-.266-.663.886.886,0,0,0-.66-.246.927.927,0,0,0-.639.223.99.99,0,0,0-.292.686Z" transform="translate(-467.074 556.796)" fill="#858585"/>
    <path id="패스_1023" data-name="패스 1023" d="M1243.168,586.577a2.583,2.583,0,0,0-.266.012.6.6,0,0,0-.22.07.91.91,0,0,0-.4.379,1.387,1.387,0,0,0-.136.668v1.4h-.527v-2.963h.527v.417l.035.012a1.073,1.073,0,0,1,.234-.281,1.25,1.25,0,0,1,.31-.182.721.721,0,0,1,.286-.07l.159-.006Z" transform="translate(-488.74 556.978)" fill="#858585"/>
  </g>
</svg>
