<svg xmlns="http://www.w3.org/2000/svg" width="87.158" height="84.488" viewBox="0 0 87.158 84.488">
  <g id="그룹_595" data-name="그룹 595" transform="translate(-997.721 -214.459)">
    <path id="패스_1055" data-name="패스 1055" d="M1138.482,478.769a1.342,1.342,0,0,1-.624-.154l-10.315-5.423-10.315,5.423a1.341,1.341,0,0,1-1.946-1.414l1.97-11.486-8.345-8.134a1.341,1.341,0,0,1,.743-2.287l11.533-1.676,5.157-10.45a1.341,1.341,0,0,1,2.4,0l5.157,10.45,11.533,1.676a1.341,1.341,0,0,1,.743,2.287l-8.345,8.134,1.97,11.486a1.341,1.341,0,0,1-1.322,1.568Zm-10.939-8.433a1.341,1.341,0,0,1,.624.154l8.534,4.487-1.63-9.5a1.341,1.341,0,0,1,.386-1.187l6.9-6.73-9.542-1.386a1.341,1.341,0,0,1-1.01-.734l-4.267-8.646-4.267,8.646a1.341,1.341,0,0,1-1.01.734l-9.542,1.386,6.9,6.73a1.341,1.341,0,0,1,.386,1.187l-1.63,9.5,8.534-4.487A1.34,1.34,0,0,1,1127.543,470.336Z" transform="translate(-90.976 -187.205)" fill="#474747"/>
    <path id="패스_1056" data-name="패스 1056" d="M1340.214,326.409a1.34,1.34,0,0,1-.624-.154l-6.82-3.586-6.82,3.586a1.341,1.341,0,0,1-1.945-1.414l1.3-7.594-5.517-5.378a1.341,1.341,0,0,1,.743-2.287l7.625-1.108,3.41-6.909a1.341,1.341,0,0,1,2.4,0l3.41,6.909,7.625,1.108a1.341,1.341,0,0,1,.743,2.287l-5.517,5.378,1.3,7.594a1.341,1.341,0,0,1-1.322,1.568Zm-7.444-6.6a1.341,1.341,0,0,1,.624.154l5.039,2.649-.962-5.611a1.34,1.34,0,0,1,.386-1.187l4.077-3.974-5.634-.819a1.34,1.34,0,0,1-1.01-.734l-2.52-5.1-2.519,5.1a1.341,1.341,0,0,1-1.01.734l-5.634.819,4.077,3.974a1.341,1.341,0,0,1,.385,1.187l-.962,5.611,5.039-2.649A1.34,1.34,0,0,1,1332.77,319.814Z" transform="translate(-264.156 -70.919)" fill="#474747"/>
    <path id="패스_1057" data-name="패스 1057" d="M1015.487,331.237a1.343,1.343,0,0,1-.624-.154l-5.65-2.971-5.65,2.971a1.341,1.341,0,0,1-1.946-1.414l1.079-6.291-4.571-4.456a1.341,1.341,0,0,1,.743-2.287l6.317-.918,2.825-5.724a1.341,1.341,0,0,1,2.4,0l2.825,5.724,6.317.918a1.341,1.341,0,0,1,.743,2.287l-4.571,4.456,1.079,6.291a1.341,1.341,0,0,1-1.322,1.568Zm-6.274-5.98a1.341,1.341,0,0,1,.624.154l3.869,2.034-.739-4.308a1.341,1.341,0,0,1,.386-1.187l3.13-3.051-4.326-.629a1.341,1.341,0,0,1-1.01-.733l-1.935-3.92-1.934,3.92a1.341,1.341,0,0,1-1.01.733l-4.326.629,3.13,3.051a1.341,1.341,0,0,1,.386,1.187l-.739,4.308,3.869-2.034A1.341,1.341,0,0,1,1009.213,325.257Z" transform="translate(0 -77.841)" fill="#474747"/>
    <g id="그룹_592" data-name="그룹 592" transform="translate(1070.943 287.396)">
      <path id="패스_1058" data-name="패스 1058" d="M1433.837,626.075a1.252,1.252,0,0,1-1.252-1.252v-1.151a1.252,1.252,0,0,1,2.5,0v1.151A1.251,1.251,0,0,1,1433.837,626.075Z" transform="translate(-1428.061 -622.42)" fill="#474747"/>
      <path id="패스_1059" data-name="패스 1059" d="M1433.837,670.245a1.251,1.251,0,0,1-1.252-1.252v-1.152a1.252,1.252,0,0,1,2.5,0v1.152A1.251,1.251,0,0,1,1433.837,670.245Z" transform="translate(-1428.061 -658.693)" fill="#474747"/>
      <path id="패스_1060" data-name="패스 1060" d="M1409.682,650.229h-1.152a1.251,1.251,0,1,1,0-2.5h1.152a1.251,1.251,0,0,1,0,2.5Z" transform="translate(-1407.279 -643.202)" fill="#474747"/>
      <path id="패스_1061" data-name="패스 1061" d="M1453.852,650.229H1452.7a1.251,1.251,0,0,1,0-2.5h1.152a1.251,1.251,0,0,1,0,2.5Z" transform="translate(-1443.552 -643.202)" fill="#474747"/>
    </g>
    <g id="그룹_593" data-name="그룹 593" transform="translate(1065.498 263.172)">
      <path id="패스_1062" data-name="패스 1062" d="M1403.378,490.58a1.252,1.252,0,0,1-1.252-1.251v-1.152a1.252,1.252,0,1,1,2.5,0v1.152A1.251,1.251,0,0,1,1403.378,490.58Z" transform="translate(-1397.602 -486.925)" fill="#474747"/>
      <path id="패스_1063" data-name="패스 1063" d="M1403.378,534.75a1.252,1.252,0,0,1-1.252-1.252v-1.151a1.252,1.252,0,1,1,2.5,0V533.5A1.251,1.251,0,0,1,1403.378,534.75Z" transform="translate(-1397.602 -523.198)" fill="#474747"/>
      <path id="패스_1064" data-name="패스 1064" d="M1379.224,514.734h-1.151a1.251,1.251,0,1,1,0-2.5h1.151a1.251,1.251,0,1,1,0,2.5Z" transform="translate(-1376.821 -507.707)" fill="#474747"/>
      <path id="패스_1065" data-name="패스 1065" d="M1423.394,514.734h-1.151a1.251,1.251,0,1,1,0-2.5h1.151a1.251,1.251,0,0,1,0,2.5Z" transform="translate(-1413.094 -507.707)" fill="#474747"/>
    </g>
    <circle id="타원_30" data-name="타원 30" cx="1.649" cy="1.649" r="1.649" transform="translate(1081.58 276.3)" fill="#474747"/>
    <circle id="타원_31" data-name="타원 31" cx="1.649" cy="1.649" r="1.649" transform="translate(1060.255 284.388)" fill="#474747"/>
    <g id="그룹_594" data-name="그룹 594" transform="translate(1000.756 279.657)">
      <path id="패스_1066" data-name="패스 1066" d="M1041.254,582.788a1.252,1.252,0,0,1-1.252-1.251v-1.152a1.252,1.252,0,0,1,2.5,0v1.152A1.251,1.251,0,0,1,1041.254,582.788Z" transform="translate(-1035.478 -579.133)" fill="#474747"/>
      <path id="패스_1067" data-name="패스 1067" d="M1041.254,626.958a1.252,1.252,0,0,1-1.252-1.251v-1.152a1.252,1.252,0,1,1,2.5,0v1.152A1.251,1.251,0,0,1,1041.254,626.958Z" transform="translate(-1035.478 -615.406)" fill="#474747"/>
      <path id="패스_1068" data-name="패스 1068" d="M1017.1,606.942h-1.151a1.251,1.251,0,1,1,0-2.5h1.151a1.251,1.251,0,1,1,0,2.5Z" transform="translate(-1014.697 -599.915)" fill="#474747"/>
      <path id="패스_1069" data-name="패스 1069" d="M1061.269,606.942h-1.152a1.251,1.251,0,1,1,0-2.5h1.152a1.251,1.251,0,0,1,0,2.5Z" transform="translate(-1050.969 -599.915)" fill="#474747"/>
    </g>
    <circle id="타원_32" data-name="타원 32" cx="1.649" cy="1.649" r="1.649" transform="translate(1004.929 265.262)" fill="#474747"/>
    <path id="패스_1070" data-name="패스 1070" d="M1055.842,228.8a1.341,1.341,0,0,1-1.341-1.341V215.8a1.341,1.341,0,1,1,2.682,0v11.657A1.341,1.341,0,0,1,1055.842,228.8Z" transform="translate(-46.629 0)" fill="#474747"/>
    <path id="패스_1071" data-name="패스 1071" d="M1388.094,226.535a1.341,1.341,0,0,1-1.341-1.341V215.8a1.341,1.341,0,0,1,2.682,0v9.394A1.341,1.341,0,0,1,1388.094,226.535Z" transform="translate(-319.48 0)" fill="#474747"/>
    <path id="패스_1072" data-name="패스 1072" d="M1208.844,252.215a1.341,1.341,0,0,1-1.341-1.341V215.8a1.341,1.341,0,1,1,2.682,0v35.074A1.341,1.341,0,0,1,1208.844,252.215Z" transform="translate(-172.277 0)" fill="#474747"/>
    <path id="패스_1073" data-name="패스 1073" d="M1293.663,409.009a1.341,1.341,0,0,1-1.341-1.341V393.9a1.341,1.341,0,0,1,2.682,0v13.769A1.341,1.341,0,0,1,1293.663,409.009Z" transform="translate(-241.931 -146.258)" fill="#474747"/>
    <path id="패스_1074" data-name="패스 1074" d="M1293.663,275.476a1.341,1.341,0,0,1-1.341-1.341v-9.792a1.341,1.341,0,0,1,2.682,0v9.792A1.341,1.341,0,0,1,1293.663,275.476Z" transform="translate(-241.931 -39.864)" fill="#474747"/>
    <path id="패스_1075" data-name="패스 1075" d="M1293.663,218.677a1.341,1.341,0,0,1-1.341-1.341V215.8a1.341,1.341,0,0,1,2.682,0v1.536A1.341,1.341,0,0,1,1293.663,218.677Z" transform="translate(-241.931 0)" fill="#474747"/>
    <path id="패스_1076" data-name="패스 1076" d="M1138.7,231.279a1.341,1.341,0,0,1-1.341-1.341V215.8a1.341,1.341,0,1,1,2.682,0v14.138A1.341,1.341,0,0,1,1138.7,231.279Z" transform="translate(-114.677 0)" fill="#474747"/>
  </g>
</svg>
