<svg xmlns="http://www.w3.org/2000/svg" width="60.5" height="60.5" viewBox="0 0 60.5 60.5">
  <g id="그룹_660" data-name="그룹 660" transform="translate(-1705.75 -535.75)">
    <path id="패스_1082" data-name="패스 1082" d="M1893.7,676.437l-18.3-11.969,1.66,21.573,4.958-5.228,6.7,11.6,2.335-1.347,2.335-1.348-6.7-11.6Z" transform="translate(-128.696 -97.415)" fill="none" stroke="#3d3d3d" stroke-linecap="round" stroke-linejoin="round" stroke-width="2.5"/>
    <path id="패스_1083" data-name="패스 1083" d="M1779.271,640.563a33.212,33.212,0,0,1-6.489.593c-14.433,0-17.652-7.565-17.652-7.565V618.845" transform="translate(-36.782 -62.548)" fill="none" stroke="#3d3d3d" stroke-linecap="round" stroke-linejoin="round" stroke-width="2.5"/>
    <line id="선_6" data-name="선 6" y2="8.255" transform="translate(1753.652 557.174)" fill="none" stroke="#3d3d3d" stroke-linecap="round" stroke-linejoin="round" stroke-width="2.5"/>
    <path id="패스_1084" data-name="패스 1084" d="M1718.348,556.3,1707,550.87,1736,537l29,13.87-29,13.87-17.652-8.442" fill="none" stroke="#3d3d3d" stroke-linecap="round" stroke-linejoin="round" stroke-width="2.5"/>
    <line id="선_7" data-name="선 7" y2="21.544" transform="translate(1712.043 553.282)" fill="none" stroke="#3d3d3d" stroke-linecap="round" stroke-linejoin="round" stroke-width="2.5"/>
    <path id="패스_1085" data-name="패스 1085" d="M1712.348,701.218a3.783,3.783,0,1,0,3.782-3.783A3.782,3.782,0,0,0,1712.348,701.218Z" transform="translate(-4.087 -122.609)" fill="none" stroke="#3d3d3d" stroke-linecap="round" stroke-linejoin="round" stroke-width="2.5"/>
  </g>
</svg>
