<svg xmlns="http://www.w3.org/2000/svg" width="68.027" height="65" viewBox="0 0 68.027 65">
  <g id="그룹_666" data-name="그룹 666" transform="translate(-325.787 -215.729)">
    <g id="그룹_665" data-name="그룹 665" transform="translate(327.371 227.118)">
      <g id="그룹_663" data-name="그룹 663" transform="translate(16.791 4.18)">
        <path id="패스_1093" data-name="패스 1093" d="M376.445,265.712a2.049,2.049,0,0,1-.951-.236l-4.152-2.183a.809.809,0,0,0-.748,0l-4.152,2.183a2.078,2.078,0,0,1-2.517-.5,2.036,2.036,0,0,1-.448-1.659l.794-4.623a.807.807,0,0,0-.232-.71l-3.359-3.273a2.045,2.045,0,0,1,1.133-3.487l4.642-.673a.816.816,0,0,0,.6-.439l2.076-4.206a2.043,2.043,0,0,1,3.665,0l2.077,4.207a.8.8,0,0,0,.6.44l4.641.673a2.044,2.044,0,0,1,1.132,3.487l-3.358,3.274a.8.8,0,0,0-.231.71l.792,4.622a2.046,2.046,0,0,1-2.014,2.392ZM362.32,253.319l3.217,3.134a2.945,2.945,0,0,1,.847,2.606l-.762,4.443L369.6,261.4a3,3,0,0,1,2.741,0l3.974,2.089-.758-4.426a2.948,2.948,0,0,1,.846-2.605l3.216-3.135-4.444-.645a2.946,2.946,0,0,1-2.217-1.612l-1.987-4.026-1.987,4.026a2.946,2.946,0,0,1-2.217,1.611Z" transform="translate(-360.062 -244.768)" fill="#3d3d3d"/>
      </g>
      <path id="패스_1094" data-name="패스 1094" d="M341.475,266.395,334,261.628a6.8,6.8,0,0,1-3.117-5.687v-5.778a3.217,3.217,0,0,1,3.214-3.213h2.312q-.072-1.049-.116-2.143h-2.2a5.362,5.362,0,0,0-5.356,5.356v5.778a8.851,8.851,0,0,0,4.107,7.494l11.212,7.151A34.01,34.01,0,0,1,341.475,266.395Z" transform="translate(-328.742 -240.607)" fill="#3d3d3d"/>
      <path id="패스_1095" data-name="패스 1095" d="M413.454,244.807h-2.2q-.044,1.094-.118,2.143h2.313a3.217,3.217,0,0,1,3.214,3.213v5.778a6.807,6.807,0,0,1-3.117,5.687l-7.477,4.77a34.078,34.078,0,0,1-2.587,4.192l11.217-7.156a8.849,8.849,0,0,0,4.107-7.493v-5.778A5.363,5.363,0,0,0,413.454,244.807Z" transform="translate(-363.415 -240.607)" fill="#3d3d3d"/>
      <g id="그룹_664" data-name="그룹 664" transform="translate(17.661 45.262)">
        <path id="패스_1096" data-name="패스 1096" d="M380.687,329.748H362.755a1.072,1.072,0,0,1-1.071-1.072v-6.206a1.072,1.072,0,0,1,1.071-1.072h17.932a1.072,1.072,0,0,1,1.071,1.072v6.206A1.071,1.071,0,0,1,380.687,329.748Zm-16.86-2.143h15.789v-4.063H363.827Z" transform="translate(-361.684 -321.399)" fill="#3d3d3d"/>
      </g>
      <path id="패스_1097" data-name="패스 1097" d="M382.615,237.491a1.746,1.746,0,0,0-1.246-.519H344.478a1.753,1.753,0,0,0-1.253.52,1.73,1.73,0,0,0-.506,1.238c.192,25.811,12.949,34.136,16.165,35.823v7.681h2.143v-8.007a1.632,1.632,0,0,0-.93-1.46c-2.5-1.237-14.915-8.652-15.232-33.653h36.114c-.316,24.988-12.731,32.411-15.224,33.649a1.636,1.636,0,0,0-.938,1.464v8.007h2.143v-7.681c3.206-1.683,15.967-10.011,16.165-35.8A1.758,1.758,0,0,0,382.615,237.491Z" transform="translate(-335.226 -236.972)" fill="#3d3d3d"/>
    </g>
    <path id="패스_1098" data-name="패스 1098" d="M444.678,234.27h-1.859v-1.859a1.072,1.072,0,0,0-2.144,0v1.859h-1.858a1.072,1.072,0,1,0,0,2.144h1.858v1.858a1.072,1.072,0,1,0,2.144,0v-1.858h1.859a1.072,1.072,0,1,0,0-2.144Z" transform="translate(-51.935 -7.241)" fill="#3d3d3d"/>
    <path id="패스_1099" data-name="패스 1099" d="M343.6,304.6h-1.859v-1.859a1.072,1.072,0,0,0-2.144,0V304.6h-1.859a1.072,1.072,0,1,0,0,2.144H339.6v1.858a1.072,1.072,0,1,0,2.144,0v-1.858H343.6a1.072,1.072,0,1,0,0-2.144Z" transform="translate(-5.047 -39.868)" fill="#3d3d3d"/>
    <path id="패스_1100" data-name="패스 1100" d="M332.721,218.659h-1.859V216.8a1.072,1.072,0,1,0-2.144,0v1.858h-1.858a1.072,1.072,0,0,0,0,2.144h1.858v1.859a1.072,1.072,0,1,0,2.144,0V220.8h1.859a1.072,1.072,0,0,0,0-2.144Z" transform="translate(0 0)" fill="#3d3d3d"/>
  </g>
</svg>
