<svg xmlns="http://www.w3.org/2000/svg" width="167.77" height="51" viewBox="0 0 167.77 51">
  <g id="그룹_42" data-name="그룹 42" transform="translate(-1345.63 -865)">
    <text id="운동을_더_안전하게_" data-name="운동을 더 안전하게!" transform="translate(1406 879)" fill="#3d3d3d" font-size="12" font-family="NotoSansCJKkr-Regular, Noto Sans CJK KR"><tspan x="0" y="0">운동을 더 안전하게!</tspan></text>
    <g id="그룹_33" data-name="그룹 33" transform="translate(1406.144 888.355)">
      <path id="패스_83" data-name="패스 83" d="M-279.774,1197.856v4.769a.779.779,0,0,0,.807.746h8.08v-1.495h-7.268v-4.021Z" transform="translate(375.516 -1188.097)" fill="#1a1818"/>
      <path id="패스_84" data-name="패스 84" d="M-278.622,1186.289H-285.5a1.1,1.1,0,0,1-1.095-1.095v-6.449h8.234v1.5h-6.66v4.558h6.4a5.434,5.434,0,0,0,1.391-.172c.506-.176.421-.176.421-.176v1.484a3.975,3.975,0,0,1-.38.119,5.6,5.6,0,0,1-1.431.228" transform="translate(379.159 -1177.893)" fill="#1a1818"/>
      <path id="패스_85" data-name="패스 85" d="M-260.167,1180.881v1.52h-2.861v6.239h-1.59v-11.567h1.59v3.808Z" transform="translate(367.423 -1177.001)" fill="#1a1818"/>
      <path id="패스_86" data-name="패스 86" d="M-345.948,1181.02a8.4,8.4,0,0,1-.934,1.824l3.125,3.144-1.139,1.139-2.966-3a15.089,15.089,0,0,1-4.214,3.079l-1.1-1.246c4.482-2,5.542-5.041,5.673-5.514h-4.666v-1.478h5.857c.49,0,.783.547.652,1.213a7.3,7.3,0,0,1-.286.843" transform="translate(414.71 -1178.011)" fill="#1a1818"/>
      <path id="패스_87" data-name="패스 87" d="M-316.088,1183.439l3.031,3.1-1.138,1.139-2.855-2.9a15.1,15.1,0,0,1-4.213,3.077l-1.1-1.246a9.633,9.633,0,0,0,5.673-6.121h-4.665v-1.477h5.857c.489,0,.851.431.721,1.1a14.21,14.21,0,0,1-1.307,3.328" transform="translate(398.258 -1178.036)" fill="#1a1818"/>
      <rect id="사각형_42" data-name="사각형 42" width="1.602" height="2.941" transform="translate(38.44 0)" fill="#1a1818"/>
      <path id="패스_88" data-name="패스 88" d="M-342.652,1197.3v5.027a.78.78,0,0,0,.806.746h7.824v-1.5h-7.01V1197.3Z" transform="translate(409.089 -1187.803)" fill="#1a1818"/>
      <path id="패스_89" data-name="패스 89" d="M-375.977,1197.3v5.027a.779.779,0,0,0,.806.746h7.824v-1.5h-7.01V1197.3Z" transform="translate(426.883 -1187.803)" fill="#1a1818"/>
      <rect id="사각형_43" data-name="사각형 43" width="15.195" height="1.52" transform="translate(0 11.603)" fill="#1a1818"/>
      <path id="패스_90" data-name="패스 90" d="M-476.458,1180.117l6.1,5.123-1.055,1.161-5.708-4.783c-.984,1.752-2.646,3.272-6,4.7l-1.073-1.2c4.015-1.7,6.338-4.164,6.338-6.9v-1.287h1.7v1.287a6.374,6.374,0,0,1-.3,1.895" transform="translate(484.664 -1176.927)" fill="#1a1818"/>
      <path id="패스_91" data-name="패스 91" d="M-435.486,1197.894v1.485h-15.2v-1.485h6.846v-3.488h1.591v3.488Z" transform="translate(466.774 -1186.255)" fill="#1a1818"/>
      <rect id="사각형_44" data-name="사각형 44" width="15.195" height="1.501" transform="translate(32.18 11.621)" fill="#1a1818"/>
      <path id="패스_92" data-name="패스 92" d="M-405.009,1182.86a8.847,8.847,0,0,1-1.728,1.93l5.072,2.619-1.091,1.234-5.34-2.816a19.082,19.082,0,0,1-7.132,2.864l-.965-1.3c4.914-1.112,7.309-2.685,8.919-4.313h-7.042v-1.448s8.243,0,8.572,0c.655,0,1.2.52.733,1.234" transform="translate(448.356 -1179.432)" fill="#1a1818"/>
      <path id="패스_93" data-name="패스 93" d="M-356.819,1181.169v1.52h-2.861v6.06h-1.591v-11.566h1.591v3.986Z" transform="translate(419.03 -1177.059)" fill="#1a1818"/>
      <path id="패스_94" data-name="패스 94" d="M-330.142,1177.183v11.387h-1.609v-6.555h-3.325v-1.484h3.325v-3.349Z" transform="translate(405.044 -1177.059)" fill="#1a1818"/>
      <path id="패스_95" data-name="패스 95" d="M-296.7,1177.073v13.069h-1.591v-7.738h-2.02v7.738H-301.9v-13.069h1.591v3.83h2.02v-3.83Z" transform="translate(387.329 -1177.001)" fill="#1a1818"/>
      <path id="패스_96" data-name="패스 96" d="M-442.526,1180.732v4.426h2.825v-4.426h-7.125v-1.466h11.395v1.466h-2.677v4.426h2.82v1.5h-11.7v-1.5h2.87v-4.426" transform="translate(464.799 -1178.172)" fill="#1a1818"/>
      <path id="패스_97" data-name="패스 97" d="M-378.538,1178.507l-1.109,1.109a2.339,2.339,0,0,1,1.5,2.17,2.337,2.337,0,0,1-2.414,2.359,2.332,2.332,0,0,1-2.324-2.378,2.331,2.331,0,0,1,2.324-2.324,2.521,2.521,0,0,1,.676.093v-2.51h-1.6v1.1a3.819,3.819,0,0,0-2.989,3.659,3.793,3.793,0,0,0,3.915,3.771,3.939,3.939,0,0,0,4.04-3.771,3.664,3.664,0,0,0-2.017-3.279" transform="translate(431.421 -1176.976)" fill="#1a1818"/>
    </g>
    <g id="그룹_34" data-name="그룹 34" transform="translate(1406.342 906.62)">
      <path id="패스_98" data-name="패스 98" d="M-481.45,1220.778h-.849l-1.766-1.992h-.037v1.992h-.68v-4.519h.68v1.816h.037l1.572-1.816h.785l-1.873,2.13Z" transform="translate(484.781 -1216.189)" fill="#1a1818"/>
      <path id="패스_99" data-name="패스 99" d="M-474.141,1218.423a2.6,2.6,0,0,0-.085-.67,1.723,1.723,0,0,0-.255-.556,1.292,1.292,0,0,0-.427-.374,1.247,1.247,0,0,0-.61-.14,1.218,1.218,0,0,0-.569.131,1.258,1.258,0,0,0-.43.365,1.686,1.686,0,0,0-.277.557,2.413,2.413,0,0,0-.095.694,2.822,2.822,0,0,0,.078.672,1.7,1.7,0,0,0,.249.566,1.3,1.3,0,0,0,.427.393,1.221,1.221,0,0,0,.616.148,1.285,1.285,0,0,0,.6-.136,1.24,1.24,0,0,0,.433-.38,1.713,1.713,0,0,0,.255-.565,2.81,2.81,0,0,0,.085-.7m.685.006a3.273,3.273,0,0,1-.12.9,2.176,2.176,0,0,1-.364.744,1.793,1.793,0,0,1-.641.509,2.126,2.126,0,0,1-.937.188,2.111,2.111,0,0,1-.9-.179,1.785,1.785,0,0,1-.645-.494,2.158,2.158,0,0,1-.39-.741,3.11,3.11,0,0,1-.132-.924,2.93,2.93,0,0,1,.132-.88,2.242,2.242,0,0,1,.39-.742,1.852,1.852,0,0,1,.645-.508,2.014,2.014,0,0,1,.9-.189,2.108,2.108,0,0,1,.9.179,1.8,1.8,0,0,1,.645.493,2.177,2.177,0,0,1,.39.736,3.029,3.029,0,0,1,.132.911" transform="translate(480.936 -1216.109)" fill="#1a1818"/>
      <path id="패스_100" data-name="패스 100" d="M-464.193,1220.777h-.71l-.182-.867a2.077,2.077,0,0,0-.255-.66.853.853,0,0,0-.412-.359,1,1,0,0,1-.113.007h-.477v-.6h.358a2.163,2.163,0,0,0,.355-.028.836.836,0,0,0,.3-.11.56.56,0,0,0,.22-.221.764.764,0,0,0,.082-.376.623.623,0,0,0-.091-.346.608.608,0,0,0-.243-.214,1.048,1.048,0,0,0-.327-.117,1.968,1.968,0,0,0-.364-.034h-.522v3.921h-.679v-4.525h1.207a3.364,3.364,0,0,1,.625.059,1.748,1.748,0,0,1,.556.205,1.12,1.12,0,0,1,.405.4,1.24,1.24,0,0,1,.154.651,1.233,1.233,0,0,1-.189.716,1.263,1.263,0,0,1-.477.414,2.08,2.08,0,0,1,.339.406,1.6,1.6,0,0,1,.227.581Z" transform="translate(475.419 -1216.181)" fill="#1a1818"/>
      <path id="패스_101" data-name="패스 101" d="M-456.524,1220.778h-2.647v-4.519h2.584v.6h-1.892v1.251h1.817v.6h-1.817v1.458h1.955Z" transform="translate(471.107 -1216.189)" fill="#1a1818"/>
      <path id="패스_102" data-name="패스 102" d="M-450.644,1218.835l-.547-1.779h-.025l-.6,1.779Zm1.427,1.93h-.761l-.459-1.327h-1.57l-.492,1.327h-.7l1.615-4.52h.736Z" transform="translate(467.916 -1216.181)" fill="#1a1818"/>
      <path id="패스_103" data-name="패스 103" d="M-436.971,1219.434a1.145,1.145,0,0,1-.466,1.005,2.161,2.161,0,0,1-1.263.327,2.372,2.372,0,0,1-.312-.02c-.1-.012-.2-.026-.305-.043s-.2-.043-.295-.067-.187-.047-.27-.072v-.673l.188.078a2.256,2.256,0,0,0,.271.091,3.351,3.351,0,0,0,.352.076,2.741,2.741,0,0,0,.434.03,1.84,1.84,0,0,0,.342-.03.864.864,0,0,0,.3-.114.6.6,0,0,0,.205-.2.6.6,0,0,0,.079-.317.629.629,0,0,0-.073-.31.693.693,0,0,0-.185-.217,1.189,1.189,0,0,0-.252-.161c-.092-.044-.182-.089-.269-.135q-.221-.1-.469-.226a3.3,3.3,0,0,1-.469-.29,1.472,1.472,0,0,1-.354-.365.836.836,0,0,1-.142-.483,1.034,1.034,0,0,1,.425-.911,1.861,1.861,0,0,1,1.091-.3,2.5,2.5,0,0,1,.318.022c.107.015.211.033.311.053s.189.051.28.073l.241.06V1217a2.645,2.645,0,0,0-.484-.177,3.222,3.222,0,0,0-.711-.107.934.934,0,0,0-.528.139.464.464,0,0,0-.207.415.437.437,0,0,0,.056.226.618.618,0,0,0,.151.169,1.233,1.233,0,0,0,.217.139l.254.132.471.221c.1.063.212.125.334.188a1.965,1.965,0,0,1,.345.227,1.2,1.2,0,0,1,.268.346,1.208,1.208,0,0,1,.123.522" transform="translate(460.831 -1216.108)" fill="#1a1818"/>
      <path id="패스_104" data-name="패스 104" d="M-429.215,1217.611a1.291,1.291,0,0,1-.156.666,1.246,1.246,0,0,1-.392.422,1.485,1.485,0,0,1-.539.226,2.8,2.8,0,0,1-.589.064h-.372v-.616h.366a1.962,1.962,0,0,0,.35-.032.921.921,0,0,0,.311-.113.687.687,0,0,0,.216-.236.741.741,0,0,0,.085-.38.594.594,0,0,0-.094-.346.793.793,0,0,0-.239-.227,1.113,1.113,0,0,0-.335-.125,1.775,1.775,0,0,0-.364-.038h-.522v3.916h-.679v-4.52h1.207a3.181,3.181,0,0,1,.627.063,1.679,1.679,0,0,1,.556.214,1.217,1.217,0,0,1,.406.414,1.235,1.235,0,0,1,.156.648" transform="translate(456.688 -1216.196)" fill="#1a1818"/>
      <path id="패스_105" data-name="패스 105" d="M-421.8,1218.423a2.577,2.577,0,0,0-.085-.67,1.7,1.7,0,0,0-.255-.556,1.3,1.3,0,0,0-.426-.374,1.249,1.249,0,0,0-.61-.14,1.217,1.217,0,0,0-.569.131,1.26,1.26,0,0,0-.43.365,1.7,1.7,0,0,0-.277.557,2.43,2.43,0,0,0-.095.694,2.824,2.824,0,0,0,.078.672,1.74,1.74,0,0,0,.248.566,1.3,1.3,0,0,0,.428.393,1.221,1.221,0,0,0,.616.148,1.285,1.285,0,0,0,.6-.136,1.234,1.234,0,0,0,.433-.38,1.7,1.7,0,0,0,.255-.565,2.79,2.79,0,0,0,.085-.7m.686.006a3.274,3.274,0,0,1-.119.9,2.2,2.2,0,0,1-.365.744,1.8,1.8,0,0,1-.641.509,2.129,2.129,0,0,1-.937.188,2.11,2.11,0,0,1-.9-.179,1.784,1.784,0,0,1-.645-.494,2.151,2.151,0,0,1-.39-.741,3.1,3.1,0,0,1-.132-.924,2.915,2.915,0,0,1,.132-.88,2.234,2.234,0,0,1,.39-.742,1.85,1.85,0,0,1,.645-.508,2.014,2.014,0,0,1,.9-.189,2.114,2.114,0,0,1,.9.179,1.806,1.806,0,0,1,.645.493,2.151,2.151,0,0,1,.389.736,3,3,0,0,1,.133.911" transform="translate(452.989 -1216.109)" fill="#1a1818"/>
      <path id="패스_106" data-name="패스 106" d="M-411.854,1220.777h-.71l-.182-.867a2.085,2.085,0,0,0-.255-.66.851.851,0,0,0-.411-.359,1.014,1.014,0,0,1-.113.007H-414v-.6h.358a2.16,2.16,0,0,0,.355-.028.834.834,0,0,0,.3-.11.551.551,0,0,0,.22-.221.763.763,0,0,0,.082-.376.619.619,0,0,0-.091-.346.61.61,0,0,0-.242-.214,1.055,1.055,0,0,0-.328-.117,1.964,1.964,0,0,0-.364-.034h-.522v3.921h-.679v-4.525h1.207a3.373,3.373,0,0,1,.626.059,1.746,1.746,0,0,1,.556.205,1.1,1.1,0,0,1,.4.4,1.235,1.235,0,0,1,.155.651,1.224,1.224,0,0,1-.189.716,1.259,1.259,0,0,1-.477.414,2.03,2.03,0,0,1,.338.406,1.56,1.56,0,0,1,.227.581Z" transform="translate(447.473 -1216.181)" fill="#1a1818"/>
      <path id="패스_107" data-name="패스 107" d="M-404.662,1216.9h-1.263v3.922h-.692V1216.9h-1.251v-.6h3.206Z" transform="translate(443.713 -1216.21)" fill="#1a1818"/>
      <path id="패스_108" data-name="패스 108" d="M-397.644,1219.434a1.145,1.145,0,0,1-.465,1.005,2.161,2.161,0,0,1-1.263.327,2.36,2.36,0,0,1-.311-.02c-.1-.012-.2-.026-.306-.043s-.2-.043-.294-.067-.186-.047-.27-.072v-.673l.188.078a2.3,2.3,0,0,0,.27.091,3.4,3.4,0,0,0,.353.076,2.735,2.735,0,0,0,.433.03,1.845,1.845,0,0,0,.343-.03.874.874,0,0,0,.3-.114.6.6,0,0,0,.2-.2.6.6,0,0,0,.079-.317.63.63,0,0,0-.072-.31.707.707,0,0,0-.185-.217,1.158,1.158,0,0,0-.252-.161c-.091-.044-.181-.089-.269-.135-.147-.068-.3-.143-.468-.226a3.29,3.29,0,0,1-.469-.29,1.483,1.483,0,0,1-.355-.365.842.842,0,0,1-.141-.483,1.033,1.033,0,0,1,.424-.911,1.865,1.865,0,0,1,1.091-.3,2.471,2.471,0,0,1,.317.022c.107.015.212.033.312.053s.189.051.279.073l.242.06V1217a2.656,2.656,0,0,0-.484-.177,3.23,3.23,0,0,0-.711-.107.928.928,0,0,0-.527.139.465.465,0,0,0-.208.415.437.437,0,0,0,.056.226.625.625,0,0,0,.152.169,1.208,1.208,0,0,0,.216.139l.254.132.472.221c.1.063.211.125.334.188a2.014,2.014,0,0,1,.345.227,1.208,1.208,0,0,1,.268.346,1.223,1.223,0,0,1,.122.522" transform="translate(439.832 -1216.108)" fill="#1a1818"/>
      <path id="패스_109" data-name="패스 109" d="M-385.932,1219.435a1.145,1.145,0,0,1-.465,1.005,2.162,2.162,0,0,1-1.263.326,2.425,2.425,0,0,1-.311-.019c-.1-.012-.2-.027-.306-.043s-.2-.043-.294-.066-.187-.047-.271-.072v-.673l.188.078a2.4,2.4,0,0,0,.271.092,3.446,3.446,0,0,0,.352.075,2.649,2.649,0,0,0,.433.031,1.782,1.782,0,0,0,.343-.031.826.826,0,0,0,.3-.113.6.6,0,0,0,.2-.2.592.592,0,0,0,.079-.318.631.631,0,0,0-.072-.311.713.713,0,0,0-.185-.216,1.211,1.211,0,0,0-.252-.161c-.091-.045-.182-.089-.27-.135q-.22-.1-.468-.226a3.286,3.286,0,0,1-.469-.29,1.477,1.477,0,0,1-.355-.365.835.835,0,0,1-.142-.484,1.034,1.034,0,0,1,.425-.912,1.863,1.863,0,0,1,1.091-.3,2.391,2.391,0,0,1,.317.023c.108.014.212.033.311.053l.28.074.242.06V1217a2.693,2.693,0,0,0-.484-.177,3.272,3.272,0,0,0-.711-.107.934.934,0,0,0-.528.139.463.463,0,0,0-.206.414.45.45,0,0,0,.056.227.636.636,0,0,0,.151.168,1.256,1.256,0,0,0,.216.139l.256.131.471.221c.1.063.212.125.333.188a2,2,0,0,1,.345.227,1.2,1.2,0,0,1,.268.346,1.22,1.22,0,0,1,.123.522" transform="translate(433.579 -1216.108)" fill="#1a1818"/>
      <path id="패스_110" data-name="패스 110" d="M-379.781,1218.834l-.547-1.779h-.025l-.6,1.779Zm1.428,1.93h-.762l-.459-1.327h-1.57l-.491,1.327h-.7l1.616-4.521h.735Z" transform="translate(430.079 -1216.18)" fill="#1a1818"/>
      <path id="패스_111" data-name="패스 111" d="M-370.262,1216.876h-1.9v1.251h1.823v.6h-1.823v2.062h-.691v-4.52h2.589Z" transform="translate(425.016 -1216.196)" fill="#1a1818"/>
      <path id="패스_112" data-name="패스 112" d="M-363.542,1220.778h-2.646v-4.52h2.583v.6H-365.5v1.252h1.817v.6H-365.5v1.458h1.955Z" transform="translate(421.458 -1216.189)" fill="#1a1818"/>
      <path id="패스_113" data-name="패스 113" d="M-356.873,1216.9h-1.264v3.923h-.691V1216.9h-1.251v-.6h3.206Z" transform="translate(418.196 -1216.21)" fill="#1a1818"/>
      <path id="패스_114" data-name="패스 114" d="M-349.766,1216.273l-1.54,2.483v2.042H-352v-2.042l-1.528-2.483h.792l1.105,1.829,1.12-1.829Z" transform="translate(414.697 -1216.196)" fill="#1a1818"/>
      <path id="패스_115" data-name="패스 115" d="M-337.691,1216.876h-1.9v1.251h1.824v.6h-1.824v2.062h-.691v-4.52h2.59Z" transform="translate(407.625 -1216.196)" fill="#1a1818"/>
      <path id="패스_116" data-name="패스 116" d="M-330.785,1218.423a2.609,2.609,0,0,0-.085-.669,1.712,1.712,0,0,0-.254-.557,1.285,1.285,0,0,0-.428-.373,1.235,1.235,0,0,0-.61-.141,1.212,1.212,0,0,0-.569.132,1.265,1.265,0,0,0-.43.364,1.731,1.731,0,0,0-.277.557,2.448,2.448,0,0,0-.094.7,2.8,2.8,0,0,0,.078.672,1.7,1.7,0,0,0,.248.566,1.326,1.326,0,0,0,.428.393,1.233,1.233,0,0,0,.615.147,1.294,1.294,0,0,0,.6-.135,1.248,1.248,0,0,0,.434-.381,1.707,1.707,0,0,0,.254-.565,2.828,2.828,0,0,0,.085-.7m.685.008a3.251,3.251,0,0,1-.12.895,2.172,2.172,0,0,1-.364.744,1.793,1.793,0,0,1-.642.509,2.124,2.124,0,0,1-.937.188,2.113,2.113,0,0,1-.895-.179,1.79,1.79,0,0,1-.645-.494,2.167,2.167,0,0,1-.391-.741,3.135,3.135,0,0,1-.131-.923,2.952,2.952,0,0,1,.131-.881,2.266,2.266,0,0,1,.391-.743,1.852,1.852,0,0,1,.645-.508,2.012,2.012,0,0,1,.895-.189,2.118,2.118,0,0,1,.9.179,1.794,1.794,0,0,1,.644.493,2.15,2.15,0,0,1,.39.736,2.972,2.972,0,0,1,.132.912" transform="translate(404.391 -1216.109)" fill="#1a1818"/>
      <path id="패스_117" data-name="패스 117" d="M-320.7,1219.088a2.469,2.469,0,0,1-.075.588,1.668,1.668,0,0,1-.264.576,1.471,1.471,0,0,1-.513.438,1.749,1.749,0,0,1-.819.172,1.781,1.781,0,0,1-.834-.17,1.337,1.337,0,0,1-.5-.427,1.561,1.561,0,0,1-.249-.575,2.974,2.974,0,0,1-.066-.6v-2.816h.7v2.8a2.4,2.4,0,0,0,.038.431,1.046,1.046,0,0,0,.145.38.8.8,0,0,0,.288.273.954.954,0,0,0,.473.1.962.962,0,0,0,.462-.1.835.835,0,0,0,.3-.269,1.166,1.166,0,0,0,.16-.383,2,2,0,0,0,.047-.434v-2.8h.7Z" transform="translate(398.94 -1216.196)" fill="#1a1818"/>
      <path id="패스_118" data-name="패스 118" d="M-311.627,1220.778h-.811l-1.742-3.488h-.024v3.488h-.668v-4.52h.831l1.728,3.507h.018v-3.507h.667Z" transform="translate(394.058 -1216.189)" fill="#1a1818"/>
      <path id="패스_119" data-name="패스 119" d="M-303.074,1218.509a2.554,2.554,0,0,0-.091-.682,1.544,1.544,0,0,0-.223-.475,1.041,1.041,0,0,0-.315-.292,1.148,1.148,0,0,0-.364-.141c-.092-.014-.2-.026-.329-.038a3.4,3.4,0,0,0-.357-.019h-.377v3.311h.433c.1,0,.214,0,.343-.011a1.415,1.415,0,0,0,.317-.052,1.1,1.1,0,0,0,.333-.154,1.214,1.214,0,0,0,.315-.3,1.563,1.563,0,0,0,.226-.471,2.267,2.267,0,0,0,.089-.673m.679,0a2.823,2.823,0,0,1-.12.864,2.11,2.11,0,0,1-.32.639,1.838,1.838,0,0,1-.463.434,2.025,2.025,0,0,1-.549.251,2.134,2.134,0,0,1-.415.067c-.154.009-.3.014-.44.014h-1.12v-4.519h1.283a2.516,2.516,0,0,1,.513.053,2.663,2.663,0,0,1,.443.128,1.813,1.813,0,0,1,.854.711,2.422,2.422,0,0,1,.334,1.357" transform="translate(389.226 -1216.189)" fill="#1a1818"/>
      <path id="패스_120" data-name="패스 120" d="M-295.622,1218.834l-.547-1.779h-.025l-.6,1.779Zm1.427,1.93h-.761l-.459-1.327h-1.57l-.49,1.327h-.7l1.616-4.521h.736Z" transform="translate(385.143 -1216.18)" fill="#1a1818"/>
      <path id="패스_121" data-name="패스 121" d="M-286.538,1216.9H-287.8v3.923h-.69V1216.9h-1.251v-.6h3.206Z" transform="translate(380.642 -1216.21)" fill="#1a1818"/>
      <rect id="사각형_45" data-name="사각형 45" width="0.71" height="4.519" transform="translate(94.619 0.07)" fill="#1a1818"/>
      <path id="패스_122" data-name="패스 122" d="M-275.221,1218.423a2.568,2.568,0,0,0-.084-.669,1.69,1.69,0,0,0-.255-.557,1.28,1.28,0,0,0-.426-.373,1.238,1.238,0,0,0-.61-.141,1.207,1.207,0,0,0-.569.132,1.255,1.255,0,0,0-.429.364,1.7,1.7,0,0,0-.277.557,2.447,2.447,0,0,0-.095.7,2.85,2.85,0,0,0,.078.672,1.713,1.713,0,0,0,.249.566,1.312,1.312,0,0,0,.426.393,1.234,1.234,0,0,0,.617.147,1.3,1.3,0,0,0,.6-.135,1.235,1.235,0,0,0,.432-.381,1.685,1.685,0,0,0,.255-.565,2.785,2.785,0,0,0,.084-.7m.686.008a3.284,3.284,0,0,1-.119.895,2.205,2.205,0,0,1-.364.744,1.8,1.8,0,0,1-.641.509,2.13,2.13,0,0,1-.937.188,2.108,2.108,0,0,1-.9-.179,1.786,1.786,0,0,1-.645-.494,2.158,2.158,0,0,1-.391-.741,3.118,3.118,0,0,1-.132-.923,2.937,2.937,0,0,1,.132-.881,2.256,2.256,0,0,1,.391-.743,1.848,1.848,0,0,1,.645-.508,2.007,2.007,0,0,1,.9-.189,2.119,2.119,0,0,1,.9.179,1.8,1.8,0,0,1,.645.493,2.19,2.19,0,0,1,.39.736,3.045,3.045,0,0,1,.131.912" transform="translate(374.722 -1216.109)" fill="#1a1818"/>
      <path id="패스_123" data-name="패스 123" d="M-265.1,1220.778h-.81l-1.743-3.488h-.024v3.488h-.667v-4.52h.831l1.728,3.507h.019v-3.507h.666Z" transform="translate(369.213 -1216.189)" fill="#1a1818"/>
    </g>
    <g id="그룹_35" data-name="그룹 35" transform="translate(1345.63 866.419)">
      <path id="패스_124" data-name="패스 124" d="M-600.226,1174.64a34.965,34.965,0,0,0,3.716,1.08c.536.143,2.493.407,2.028,1.244-.3.536-1.722.233-2.285.245-.406.009-1.325,0-1.62.318a1.826,1.826,0,0,0-.248.721,14.467,14.467,0,0,0-.1,2.66c-.012.436-.2.909-.722.754-.432-.129-.5-.515-.628-.881a10.142,10.142,0,0,0-.812-2.257.81.81,0,0,0-1.226-.213c-.573.367-2.089,1.461-2.7,1.741-.345.157-1.071.6-1.46.029-.211-.31.234-.779.478-1a15.362,15.362,0,0,0,2.333-2.4c.394-.8,0-1.295-.535-1.915-.8-.929-1.694-2.576-.623-2.857.546-.143.723.528.955.869a5.723,5.723,0,0,0,2.724,1.579c.241.092.483.187.725.281" transform="translate(608.346 -1162.005)" fill="#82b03d"/>
      <path id="패스_125" data-name="패스 125" d="M-592.512,1175.164a1.017,1.017,0,0,1-1.3.62,1.015,1.015,0,0,1-.619-1.3,1.014,1.014,0,0,1,1.294-.62,1.015,1.015,0,0,1,.62,1.295" transform="translate(602.218 -1162.998)" fill="#82b03d"/>
      <path id="패스_126" data-name="패스 126" d="M-602.6,1171.769l1.989-.564a.954.954,0,0,0,1.2.448c.738-.2.972-.7.833-1.2s-.6-.808-1.334-.6a.949.949,0,0,0-.8,1.031l-1.981.563Z" transform="translate(606.459 -1160.915)" fill="#82b03d"/>
      <path id="패스_127" data-name="패스 127" d="M-601.477,1213.385a41.322,41.322,0,0,1,4.565-2.035.788.788,0,0,1,.776.283c.366.419-.119.84-.629,1.193a6.781,6.781,0,0,0-1.688,1.279c-.14.216-.023.384.17.543.137.114,2.263,1.981,3.117,2.751.315.284.545.708.091.952-.376.2-.71-.084-1.061-.238a19.466,19.466,0,0,0-2.893-1.255c-.886-.22-1,.758-1.066,1.343a13.478,13.478,0,0,1-.329,2.366c-.091.369-.467.466-.86.253-.3-.165-.318-.653-.363-.943a15.282,15.282,0,0,0-.7-3.025c-.336-.765-.789-.6-1.576-.478-.279.044-1.97.605-2.258.186a.506.506,0,0,1,.138-.742c.338-.288,3.173-1.725,4.568-2.434" transform="translate(608.322 -1182.399)" fill="#00a3d8"/>
      <path id="패스_128" data-name="패스 128" d="M-597.916,1212.482a1.015,1.015,0,0,1-.519,1.337,1.015,1.015,0,0,1-1.338-.519,1.013,1.013,0,0,1,.519-1.337,1.014,1.014,0,0,1,1.338.519" transform="translate(604.997 -1182.678)" fill="#00a3d8"/>
      <path id="패스_129" data-name="패스 129" d="M-590.289,1224.965c-2.473,1.095-4.887,2.313-7.338,3.452-1.084.5-.639,1.323.439.823,2.452-1.14,4.866-2.357,7.339-3.453,1.092-.484.642-1.3-.44-.822" transform="translate(604.165 -1189.37)" fill="#00a3d8"/>
      <path id="패스_130" data-name="패스 130" d="M-528.573,1172.606a34.934,34.934,0,0,0,2.376-3.056c.33-.445,1.3-2.166,1.9-1.426.389.476-.418,1.687-.614,2.214-.142.38-.491,1.23-.3,1.623a1.834,1.834,0,0,0,.579.5,24.5,24.5,0,0,0,3.252,1.263c.4.172.773.519.435.948-.279.355-.7.187-1.084.168a17.9,17.9,0,0,0-3.181-.173c-.566.071-.675.571-.651,1.061.031.632.152,1.171.187,1.843.02.377.167,1.217-.511,1.366-.365.081-.637-.5-.75-.811a5.382,5.382,0,0,0-.935-1.745c-.6-.66-1.205-.474-1.978-.209-1.157.4-3.02.624-2.885-.476.069-.559.758-.476,1.162-.567a5.717,5.717,0,0,0,2.471-1.949c.175-.19.353-.379.529-.569" transform="translate(570.296 -1159.963)" fill="#00a3d8"/>
      <path id="패스_131" data-name="패스 131" d="M-533.762,1179.722a1.014,1.014,0,0,1,.1,1.431,1.016,1.016,0,0,1-1.432.1,1.016,1.016,0,0,1-.1-1.432,1.014,1.014,0,0,1,1.431-.1" transform="translate(571.693 -1165.925)" fill="#00a3d8"/>
      <path id="패스_132" data-name="패스 132" d="M-525.6,1173.923a1.016,1.016,0,0,1,.1,1.432,1.015,1.015,0,0,1-1.432.1,1.014,1.014,0,0,1-.1-1.431,1.015,1.015,0,0,1,1.432-.1" transform="translate(567.474 -1162.927)" fill="#00a3d8"/>
      <path id="패스_133" data-name="패스 133" d="M-539.564,1189.009a5.818,5.818,0,0,1,2.081,4.6c-.073.994-.261,2.932-.312,3.739-.035.545-.04.919-.115,1.465-.058.427-.067.773-.578.821-.324.03-.492-.288-.569-.588-.146-.562-.309-2.172-.469-2.518a.443.443,0,0,0-.361-.288c-.195-.02-3.321.742-4.473,1-.425.095-.93.028-.907-.517.02-.452.459-.559.785-.766a18.118,18.118,0,0,0,2.685-1.714c.418-.388.217-.859-.088-1.242-.395-.5-1.324-1.294-1.667-1.813-.209-.318-.507-.666-.178-1.027.293-.323,1.047.081,1.32.265a18.26,18.26,0,0,0,2.144,1.128c.357.131.537.214.509-.1a4.818,4.818,0,0,0-.711-1.538c-.263-.342-.4-1.143.178-1.257.279-.054.722.345.725.349" transform="translate(576.772 -1170.672)" fill="#82b03d"/>
      <path id="패스_134" data-name="패스 134" d="M-528.352,1197.973a1.015,1.015,0,0,0-1.108.913,1.015,1.015,0,0,0,.914,1.106,1.014,1.014,0,0,0,1.107-.912,1.015,1.015,0,0,0-.914-1.107" transform="translate(568.602 -1175.488)" fill="#82b03d"/>
      <path id="패스_135" data-name="패스 135" d="M-539.754,1186.311a1.015,1.015,0,0,0-1.107.913,1.016,1.016,0,0,0,.914,1.107,1.016,1.016,0,0,0,1.107-.913,1.014,1.014,0,0,0-.914-1.107" transform="translate(574.496 -1169.458)" fill="#82b03d"/>
      <path id="패스_136" data-name="패스 136" d="M-536.508,1229.035c1.03.489,1.771.907,2.821,1.438.528.268,2.409,1.076,2.082,1.926-.31.8-1.9-.012-2.457-.156-.434-.114-.756-.224-1.085.162-.308.361-.6,3.131-.814,4.293-.08.427-.339.865-.83.631-.408-.194-.335-.641-.4-1.023a18.975,18.975,0,0,0-.387-3.248,1.34,1.34,0,0,0-1.07-.941,3.884,3.884,0,0,0-1.731.088c-.339.183-.41.617-.51.96-.073.246-.18.608-.545.488-.332-.111-.479-.736-.532-1.036a1.5,1.5,0,0,1,.449-1.4,4.471,4.471,0,0,1,1.367-.783c1.405-.664.823-1.04.355-1.409-.558-.437-1.527-.954-1.253-1.675.17-.448.695-.315,1.22-.047.542.276,2.67,1.421,3.322,1.732" transform="translate(575.08 -1190.527)" fill="#00a3d8"/>
      <path id="패스_137" data-name="패스 137" d="M-546.465,1237.047a1.016,1.016,0,0,0,.407,1.377,1.017,1.017,0,0,0,1.376-.409,1.014,1.014,0,0,0-.407-1.376,1.016,1.016,0,0,0-1.375.408" transform="translate(577.455 -1195.417)" fill="#00a3d8"/>
      <path id="패스_138" data-name="패스 138" d="M-531.8,1227.849a1.016,1.016,0,0,0,.408,1.376,1.016,1.016,0,0,0,1.376-.408,1.015,1.015,0,0,0-.408-1.375,1.014,1.014,0,0,0-1.376.407" transform="translate(569.872 -1190.662)" fill="#00a3d8"/>
      <path id="패스_139" data-name="패스 139" d="M-580,1193.924a.6.6,0,0,0-.374-.469c-.441-.176-2.091-.627-2.167.176-.047.5.424.467.748.634.346.177.229.469.143.764a2.967,2.967,0,0,1-.666,1.336,4.487,4.487,0,0,1-1.7,1.035,5.025,5.025,0,0,1-.635.145,4.466,4.466,0,0,1-2.134-.449c-.584-.2.116-.807-.012-1.189-.072-.215-.44-.269-.658-.227-.294.054-.628.619-.778.865a1.612,1.612,0,0,0-.277,1.151.549.549,0,0,0,.349.418c.524.317.655.33,1.041.571.453.282.716.357.964.555a4.178,4.178,0,0,1,1.177,2.4c.141.723.207,1.6.36,2.454.1.573.125,1.008.435,1.25a.673.673,0,0,0,1.017-.413,21.826,21.826,0,0,0,.533-3.367c.2-1.219,1.318-.687,2.007-.16.314.241.506.353.822.591a6.065,6.065,0,0,0,1.209.766c.55.208,1.118-.077.958-.679-.174-.656-1.448-1.708-1.806-2.233a7.065,7.065,0,0,1-1.123-1.982,4.4,4.4,0,0,1,.322-2.35,4.215,4.215,0,0,0,.248-1.6" transform="translate(599.143 -1173.006)" fill="#82b03d"/>
      <path id="패스_140" data-name="패스 140" d="M-579.231,1198.279a1.014,1.014,0,0,1-.548,1.326,1.011,1.011,0,0,1-1.325-.545,1.014,1.014,0,0,1,.546-1.327,1.015,1.015,0,0,1,1.327.547" transform="translate(595.341 -1175.325)" fill="#82b03d"/>
      <path id="패스_141" data-name="패스 141" d="M-581.283,1193.621a1.015,1.015,0,0,1-.548,1.326,1.013,1.013,0,0,1-1.325-.547,1.014,1.014,0,0,1,.546-1.326,1.015,1.015,0,0,1,1.327.548" transform="translate(596.402 -1172.917)" fill="#82b03d"/>
      <path id="패스_142" data-name="패스 142" d="M-562.878,1192.548a42.811,42.811,0,0,0-5.245.255.738.738,0,0,0-.539.636c-.094.568.578.735,1.234.824a7.47,7.47,0,0,1,2.236.4c.247.136.236.349.152.593-.06.172-.925,2.94-1.262,4.072-.124.416-.093.925.453.94.452.012.59-.419.821-.729a17.879,17.879,0,0,1,1.9-2.557c.673-.628,1.325.237,1.712.756a16.139,16.139,0,0,0,1.622,2.072c.289.3.682.215.915-.172.181-.3-.08-.766-.2-1.06a17.2,17.2,0,0,1-1.065-3.182c-.128-.88.371-.941,1.148-1.2.276-.092,2.111-.368,2.134-.9.017-.377-.212-.555-.54-.633-.464-.111-3.82-.116-5.471-.119" transform="translate(588.872 -1172.685)" fill="#00458c"/>
      <path id="패스_143" data-name="패스 143" d="M-557.867,1189.647a1.015,1.015,0,0,0,1.04.988,1.014,1.014,0,0,0,.989-1.039,1.015,1.015,0,0,0-1.04-.99,1.016,1.016,0,0,0-.989,1.041" transform="translate(583.286 -1170.647)" fill="#00458c"/>
      <path id="패스_144" data-name="패스 144" d="M-600.1,1195.647c-.155-.2-.333-.182-.641-.087-.477.147-1.109.828-1.514.643a8.534,8.534,0,0,0-3.55-.7c-2.9.122-4.652,2.075-4.686,3.324a.47.47,0,0,0,.173.361c.2.154.56.177.97-.264a7.348,7.348,0,0,1,1.139-1.164c.672-.428,1.286-.243,1,.35-.326.682-1.8,2.827-2.276,3.832-.186.393-.1.925.45.941.452.013,1.007-.661,1.256-.959.74-.885,1.107-1.365,1.889-2.228.251-.276.441-.4.665-.27a4.955,4.955,0,0,1,.944.948.646.646,0,0,1,.06.517c-.068.137-.361.628-.5.844-.16.251-.267.579-.111.755a.559.559,0,0,0,.583.078,4.123,4.123,0,0,0,.9-.583c.277-.248.551-.547.735-.725.514-.5.394-.963.127-1.55-.147-.326-.535-1.314-.739-1.784-.236-.546.249-.295.809-.1s2.142-1.143,2.364-1.69a.481.481,0,0,0-.051-.493" transform="translate(610.496 -1174.207)" fill="#00458c"/>
      <path id="패스_145" data-name="패스 145" d="M-600.9,1192.465a1.015,1.015,0,0,0,1.037.992,1.014,1.014,0,0,0,.992-1.037,1.016,1.016,0,0,0-1.038-.992,1.014,1.014,0,0,0-.991,1.037" transform="translate(605.533 -1172.106)" fill="#00458c"/>
      <path id="패스_146" data-name="패스 146" d="M-530.294,1217.413a5.646,5.646,0,0,1,.457-.555,5.821,5.821,0,0,1,4.439-2.414c1,0,2.944.046,3.753.037.546-.007,1.1-.021,1.646.014.431.027,1.052.133,1.067.645.01.321-.262.521-.556.621-.55.185-2.514.323-2.849.508a.443.443,0,0,0-.261.381c0,.2.985,3.257,1.325,4.386.126.417.1.926-.449.943-.452.013-.59-.416-.823-.727a18,18,0,0,0-1.906-2.551c-.418-.388-.871-.152-1.232.179-.466.43-1.193,1.417-1.686,1.8-.3.231-.626.555-1.011.253-.343-.269,0-1.051.168-1.335a18.533,18.533,0,0,0,.968-2.222c.1-.365.172-.551-.138-.5a9.714,9.714,0,0,0-2.033,1.284.774.774,0,0,1-.628.191c-.2-.035-.674-.357-.25-.933" transform="translate(569.119 -1184.006)" fill="#82b03d"/>
      <path id="패스_147" data-name="패스 147" d="M-521.06,1211.468a1.014,1.014,0,0,0,.991,1.036,1.015,1.015,0,0,0,1.038-.992,1.015,1.015,0,0,0-.993-1.037,1.014,1.014,0,0,0-1.036.992" transform="translate(564.257 -1181.954)" fill="#82b03d"/>
      <path id="패스_148" data-name="패스 148" d="M-532.434,1217.2l-1.1-1.479a1.67,1.67,0,0,0-.308-1.75c-.521-.742-1.286-1.1-1.711-.8s-.345,1.141.176,1.882c.467.664,1.129,1.02,1.567.873l1.1,1.474Z" transform="translate(571.891 -1183.29)" fill="#82b03d"/>
      <path id="패스_149" data-name="패스 149" d="M-565.378,1238.776a.9.9,0,0,1,.3-.6,6.292,6.292,0,0,1,1.411-.646,18.578,18.578,0,0,1,2.27-.458,12.88,12.88,0,0,1,1.291-.066,8.79,8.79,0,0,1,2.786.465,1.087,1.087,0,0,1,.54,1.108c-.054.553-.387.827-.558,1.345a1.722,1.722,0,0,0-.076.79,6.386,6.386,0,0,0,.257.861c.106.338.941,2.219,1.008,2.474.071.275.08.553-.1.692-.576.407-1.1-.28-1.187-.386-.129-.157-.271-.355-.4-.529a16.781,16.781,0,0,0-1.242-1.678c-.36-.332-.813-.568-1.232-.18a17.969,17.969,0,0,0-1.907,2.552c-.233.311-.371.739-.823.727-.546-.016-.574-.526-.45-.943.34-1.129.728-2.086,1.129-3.254.215-.628.512-1.261.162-1.732-.223-.3-1.364.045-2.1.2a.808.808,0,0,1-1.085-.75" transform="translate(587.17 -1195.671)" fill="#00458c"/>
      <path id="패스_150" data-name="패스 150" d="M-555.983,1233.936a1.014,1.014,0,0,0,.991,1.036,1.015,1.015,0,0,0,1.037-.993,1.015,1.015,0,0,0-.993-1.036,1.014,1.014,0,0,0-1.036.993" transform="translate(582.312 -1193.57)" fill="#00458c"/>
      <path id="패스_151" data-name="패스 151" d="M-559.247,1230.352l-4.013,4.232-.342-.289,3.548-4.624a.527.527,0,0,1,.744-.064.528.528,0,0,1,.063.744" transform="translate(586.251 -1191.781)" fill="#00458c"/>
      <path id="패스_152" data-name="패스 152" d="M-579.346,1235.746c.061-.467.1-2.415-2.3-4.485-.744-.64-1.108-.795-1.756-1.387-.666-.611,1.017-.433,1.848-.568.674-.109.619-.721.1-.958a6.954,6.954,0,0,0-2.437-.076,1.275,1.275,0,0,0-1.1,1.743c.237.769.546,1.406-.581,2.058-.391.225-1.86.987-2.323,1.209-.326.158-1.2.51-1.11.981.1.528.5.625.918.6.734-.045,3.1-.578,3.27-.612.2-.041.54-.052.546.286.018,1.1-.411,2.636-.5,3.783-.033.426-.232.88.15,1.2.463.383.857-.016,1.056-.452.542-1.179,1.543-4.363,2.017-4.927.326-.387.77.826.861,1.061.141.37.239,1.4.683,1.407a.543.543,0,0,0,.488-.308,1.4,1.4,0,0,0,.178-.551" transform="translate(599.391 -1191.118)" fill="#82b03d"/>
      <path id="패스_153" data-name="패스 153" d="M-574.37,1231.3a1.014,1.014,0,0,0,.058,1.433,1.014,1.014,0,0,0,1.434-.058,1.016,1.016,0,0,0-.059-1.435,1.014,1.014,0,0,0-1.433.059" transform="translate(591.957 -1192.55)" fill="#82b03d"/>
      <path id="패스_154" data-name="패스 154" d="M-573.363,1228.48l.622-.006a.811.811,0,0,1,.794-.617.783.783,0,0,1,.842.718.788.788,0,0,1-.806.762.8.8,0,0,1-.827-.593l-.619.006Z" transform="translate(591.298 -1190.94)" fill="#82b03d"/>
      <path id="패스_155" data-name="패스 155" d="M-535.7,1155.36a1.014,1.014,0,0,0,.991,1.036,1.014,1.014,0,0,0,1.037-.993,1.015,1.015,0,0,0-.993-1.036,1.014,1.014,0,0,0-1.036.993" transform="translate(571.825 -1152.945)" fill="#82b03d"/>
      <path id="패스_156" data-name="패스 156" d="M-545.477,1162.319c.607-.072,1.486.169,1.573.553a2.115,2.115,0,0,0,2.319,2.378c3.081,0,2.645-4.331-.039-4.257-.967,0-1.476.574-2.205.241a.967.967,0,0,1-.323-1.441.907.907,0,0,1,.835-.359c.432.033,1.514,1.328,1.868,1.443.484.156.957-.177.712-.672a35.4,35.4,0,0,0-2.53-3.081c-.555-.434-1.418.06-1.918.4a19.106,19.106,0,0,0-1.937,1.438,1.569,1.569,0,0,0-.316,2.026,2.551,2.551,0,0,0-2.632,1.13,2.061,2.061,0,0,0,1.873,3.041,2.018,2.018,0,0,0,2.147-2.468c0-.11.253-.341.574-.379" transform="translate(579.374 -1154.283)" fill="#82b03d"/>
      <path id="패스_157" data-name="패스 157" d="M-553.906,1210.277a1.015,1.015,0,0,0,1,1.029,1.015,1.015,0,0,0,1.029-1,1.014,1.014,0,0,0-1-1.029,1.014,1.014,0,0,0-1.029,1" transform="translate(581.238 -1181.334)" fill="#00a3d8"/>
      <path id="패스_158" data-name="패스 158" d="M-562.517,1216.038a1.211,1.211,0,0,0,1,.945,7.143,7.143,0,0,0,1.077.011,6.264,6.264,0,0,0,1.055-.031c.192-.033,1.433-.042,1.238-.464-.076-.166-.355-.186-.5-.254a1.85,1.85,0,0,1-.463-.3.574.574,0,0,1-.048-.884.91.91,0,0,1,.833-.364,1.823,1.823,0,0,1,.991.428,7.124,7.124,0,0,0,1.2.864c.486.154.955-.184.707-.678a5.842,5.842,0,0,0-1.2-1.349c-.611-.554-1.017-1.072-1.672-1.576-.558-.429-1.417.071-1.915.42a11.127,11.127,0,0,0-1.925,1.453,1.98,1.98,0,0,0-.377,1.777" transform="translate(585.725 -1182.857)" fill="#00a3d8"/>
      <path id="패스_159" data-name="패스 159" d="M-557.747,1220.926l-9.559.076c-1.537.013-1.448,1.308.081,1.3l9.559-.077c1.538-.012,1.448-1.307-.08-1.3" transform="translate(588.74 -1187.357)" fill="#00a3d8"/>
      <path id="패스_160" data-name="패스 160" d="M-555.186,1216.1c-1.75,1.171-4.117,2.745-5.867,3.915a4.561,4.561,0,0,0-2.523.932c-1.215.812-1.266,1.313-1,1.709s.748.54,1.961-.273a4.546,4.546,0,0,0,1.814-1.99c1.75-1.171,4.117-2.744,5.867-3.915a.227.227,0,0,0-.252-.378" transform="translate(586.822 -1184.844)" fill="#00a3d8"/>
      <path id="패스_161" data-name="패스 161" d="M-513.685,1190.563a1.014,1.014,0,0,0,.956,1.07,1.015,1.015,0,0,0,1.07-.957,1.016,1.016,0,0,0-.955-1.07,1.015,1.015,0,0,0-1.07.956" transform="translate(560.444 -1171.164)" fill="#00458c"/>
      <path id="패스_162" data-name="패스 162" d="M-511.145,1202.663a1.015,1.015,0,0,0,.955,1.07,1.014,1.014,0,0,0,1.07-.956,1.017,1.017,0,0,0-.956-1.071,1.015,1.015,0,0,0-1.07.957" transform="translate(559.131 -1177.419)" fill="#00458c"/>
      <path id="패스_163" data-name="패스 163" d="M-518.144,1188.5c-.19.1-.281.263.024.7.121.173.883,1.1.792,1.253a4.251,4.251,0,0,1-1.2.616,9.426,9.426,0,0,0-1.721-.281c-1.418-.081-3.249,1.1-4.653,1.853-.31.167-.449.593,0,.808a1.429,1.429,0,0,0,.818-.031c.4-.094,1.773-.676,2.2-.752.6-.108-.03.247-.244.353a1.254,1.254,0,0,0-.6,1.36c-.166.332-2.515,3.1-2.7,3.284-.148.147-.7.751-.4,1.1a.519.519,0,0,0,.715.029,30.912,30.912,0,0,0,2.786-2.09c.214-.184.648-.555.743-.644.028-.025.086-.059.2.114.4.591,1.555,2.036,1.6,2.112a.833.833,0,0,0,.41.392c.374.137.737-.274.664-.756-.064-.429-1.11-2.979-1.053-3.027a7.513,7.513,0,0,0,1.419-1.476c.288-.515,2.7-2.188,2.675-2.713-.017-.457-1.868-2.5-2.471-2.2" transform="translate(566.77 -1170.579)" fill="#00458c"/>
      <path id="패스_164" data-name="패스 164" d="M-565.732,1152.307a1.014,1.014,0,0,0,.874,1.137,1.013,1.013,0,0,0,1.138-.874,1.016,1.016,0,0,0-.874-1.138,1.015,1.015,0,0,0-1.138.875" transform="translate(587.357 -1151.423)" fill="#00458c"/>
      <path id="패스_165" data-name="패스 165" d="M-561.3,1155.011a.585.585,0,0,1-.213-.116c-.244-.2-.549-.6-.046-.686.415-.07.865.263,1.264.329-.278.285-.656.573-1.006.472m3.609-2.332-1.159.817c-.482.341-2.041-.274-2.766-.494a2.309,2.309,0,0,0-2.061.278,4.763,4.763,0,0,0-1.236,1.547c-.168.293-.553.867-.719,1.161-.391.69-.168,1.231.608,1.159a5.784,5.784,0,0,0,1.407-.439,1.481,1.481,0,0,1,.385,1.072c0,.378-.236,1.9-.386,2.772-.181,1.046-.23,1.371.327,1.542.33.1.581-.091.785-.448s1.429-3.538,1.737-3.946c.721-.958,2.691-2.857,3.187-3.364.343-.35.511-.471.771-.779.193-.226.4-.478.3-.789-.192-.606-.917-.281-1.184-.088" transform="translate(587.4 -1151.937)" fill="#00458c"/>
      <path id="패스_166" data-name="패스 166" d="M-583.713,1161a38.151,38.151,0,0,0-3.891.381c-1.28.148-2.6.232-3.869.383a13.3,13.3,0,0,0-1.879.267c-.748.205-.3.751-.113.882a3.034,3.034,0,0,0,1.553.361c.6.046,1.859.111,2.191.485.151.168,1.427,3.059,1.956,4.2.193.417.407.89.972.885.469,0,.613-.364.573-.728-.124-1.1-.73-2.021-.194-2.733.407-.54,2.711-.823,3.427-.942.34-.057,1.721-.23,1.937-.285.645-.166.372-1.157-.667-1.12-.549.02-3.268.352-3.515.3-.534-.111-.46-.308-.254-.478a25.841,25.841,0,0,0,2.407-.946c.235-.158.2-.91-.636-.915" transform="translate(601.847 -1156.372)" fill="#00a3d8"/>
      <path id="패스_167" data-name="패스 167" d="M-585.723,1159.094a1.014,1.014,0,0,0,1.069.957,1.015,1.015,0,0,0,.957-1.068,1.016,1.016,0,0,0-1.069-.959,1.015,1.015,0,0,0-.957,1.069" transform="translate(597.689 -1154.835)" fill="#00a3d8"/>
      <path id="패스_168" data-name="패스 168" d="M-579.246,1177.31c.025.222-.547.469-1.277.551s-1.342-.034-1.367-.257.547-.468,1.277-.549,1.342.032,1.367.255" transform="translate(595.707 -1164.662)" fill="#00a3d8"/>
      <path id="패스_169" data-name="패스 169" d="M-566.775,1164.154c.222-.025.454.418.518.988s-.066,1.052-.288,1.078-.454-.417-.517-.987.065-1.053.287-1.078" transform="translate(588.049 -1158.005)" fill="#00a3d8"/>
      <path id="패스_170" data-name="패스 170" d="M-554.47,1178.743a1.014,1.014,0,0,0,.963,1.064,1.015,1.015,0,0,0,1.064-.963,1.015,1.015,0,0,0-.962-1.064,1.016,1.016,0,0,0-1.064.963" transform="translate(581.53 -1165.05)" fill="#00a3d8"/>
      <path id="패스_171" data-name="패스 171" d="M-560.156,1178.5c-.46-.093-2.73-.4-2.788-.41a2.333,2.333,0,0,1-2.108-1.788c-.115-.31-.295-.761-.381-1.046-.012-.038-.084-.193,0-.188.171.014.688.084.879.114.381.058,1.04.16,1.079-.357s-1.441-.739-1.764-.808c-.686-.147-1.89-.2-1.614,1.155.043.213.077.614.226,1.325.081.4-2.615,1.219-2.751,1.115-.328-.25-1.74-1.31-2.055-1.583-.29-.252-.245-.181-.543-.423-.459-.371-.785-.307-.946-.128-.1.112-.174.349.105.647.413.442,1.211,1.352,1.3,1.471.264.354.259.409.1.463-.369.126-1.9.323-2.285.415a.468.468,0,0,0-.316.626.7.7,0,0,0,.679.42c.527.022,6.848-.046,7-.048.316-.006,5.576-.057,6.137-.076.482-.017.693-.067.71-.386-.013-.3-.177-.412-.66-.51" transform="translate(591.652 -1163.067)" fill="#00a3d8"/>
    </g>
  </g>
</svg>
