<svg xmlns="http://www.w3.org/2000/svg" width="183.77" height="51" viewBox="0 0 183.77 51">
  <g id="그룹_1239" data-name="그룹 1239" transform="translate(-1354.23 -849)">
    <text id="_02-2144-8141" data-name="02-2144-8141" transform="translate(1420 891)" fill="#3d3d3d" font-size="18" font-family="Roboto-Bold, Roboto" font-weight="700"><tspan x="0" y="0">02-2144-8141</tspan></text>
    <text id="시스템장애처리" transform="translate(1420 869)" fill="#3d3d3d" font-size="16" font-family="NotoSansCJKkr-Bold, Noto Sans CJK KR" font-weight="700"><tspan x="0" y="0">시스템장애처리</tspan></text>
    <g id="support" transform="translate(366.969 427.73)">
      <g id="그룹_567" data-name="그룹 567" transform="translate(992.207 421.27)">
        <path id="패스_377" data-name="패스 377" d="M997.727,450.735a1.05,1.05,0,0,1-1.051-1.051v-8.221a20.194,20.194,0,0,1,40.388,0v7.569a1.051,1.051,0,1,1-2.1,0v-7.569a18.093,18.093,0,0,0-36.185,0v8.221A1.051,1.051,0,0,1,997.727,450.735Z" transform="translate(-996.676 -421.27)" fill="#3d3d3d"/>
      </g>
      <g id="그룹_568" data-name="그룹 568" transform="translate(987.261 439.154)">
        <path id="패스_378" data-name="패스 378" d="M991.3,468.51h-1.031a3.012,3.012,0,0,1-3.008-3.009v-7.179a3.011,3.011,0,0,1,3.008-3.008H991.3a3.012,3.012,0,0,1,3.009,3.008V465.5A3.012,3.012,0,0,1,991.3,468.51Zm-1.031-11.094a.908.908,0,0,0-.907.907V465.5a.908.908,0,0,0,.907.907H991.3a.908.908,0,0,0,.907-.907v-7.179a.908.908,0,0,0-.907-.907Z" transform="translate(-987.261 -455.314)" fill="#3d3d3d"/>
      </g>
      <g id="그룹_569" data-name="그룹 569" transform="translate(1030.494 439.154)">
        <path id="패스_379" data-name="패스 379" d="M1073.6,468.51h-1.031a3.012,3.012,0,0,1-3.008-3.009v-7.179a3.011,3.011,0,0,1,3.008-3.008h1.031a3.012,3.012,0,0,1,3.009,3.008V465.5A3.012,3.012,0,0,1,1073.6,468.51Zm-1.031-11.094a.908.908,0,0,0-.907.907V465.5a.908.908,0,0,0,.907.907h1.031a.908.908,0,0,0,.907-.907v-7.179a.908.908,0,0,0-.907-.907Z" transform="translate(-1069.558 -455.314)" fill="#3d3d3d"/>
      </g>
      <g id="그룹_570" data-name="그룹 570" transform="translate(1013.52 446.514)">
        <path id="패스_380" data-name="패스 380" d="M1038.3,495.08a1.051,1.051,0,0,1-.4-2.023c3.238-1.325,16.321-9.528,16.321-22.681a1.051,1.051,0,1,1,2.1,0c0,14.455-13.9,23.1-17.626,24.626A1.046,1.046,0,0,1,1038.3,495.08Z" transform="translate(-1037.247 -469.325)" fill="#3d3d3d"/>
      </g>
      <path id="패스_381" data-name="패스 381" d="M1036.555,448.108c0-.038-.005-.075-.011-.112s-.012-.065-.02-.1a.937.937,0,0,0-.03-.1c-.012-.032-.024-.064-.038-.094a.993.993,0,0,0-.048-.088c-.017-.029-.035-.057-.055-.084s-.042-.054-.066-.079-.044-.048-.068-.07a.988.988,0,0,0-.081-.066.959.959,0,0,0-.17-.1.969.969,0,0,0-.1-.044c-.015-.006-.029-.014-.045-.019-14.05-4.362-17.627-13.76-17.669-13.875a1.051,1.051,0,0,0-1.978.71,17.6,17.6,0,0,0,2.43,4.2c-5.555,7.46-11,8.212-11.053,8.218a1.051,1.051,0,0,0-.936,1.044v1.755c0,7.7,1.194,10,3.894,14.478,2.714,4.5,7.788,8.3,11.079,8.3s8.364-3.8,11.079-8.3c2.647-4.389,3.894-7.352,3.894-15.529C1036.56,448.139,1036.556,448.124,1036.555,448.108Zm-5.689,14.492c-2.515,4.169-6.973,7.285-9.279,7.285s-6.764-3.115-9.279-7.285c-2.556-4.237-3.593-6.242-3.593-13.393v-.9c1.932-.509,6.553-2.321,11.256-8.446a32.736,32.736,0,0,0,14.48,9.056C1034.379,456.007,1033.278,458.6,1030.866,462.6Z" transform="translate(-9.186 -5.37)" fill="#3d3d3d"/>
    </g>
  </g>
</svg>
