<svg xmlns="http://www.w3.org/2000/svg" width="44" height="44" viewBox="0 0 44 44">
  <g id="그룹_579" data-name="그룹 579" transform="translate(-236 -1111)">
    <g id="타원_164" data-name="타원 164" transform="translate(236 1111)" fill="#fff" stroke="#b1b1b1" stroke-width="1">
      <circle cx="22" cy="22" r="22" stroke="none"/>
      <circle cx="22" cy="22" r="21.5" fill="none"/>
    </g>
    <g id="그룹_572" data-name="그룹 572" transform="translate(-510.562 -84.328)">
      <circle id="타원_163" data-name="타원 163" cx="3.011" cy="3.011" r="3.011" transform="translate(765.941 1216.226)" fill="none" stroke="#3d3d3d" stroke-linecap="round" stroke-linejoin="round" stroke-width="2"/>
      <path id="패스_383" data-name="패스 383" d="M5.034,7.051H7.068A2.034,2.034,0,0,0,9.1,5.017,1.017,1.017,0,0,1,10.119,4h2.034m9.153,7.119v7.119a2.034,2.034,0,0,1-2.034,2.034H5.034A2.034,2.034,0,0,1,3,18.238V9.085A2.034,2.034,0,0,1,5.034,7.051" transform="translate(756.799 1205.896)" fill="none" stroke="#3d3d3d" stroke-linecap="round" stroke-linejoin="round" stroke-width="2"/>
      <line id="선_41" data-name="선 41" x2="6.021" transform="translate(771.963 1212.011)" fill="none" stroke="#3d3d3d" stroke-linecap="round" stroke-linejoin="round" stroke-width="2"/>
      <line id="선_42" data-name="선 42" y2="6.021" transform="translate(774.974 1209)" fill="none" stroke="#3d3d3d" stroke-linecap="round" stroke-linejoin="round" stroke-width="2"/>
    </g>
  </g>
</svg>
