<svg xmlns="http://www.w3.org/2000/svg" width="47.007" height="47.006" viewBox="0 0 47.007 47.006">
  <g id="그룹_33" data-name="그룹 33" transform="translate(-993.005 -427.988)">
    <path id="패스_226" data-name="패스 226" d="M1061.814,429a1.821,1.821,0,0,1,1.822,1.822v10.95a1.821,1.821,0,0,1-1.822,1.822h-10.079a1.824,1.824,0,0,0-1.364.613l-3.465,3.911a.691.691,0,0,1-1.209-.458v-3.155a.911.911,0,0,0-.911-.911h-.738a1.822,1.822,0,0,1-1.822-1.822v-10.95a1.822,1.822,0,0,1,1.822-1.822Z" transform="translate(-24.637 -0.002)" fill="none" stroke="#555" stroke-linecap="round" stroke-linejoin="round" stroke-width="2"/>
    <path id="패스_227" data-name="패스 227" d="M1053.637,443.116a.534.534,0,1,1-.534-.534A.534.534,0,0,1,1053.637,443.116Z" transform="translate(-29.921 -6.938)" fill="none" stroke="#555" stroke-linecap="round" stroke-linejoin="round" stroke-width="2"/>
    <path id="패스_228" data-name="패스 228" d="M1064.069,443.116a.534.534,0,1,1-.534-.534A.535.535,0,0,1,1064.069,443.116Z" transform="translate(-35.251 -6.938)" fill="none" stroke="#555" stroke-linecap="round" stroke-linejoin="round" stroke-width="2"/>
    <path id="패스_229" data-name="패스 229" d="M1074.5,443.116a.534.534,0,1,1-.534-.534A.535.535,0,0,1,1074.5,443.116Z" transform="translate(-40.58 -6.938)" fill="none" stroke="#555" stroke-linecap="round" stroke-linejoin="round" stroke-width="2"/>
    <g id="그룹_32" data-name="그룹 32" transform="translate(993.999 429)">
      <path id="패스_230" data-name="패스 230" d="M1006.5,442.917l2.782-1.338a2.452,2.452,0,0,0,1.177-3.209l-3.531-7.917a2.454,2.454,0,0,0-3.523-1.091c-6.608,4.05-9.91,5.815-9.341,9.639a39.677,39.677,0,0,0,11.738,23.117l.041.04.04.041A39.675,39.675,0,0,0,1029,473.937c3.824.569,5.59-2.733,9.64-9.341a2.454,2.454,0,0,0-1.091-3.523l-7.918-3.531a2.453,2.453,0,0,0-3.209,1.177l-1.338,2.782" transform="translate(-993.999 -429)" fill="none" stroke="#555" stroke-linecap="round" stroke-linejoin="round" stroke-width="2"/>
      <path id="패스_231" data-name="패스 231" d="M1032.8,479.73a39.048,39.048,0,0,1-5.542-4.658c-.014-.013-.026-.027-.04-.04l-.041-.039a36.891,36.891,0,0,1-5.413-6.71" transform="translate(-1008.187 -449.069)" fill="none" stroke="#555" stroke-linecap="round" stroke-linejoin="round" stroke-width="2"/>
    </g>
  </g>
</svg>
