<svg xmlns="http://www.w3.org/2000/svg" width="70.649" height="68.302" viewBox="0 0 70.649 68.302">
  <g id="그룹_1011" data-name="그룹 1011" transform="translate(-127.778 -128.507)">
    <circle id="타원_212" data-name="타원 212" cx="5.237" cy="5.237" r="5.237" transform="translate(145.673 160.421)" fill="none" stroke="#fff" stroke-miterlimit="10" stroke-width="2.5"/>
    <circle id="타원_213" data-name="타원 213" cx="5.237" cy="5.237" r="5.237" transform="translate(130.71 166.406)" fill="none" stroke="#fff" stroke-miterlimit="10" stroke-width="2.5"/>
    <path id="패스_1533" data-name="패스 1533" d="M137.143,184.109l3.5-16.317c.579-2.7,2.488-4.07,5.481-4.631l8.978-1.5,8.9-8.035s2.951,5.042-.316,8.128l-6.419,6.353-9.813,3" transform="translate(4.041 12.223)" fill="none" stroke="#fff" stroke-miterlimit="10" stroke-width="2.5"/>
    <line id="선_87" data-name="선 87" y1="14.963" x2="2.993" transform="translate(154.65 181.369)" fill="none" stroke="#fff" stroke-miterlimit="10" stroke-width="2.5"/>
    <circle id="타원_214" data-name="타원 214" cx="5.237" cy="5.237" r="5.237" transform="translate(179.395 164.91)" fill="none" stroke="#fff" stroke-miterlimit="10" stroke-width="2.5"/>
    <path id="패스_1534" data-name="패스 1534" d="M183.984,179.459,180.631,167.8c-.578-2.7-2.258-4.8-7-4.8H155.681s1,5.985,5.985,5.985h11.97" transform="translate(13.241 16.873)" fill="none" stroke="#fff" stroke-miterlimit="10" stroke-width="2.5"/>
    <line id="선_88" data-name="선 88" x1="3.803" y1="10.474" transform="translate(182.388 185.858)" fill="none" stroke="#fff" stroke-miterlimit="10" stroke-width="2.5"/>
    <path id="패스_1535" data-name="패스 1535" d="M129,179.459l2.214-10.332c.579-2.7,2.488-4.07,5.481-4.631l7.481-1.5" transform="translate(0 16.873)" fill="none" stroke="#fff" stroke-miterlimit="10" stroke-width="2.5"/>
    <path id="패스_1536" data-name="패스 1536" d="M151.148,132.727l-20.687,8.854,6.811,5.265-.923,8.487,20.687-8.853" transform="translate(0.725 1.849)" fill="none" stroke="#fff" stroke-miterlimit="10" stroke-width="2.5"/>
    <line id="선_89" data-name="선 89" x1="16.583" y1="38.652" transform="translate(149.47 129)" fill="none" stroke="#fff" stroke-miterlimit="10" stroke-width="2.5"/>
    <line id="선_90" data-name="선 90" x1="2.733" y1="6.616" transform="translate(168.364 173.246)" fill="none" stroke="#fff" stroke-miterlimit="10" stroke-width="2.5"/>
    <line id="선_91" data-name="선 91" x1="4.323" y1="10.466" transform="translate(173.577 185.866)" fill="none" stroke="#fff" stroke-miterlimit="10" stroke-width="2.5"/>
  </g>
</svg>
