<svg xmlns="http://www.w3.org/2000/svg" width="403.757" height="602" viewBox="0 0 403.757 602">
  <g id="그룹_1239" data-name="그룹 1239" transform="translate(-1574 -194)">
    <g id="사각형_313" data-name="사각형 313" transform="translate(1574 194)" fill="#fbfbfb" stroke="#d6d6d6" stroke-width="1">
      <rect width="346" height="602" stroke="none"/>
      <rect x="0.5" y="0.5" width="345" height="601" fill="none"/>
    </g>
    <text id="Copyright_KGA_All_Right_Reserved._" data-name="Copyright ⓒ KGA All Right Reserved. " transform="translate(1607 370) rotate(90)" fill="#a2a2a2" font-size="13" font-family="Roboto-Regular, Roboto"><tspan x="0" y="0">COPYRIGHT </tspan><tspan y="0" font-family="SegoeUISymbol, Segoe UI Symbol">Ⓒ</tspan><tspan y="0" xml:space="preserve"> KGA ALL RIGHT RESERVED. </tspan></text>
    <g id="그룹_65" data-name="그룹 65" transform="translate(818.326 -107.914)" opacity="0.5">
      <g id="그룹_44" data-name="그룹 44" transform="translate(1111.174 322.04)">
        <rect id="사각형_334" data-name="사각형 334" width="1.264" height="62.902" transform="translate(0 0.894) rotate(-45)"/>
      </g>
      <g id="그룹_45" data-name="그룹 45" transform="translate(1089.708 319.155)">
        <rect id="사각형_335" data-name="사각형 335" width="1.264" height="97.339" transform="translate(0 0.894) rotate(-45)"/>
      </g>
      <g id="그룹_46" data-name="그룹 46" transform="translate(1073.565 321.594)">
        <rect id="사각형_336" data-name="사각형 336" width="1.264" height="116.72" transform="translate(0 0.894) rotate(-45)"/>
      </g>
      <g id="그룹_47" data-name="그룹 47" transform="translate(1060.278 326.888)">
        <rect id="사각형_337" data-name="사각형 337" width="1.264" height="128.023" transform="translate(0 0.894) rotate(-45)"/>
      </g>
      <g id="그룹_48" data-name="그룹 48" transform="translate(1099.427 319.584)">
        <rect id="사각형_338" data-name="사각형 338" width="1.264" height="82.988" transform="translate(0 0.894) rotate(-45)"/>
      </g>
      <g id="그룹_49" data-name="그룹 49" transform="translate(1081.201 319.939)">
        <rect id="사각형_339" data-name="사각형 339" width="1.264" height="108.261" transform="translate(0 0.894) rotate(-45)"/>
      </g>
      <g id="그룹_50" data-name="그룹 50" transform="translate(1066.624 323.944)">
        <rect id="사각형_340" data-name="사각형 340" width="1.264" height="123.212" transform="translate(0 0.894) rotate(-45)"/>
      </g>
      <g id="그룹_51" data-name="그룹 51" transform="translate(1054.46 330.361)">
        <rect id="사각형_341" data-name="사각형 341" width="1.264" height="131.339" transform="translate(0 0.894) rotate(-45)"/>
      </g>
      <g id="그룹_52" data-name="그룹 52" transform="translate(1049.128 334.32)">
        <rect id="사각형_342" data-name="사각형 342" width="1.264" height="133.281" transform="translate(0 0.894) rotate(-45)"/>
      </g>
      <g id="그룹_53" data-name="그룹 53" transform="translate(1044.256 338.738)">
        <rect id="사각형_343" data-name="사각형 343" width="1.264" height="133.923" transform="translate(0 0.894) rotate(-45)"/>
      </g>
      <g id="그룹_54" data-name="그룹 54" transform="translate(1039.838 343.611)">
        <rect id="사각형_344" data-name="사각형 344" width="1.264" height="133.281" transform="translate(0 0.894) rotate(-45)"/>
      </g>
      <g id="그룹_55" data-name="그룹 55" transform="translate(1035.879 348.943)">
        <rect id="사각형_345" data-name="사각형 345" width="1.264" height="131.339" transform="translate(0 0.894) rotate(-45)"/>
      </g>
      <g id="그룹_56" data-name="그룹 56" transform="translate(1032.406 354.76)">
        <rect id="사각형_346" data-name="사각형 346" width="1.264" height="128.023" transform="translate(0 0.894) rotate(-45)"/>
      </g>
      <g id="그룹_57" data-name="그룹 57" transform="translate(1029.461 361.107)">
        <rect id="사각형_347" data-name="사각형 347" width="1.264" height="123.212" transform="translate(0 0.894) rotate(-45)"/>
      </g>
      <g id="그룹_58" data-name="그룹 58" transform="translate(1027.112 368.047)">
        <rect id="사각형_348" data-name="사각형 348" width="1.264" height="116.72" transform="translate(0 0.894) rotate(-45)"/>
      </g>
      <g id="그룹_59" data-name="그룹 59" transform="translate(1025.457 375.683)">
        <rect id="사각형_349" data-name="사각형 349" width="1.264" height="108.261" transform="translate(0 0.894) rotate(-45)"/>
      </g>
      <g id="그룹_60" data-name="그룹 60" transform="translate(1024.673 384.19)">
        <rect id="사각형_350" data-name="사각형 350" width="1.264" height="97.339" transform="translate(0 0.894) rotate(-45)"/>
      </g>
      <g id="그룹_61" data-name="그룹 61" transform="translate(1025.101 393.909)">
        <rect id="사각형_351" data-name="사각형 351" width="1.264" height="82.988" transform="translate(0 0.894) rotate(-45)"/>
      </g>
      <g id="그룹_62" data-name="그룹 62" transform="translate(1027.557 405.656)">
        <rect id="사각형_352" data-name="사각형 352" width="1.264" height="62.902" transform="matrix(0.707, -0.707, 0.707, 0.707, 0, 0.894)"/>
      </g>
      <g id="그룹_63" data-name="그룹 63" transform="translate(1128.864 330.439)">
        <rect id="사각형_353" data-name="사각형 353" width="1.264" height="26.006" transform="translate(0 0.894) rotate(-45)"/>
      </g>
      <g id="그룹_64" data-name="그룹 64" transform="translate(1035.957 423.346)">
        <rect id="사각형_354" data-name="사각형 354" width="1.264" height="26.006" transform="translate(0 0.894) rotate(-45)"/>
      </g>
    </g>
    <g id="그룹_122" data-name="그룹 122" transform="translate(-763.873 214.789)" opacity="0.5">
      <g id="그룹_73" data-name="그룹 73" transform="translate(2557.873 99.236)">
        <g id="그룹_66" data-name="그룹 66" transform="translate(0 0)">
          <circle id="타원_11" data-name="타원 11" cx="1.716" cy="1.716" r="1.716"/>
        </g>
        <g id="그룹_67" data-name="그룹 67" transform="translate(14.71 0)">
          <circle id="타원_12" data-name="타원 12" cx="1.716" cy="1.716" r="1.716"/>
        </g>
        <g id="그룹_68" data-name="그룹 68" transform="translate(29.42 0)">
          <circle id="타원_13" data-name="타원 13" cx="1.716" cy="1.716" r="1.716"/>
        </g>
        <g id="그룹_69" data-name="그룹 69" transform="translate(44.13 0)">
          <path id="패스_252" data-name="패스 252" d="M2693.51,100.952a1.716,1.716,0,1,1-1.717-1.716A1.716,1.716,0,0,1,2693.51,100.952Z" transform="translate(-2690.078 -99.236)"/>
        </g>
        <g id="그룹_70" data-name="그룹 70" transform="translate(58.84 0)">
          <circle id="타원_14" data-name="타원 14" cx="1.716" cy="1.716" r="1.716"/>
        </g>
        <g id="그룹_71" data-name="그룹 71" transform="translate(73.55 0)">
          <circle id="타원_15" data-name="타원 15" cx="1.716" cy="1.716" r="1.716"/>
        </g>
        <g id="그룹_72" data-name="그룹 72" transform="translate(88.26 0)">
          <circle id="타원_16" data-name="타원 16" cx="1.716" cy="1.716" r="1.716"/>
        </g>
      </g>
      <g id="그룹_81" data-name="그룹 81" transform="translate(2557.873 113.942)">
        <g id="그룹_74" data-name="그룹 74" transform="translate(0)">
          <circle id="타원_17" data-name="타원 17" cx="1.716" cy="1.716" r="1.716"/>
        </g>
        <g id="그룹_75" data-name="그룹 75" transform="translate(14.71)">
          <circle id="타원_18" data-name="타원 18" cx="1.716" cy="1.716" r="1.716"/>
        </g>
        <g id="그룹_76" data-name="그룹 76" transform="translate(29.42)">
          <circle id="타원_19" data-name="타원 19" cx="1.716" cy="1.716" r="1.716"/>
        </g>
        <g id="그룹_77" data-name="그룹 77" transform="translate(44.13 0)">
          <path id="패스_253" data-name="패스 253" d="M2693.51,145.01a1.716,1.716,0,1,1-1.717-1.716A1.716,1.716,0,0,1,2693.51,145.01Z" transform="translate(-2690.078 -143.294)"/>
        </g>
        <g id="그룹_78" data-name="그룹 78" transform="translate(58.84)">
          <circle id="타원_20" data-name="타원 20" cx="1.716" cy="1.716" r="1.716"/>
        </g>
        <g id="그룹_79" data-name="그룹 79" transform="translate(73.55)">
          <circle id="타원_21" data-name="타원 21" cx="1.716" cy="1.716" r="1.716"/>
        </g>
        <g id="그룹_80" data-name="그룹 80" transform="translate(88.26)">
          <circle id="타원_22" data-name="타원 22" cx="1.716" cy="1.716" r="1.716"/>
        </g>
      </g>
      <g id="그룹_89" data-name="그룹 89" transform="translate(2557.873 128.557)">
        <g id="그룹_82" data-name="그룹 82" transform="translate(0 0)">
          <circle id="타원_23" data-name="타원 23" cx="1.716" cy="1.716" r="1.716"/>
        </g>
        <g id="그룹_83" data-name="그룹 83" transform="translate(14.71 0)">
          <circle id="타원_24" data-name="타원 24" cx="1.716" cy="1.716" r="1.716"/>
        </g>
        <g id="그룹_84" data-name="그룹 84" transform="translate(29.42 0)">
          <circle id="타원_25" data-name="타원 25" cx="1.716" cy="1.716" r="1.716"/>
        </g>
        <g id="그룹_85" data-name="그룹 85" transform="translate(44.13 0)">
          <path id="패스_254" data-name="패스 254" d="M2693.51,188.793a1.716,1.716,0,1,1-1.717-1.716A1.716,1.716,0,0,1,2693.51,188.793Z" transform="translate(-2690.078 -187.077)"/>
        </g>
        <g id="그룹_86" data-name="그룹 86" transform="translate(58.84 0)">
          <circle id="타원_26" data-name="타원 26" cx="1.716" cy="1.716" r="1.716"/>
        </g>
        <g id="그룹_87" data-name="그룹 87" transform="translate(73.55 0)">
          <circle id="타원_27" data-name="타원 27" cx="1.716" cy="1.716" r="1.716"/>
        </g>
        <g id="그룹_88" data-name="그룹 88" transform="translate(88.26 0)">
          <circle id="타원_28" data-name="타원 28" cx="1.716" cy="1.716" r="1.716"/>
        </g>
      </g>
      <g id="그룹_97" data-name="그룹 97" transform="translate(2557.873 143.267)">
        <g id="그룹_90" data-name="그룹 90" transform="translate(0)">
          <circle id="타원_29" data-name="타원 29" cx="1.716" cy="1.716" r="1.716"/>
        </g>
        <g id="그룹_91" data-name="그룹 91" transform="translate(14.71)">
          <circle id="타원_30" data-name="타원 30" cx="1.716" cy="1.716" r="1.716"/>
        </g>
        <g id="그룹_92" data-name="그룹 92" transform="translate(29.42)">
          <circle id="타원_31" data-name="타원 31" cx="1.716" cy="1.716" r="1.716"/>
        </g>
        <g id="그룹_93" data-name="그룹 93" transform="translate(44.13 0)">
          <path id="패스_255" data-name="패스 255" d="M2693.51,232.861a1.716,1.716,0,1,1-1.717-1.716A1.716,1.716,0,0,1,2693.51,232.861Z" transform="translate(-2690.078 -231.145)"/>
        </g>
        <g id="그룹_94" data-name="그룹 94" transform="translate(58.84)">
          <circle id="타원_32" data-name="타원 32" cx="1.716" cy="1.716" r="1.716"/>
        </g>
        <g id="그룹_95" data-name="그룹 95" transform="translate(73.55)">
          <circle id="타원_33" data-name="타원 33" cx="1.716" cy="1.716" r="1.716"/>
        </g>
        <g id="그룹_96" data-name="그룹 96" transform="translate(88.26)">
          <circle id="타원_34" data-name="타원 34" cx="1.716" cy="1.716" r="1.716"/>
        </g>
      </g>
      <g id="그룹_105" data-name="그룹 105" transform="translate(2557.873 157.974)">
        <g id="그룹_98" data-name="그룹 98" transform="translate(0 0)">
          <circle id="타원_35" data-name="타원 35" cx="1.716" cy="1.716" r="1.716"/>
        </g>
        <g id="그룹_99" data-name="그룹 99" transform="translate(14.71 0)">
          <circle id="타원_36" data-name="타원 36" cx="1.716" cy="1.716" r="1.716"/>
        </g>
        <g id="그룹_100" data-name="그룹 100" transform="translate(29.42 0)">
          <circle id="타원_37" data-name="타원 37" cx="1.716" cy="1.716" r="1.716"/>
        </g>
        <g id="그룹_101" data-name="그룹 101" transform="translate(44.13 0)">
          <path id="패스_256" data-name="패스 256" d="M2693.51,276.919a1.716,1.716,0,1,1-1.717-1.716A1.716,1.716,0,0,1,2693.51,276.919Z" transform="translate(-2690.078 -275.203)"/>
        </g>
        <g id="그룹_102" data-name="그룹 102" transform="translate(58.84 0)">
          <circle id="타원_38" data-name="타원 38" cx="1.716" cy="1.716" r="1.716"/>
        </g>
        <g id="그룹_103" data-name="그룹 103" transform="translate(73.55 0)">
          <circle id="타원_39" data-name="타원 39" cx="1.716" cy="1.716" r="1.716"/>
        </g>
        <g id="그룹_104" data-name="그룹 104" transform="translate(88.26 0)">
          <circle id="타원_40" data-name="타원 40" cx="1.716" cy="1.716" r="1.716"/>
        </g>
      </g>
      <g id="그룹_113" data-name="그룹 113" transform="translate(2557.873 172.588)">
        <g id="그룹_106" data-name="그룹 106" transform="translate(0)">
          <circle id="타원_41" data-name="타원 41" cx="1.716" cy="1.716" r="1.716"/>
        </g>
        <g id="그룹_107" data-name="그룹 107" transform="translate(14.71)">
          <circle id="타원_42" data-name="타원 42" cx="1.716" cy="1.716" r="1.716"/>
        </g>
        <g id="그룹_108" data-name="그룹 108" transform="translate(29.42)">
          <circle id="타원_43" data-name="타원 43" cx="1.716" cy="1.716" r="1.716"/>
        </g>
        <g id="그룹_109" data-name="그룹 109" transform="translate(44.13 0)">
          <path id="패스_257" data-name="패스 257" d="M2693.51,320.7a1.716,1.716,0,1,1-1.717-1.716A1.716,1.716,0,0,1,2693.51,320.7Z" transform="translate(-2690.078 -318.986)"/>
        </g>
        <g id="그룹_110" data-name="그룹 110" transform="translate(58.84)">
          <circle id="타원_44" data-name="타원 44" cx="1.716" cy="1.716" r="1.716"/>
        </g>
        <g id="그룹_111" data-name="그룹 111" transform="translate(73.55)">
          <circle id="타원_45" data-name="타원 45" cx="1.716" cy="1.716" r="1.716"/>
        </g>
        <g id="그룹_112" data-name="그룹 112" transform="translate(88.26)">
          <circle id="타원_46" data-name="타원 46" cx="1.716" cy="1.716" r="1.716"/>
        </g>
      </g>
      <g id="그룹_121" data-name="그룹 121" transform="translate(2557.873 187.39)">
        <g id="그룹_114" data-name="그룹 114" transform="translate(0 0)">
          <circle id="타원_47" data-name="타원 47" cx="1.716" cy="1.716" r="1.716"/>
        </g>
        <g id="그룹_115" data-name="그룹 115" transform="translate(14.71 0)">
          <circle id="타원_48" data-name="타원 48" cx="1.716" cy="1.716" r="1.716"/>
        </g>
        <g id="그룹_116" data-name="그룹 116" transform="translate(29.42 0)">
          <circle id="타원_49" data-name="타원 49" cx="1.716" cy="1.716" r="1.716"/>
        </g>
        <g id="그룹_117" data-name="그룹 117" transform="translate(44.13 0)">
          <path id="패스_258" data-name="패스 258" d="M2693.51,365.045a1.716,1.716,0,1,1-1.717-1.716A1.716,1.716,0,0,1,2693.51,365.045Z" transform="translate(-2690.078 -363.329)"/>
        </g>
        <g id="그룹_118" data-name="그룹 118" transform="translate(58.84 0)">
          <circle id="타원_50" data-name="타원 50" cx="1.716" cy="1.716" r="1.716"/>
        </g>
        <g id="그룹_119" data-name="그룹 119" transform="translate(73.55 0)">
          <circle id="타원_51" data-name="타원 51" cx="1.716" cy="1.716" r="1.716"/>
        </g>
        <g id="그룹_120" data-name="그룹 120" transform="translate(88.26 0)">
          <circle id="타원_52" data-name="타원 52" cx="1.716" cy="1.716" r="1.716"/>
        </g>
      </g>
    </g>
    <g id="그룹_244" data-name="그룹 244" transform="translate(317.076 -877.248)" opacity="0.3">
      <g id="그룹_243" data-name="그룹 243" transform="translate(1270.923 1592.249)">
        <g id="그룹_242" data-name="그룹 242">
          <g id="그룹_137" data-name="그룹 137" transform="translate(0 65.243)">
            <g id="그룹_123" data-name="그룹 123">
              <circle id="타원_53" data-name="타원 53" cx="1" cy="1" r="1" transform="translate(0 -0.243)"/>
            </g>
            <g id="그룹_124" data-name="그룹 124" transform="translate(5.019)">
              <circle id="타원_54" data-name="타원 54" cx="1" cy="1" r="1" transform="translate(-0.019 -0.243)"/>
            </g>
            <g id="그룹_125" data-name="그룹 125" transform="translate(10.037)">
              <circle id="타원_55" data-name="타원 55" cx="1" cy="1" r="1" transform="translate(-0.037 -0.243)"/>
            </g>
            <g id="그룹_126" data-name="그룹 126" transform="translate(15.056)">
              <circle id="타원_56" data-name="타원 56" cx="1" cy="1" r="1" transform="translate(-0.056 -0.243)"/>
            </g>
            <g id="그룹_127" data-name="그룹 127" transform="translate(20.075)">
              <circle id="타원_57" data-name="타원 57" cx="1" cy="1" r="1" transform="translate(-0.075 -0.243)"/>
            </g>
            <g id="그룹_128" data-name="그룹 128" transform="translate(25.094)">
              <circle id="타원_58" data-name="타원 58" cx="1" cy="1" r="1" transform="translate(-0.094 -0.243)"/>
            </g>
            <g id="그룹_129" data-name="그룹 129" transform="translate(30.112)">
              <circle id="타원_59" data-name="타원 59" cx="1" cy="1" r="1" transform="translate(-0.112 -0.243)"/>
            </g>
            <g id="그룹_130" data-name="그룹 130" transform="translate(35.131)">
              <circle id="타원_60" data-name="타원 60" cx="1" cy="1" r="1" transform="translate(-0.131 -0.243)"/>
            </g>
            <g id="그룹_131" data-name="그룹 131" transform="translate(40.15)">
              <circle id="타원_61" data-name="타원 61" cx="1" cy="1" r="1" transform="translate(-0.15 -0.243)"/>
            </g>
            <g id="그룹_132" data-name="그룹 132" transform="translate(45.169)">
              <circle id="타원_62" data-name="타원 62" cx="1" cy="1" r="1" transform="translate(-0.169 -0.243)"/>
            </g>
            <g id="그룹_133" data-name="그룹 133" transform="translate(50.187)">
              <circle id="타원_63" data-name="타원 63" cx="1" cy="1" r="1" transform="translate(-0.187 -0.243)"/>
            </g>
            <g id="그룹_134" data-name="그룹 134" transform="translate(55.206)">
              <circle id="타원_64" data-name="타원 64" cx="1" cy="1" r="1" transform="translate(-0.206 -0.243)"/>
            </g>
            <g id="그룹_135" data-name="그룹 135" transform="translate(60.225)">
              <circle id="타원_65" data-name="타원 65" cx="1" cy="1" r="1" transform="translate(-0.225 -0.243)"/>
            </g>
            <g id="그룹_136" data-name="그룹 136" transform="translate(65.243)">
              <circle id="타원_66" data-name="타원 66" cx="1" cy="1" r="1" transform="translate(-0.243 -0.243)"/>
            </g>
          </g>
          <g id="그룹_151" data-name="그룹 151" transform="translate(0 60.225)">
            <g id="그룹_138" data-name="그룹 138">
              <circle id="타원_67" data-name="타원 67" cx="1" cy="1" r="1" transform="translate(0 -0.225)"/>
            </g>
            <g id="그룹_139" data-name="그룹 139" transform="translate(5.019)">
              <circle id="타원_68" data-name="타원 68" cx="1" cy="1" r="1" transform="translate(-0.019 -0.225)"/>
            </g>
            <g id="그룹_140" data-name="그룹 140" transform="translate(10.037)">
              <circle id="타원_69" data-name="타원 69" cx="1" cy="1" r="1" transform="translate(-0.037 -0.225)"/>
            </g>
            <g id="그룹_141" data-name="그룹 141" transform="translate(15.056)">
              <circle id="타원_70" data-name="타원 70" cx="1" cy="1" r="1" transform="translate(-0.056 -0.225)"/>
            </g>
            <g id="그룹_142" data-name="그룹 142" transform="translate(20.075)">
              <circle id="타원_71" data-name="타원 71" cx="1" cy="1" r="1" transform="translate(-0.075 -0.225)"/>
            </g>
            <g id="그룹_143" data-name="그룹 143" transform="translate(25.094)">
              <circle id="타원_72" data-name="타원 72" cx="1" cy="1" r="1" transform="translate(-0.094 -0.225)"/>
            </g>
            <g id="그룹_144" data-name="그룹 144" transform="translate(30.112)">
              <circle id="타원_73" data-name="타원 73" cx="1" cy="1" r="1" transform="translate(-0.112 -0.225)"/>
            </g>
            <g id="그룹_145" data-name="그룹 145" transform="translate(35.131)">
              <circle id="타원_74" data-name="타원 74" cx="1" cy="1" r="1" transform="translate(-0.131 -0.225)"/>
            </g>
            <g id="그룹_146" data-name="그룹 146" transform="translate(40.15)">
              <circle id="타원_75" data-name="타원 75" cx="1" cy="1" r="1" transform="translate(-0.15 -0.225)"/>
            </g>
            <g id="그룹_147" data-name="그룹 147" transform="translate(45.169)">
              <circle id="타원_76" data-name="타원 76" cx="1" cy="1" r="1" transform="translate(-0.169 -0.225)"/>
            </g>
            <g id="그룹_148" data-name="그룹 148" transform="translate(50.187)">
              <circle id="타원_77" data-name="타원 77" cx="1" cy="1" r="1" transform="translate(-0.187 -0.225)"/>
            </g>
            <g id="그룹_149" data-name="그룹 149" transform="translate(55.206)">
              <circle id="타원_78" data-name="타원 78" cx="1" cy="1" r="1" transform="translate(-0.206 -0.225)"/>
            </g>
            <g id="그룹_150" data-name="그룹 150" transform="translate(60.225)">
              <circle id="타원_79" data-name="타원 79" cx="1" cy="1" r="1" transform="translate(-0.225 -0.225)"/>
            </g>
          </g>
          <g id="그룹_164" data-name="그룹 164" transform="translate(0 55.206)">
            <g id="그룹_152" data-name="그룹 152">
              <circle id="타원_80" data-name="타원 80" cx="1" cy="1" r="1" transform="translate(0 -0.206)"/>
            </g>
            <g id="그룹_153" data-name="그룹 153" transform="translate(5.019)">
              <circle id="타원_81" data-name="타원 81" cx="1" cy="1" r="1" transform="translate(-0.019 -0.206)"/>
            </g>
            <g id="그룹_154" data-name="그룹 154" transform="translate(10.037)">
              <circle id="타원_82" data-name="타원 82" cx="1" cy="1" r="1" transform="translate(-0.037 -0.206)"/>
            </g>
            <g id="그룹_155" data-name="그룹 155" transform="translate(15.056)">
              <circle id="타원_83" data-name="타원 83" cx="1" cy="1" r="1" transform="translate(-0.056 -0.206)"/>
            </g>
            <g id="그룹_156" data-name="그룹 156" transform="translate(20.075)">
              <circle id="타원_84" data-name="타원 84" cx="1" cy="1" r="1" transform="translate(-0.075 -0.206)"/>
            </g>
            <g id="그룹_157" data-name="그룹 157" transform="translate(25.094)">
              <circle id="타원_85" data-name="타원 85" cx="1" cy="1" r="1" transform="translate(-0.094 -0.206)"/>
            </g>
            <g id="그룹_158" data-name="그룹 158" transform="translate(30.112)">
              <circle id="타원_86" data-name="타원 86" cx="1" cy="1" r="1" transform="translate(-0.112 -0.206)"/>
            </g>
            <g id="그룹_159" data-name="그룹 159" transform="translate(35.131)">
              <circle id="타원_87" data-name="타원 87" cx="1" cy="1" r="1" transform="translate(-0.131 -0.206)"/>
            </g>
            <g id="그룹_160" data-name="그룹 160" transform="translate(40.15)">
              <circle id="타원_88" data-name="타원 88" cx="1" cy="1" r="1" transform="translate(-0.15 -0.206)"/>
            </g>
            <g id="그룹_161" data-name="그룹 161" transform="translate(45.169)">
              <circle id="타원_89" data-name="타원 89" cx="1" cy="1" r="1" transform="translate(-0.169 -0.206)"/>
            </g>
            <g id="그룹_162" data-name="그룹 162" transform="translate(50.187)">
              <circle id="타원_90" data-name="타원 90" cx="1" cy="1" r="1" transform="translate(-0.187 -0.206)"/>
            </g>
            <g id="그룹_163" data-name="그룹 163" transform="translate(55.206)">
              <circle id="타원_91" data-name="타원 91" cx="1" cy="1" r="1" transform="translate(-0.206 -0.206)"/>
            </g>
          </g>
          <g id="그룹_176" data-name="그룹 176" transform="translate(0 50.187)">
            <g id="그룹_165" data-name="그룹 165">
              <circle id="타원_92" data-name="타원 92" cx="1" cy="1" r="1" transform="translate(0 -0.187)"/>
            </g>
            <g id="그룹_166" data-name="그룹 166" transform="translate(5.019)">
              <circle id="타원_93" data-name="타원 93" cx="1" cy="1" r="1" transform="translate(-0.019 -0.187)"/>
            </g>
            <g id="그룹_167" data-name="그룹 167" transform="translate(10.037)">
              <circle id="타원_94" data-name="타원 94" cx="1" cy="1" r="1" transform="translate(-0.037 -0.187)"/>
            </g>
            <g id="그룹_168" data-name="그룹 168" transform="translate(15.056)">
              <circle id="타원_95" data-name="타원 95" cx="1" cy="1" r="1" transform="translate(-0.056 -0.187)"/>
            </g>
            <g id="그룹_169" data-name="그룹 169" transform="translate(20.075)">
              <circle id="타원_96" data-name="타원 96" cx="1" cy="1" r="1" transform="translate(-0.075 -0.187)"/>
            </g>
            <g id="그룹_170" data-name="그룹 170" transform="translate(25.094)">
              <circle id="타원_97" data-name="타원 97" cx="1" cy="1" r="1" transform="translate(-0.094 -0.187)"/>
            </g>
            <g id="그룹_171" data-name="그룹 171" transform="translate(30.112)">
              <circle id="타원_98" data-name="타원 98" cx="1" cy="1" r="1" transform="translate(-0.112 -0.187)"/>
            </g>
            <g id="그룹_172" data-name="그룹 172" transform="translate(35.131)">
              <circle id="타원_99" data-name="타원 99" cx="1" cy="1" r="1" transform="translate(-0.131 -0.187)"/>
            </g>
            <g id="그룹_173" data-name="그룹 173" transform="translate(40.15)">
              <circle id="타원_100" data-name="타원 100" cx="1" cy="1" r="1" transform="translate(-0.15 -0.187)"/>
            </g>
            <g id="그룹_174" data-name="그룹 174" transform="translate(45.169)">
              <circle id="타원_101" data-name="타원 101" cx="1" cy="1" r="1" transform="translate(-0.169 -0.187)"/>
            </g>
            <g id="그룹_175" data-name="그룹 175" transform="translate(50.187)">
              <circle id="타원_102" data-name="타원 102" cx="1" cy="1" r="1" transform="translate(-0.187 -0.187)"/>
            </g>
          </g>
          <g id="그룹_187" data-name="그룹 187" transform="translate(0 45.169)">
            <g id="그룹_177" data-name="그룹 177">
              <circle id="타원_103" data-name="타원 103" cx="1" cy="1" r="1" transform="translate(0 -0.169)"/>
            </g>
            <g id="그룹_178" data-name="그룹 178" transform="translate(5.019)">
              <circle id="타원_104" data-name="타원 104" cx="1" cy="1" r="1" transform="translate(-0.019 -0.169)"/>
            </g>
            <g id="그룹_179" data-name="그룹 179" transform="translate(10.037)">
              <circle id="타원_105" data-name="타원 105" cx="1" cy="1" r="1" transform="translate(-0.037 -0.169)"/>
            </g>
            <g id="그룹_180" data-name="그룹 180" transform="translate(15.056)">
              <circle id="타원_106" data-name="타원 106" cx="1" cy="1" r="1" transform="translate(-0.056 -0.169)"/>
            </g>
            <g id="그룹_181" data-name="그룹 181" transform="translate(20.075)">
              <circle id="타원_107" data-name="타원 107" cx="1" cy="1" r="1" transform="translate(-0.075 -0.169)"/>
            </g>
            <g id="그룹_182" data-name="그룹 182" transform="translate(25.094)">
              <circle id="타원_108" data-name="타원 108" cx="1" cy="1" r="1" transform="translate(-0.094 -0.169)"/>
            </g>
            <g id="그룹_183" data-name="그룹 183" transform="translate(30.112)">
              <circle id="타원_109" data-name="타원 109" cx="1" cy="1" r="1" transform="translate(-0.112 -0.169)"/>
            </g>
            <g id="그룹_184" data-name="그룹 184" transform="translate(35.131)">
              <circle id="타원_110" data-name="타원 110" cx="1" cy="1" r="1" transform="translate(-0.131 -0.169)"/>
            </g>
            <g id="그룹_185" data-name="그룹 185" transform="translate(40.15)">
              <circle id="타원_111" data-name="타원 111" cx="1" cy="1" r="1" transform="translate(-0.15 -0.169)"/>
            </g>
            <g id="그룹_186" data-name="그룹 186" transform="translate(45.169)">
              <circle id="타원_112" data-name="타원 112" cx="1" cy="1" r="1" transform="translate(-0.169 -0.169)"/>
            </g>
          </g>
          <g id="그룹_197" data-name="그룹 197" transform="translate(0 40.15)">
            <g id="그룹_188" data-name="그룹 188">
              <circle id="타원_113" data-name="타원 113" cx="1" cy="1" r="1" transform="translate(0 -0.15)"/>
            </g>
            <g id="그룹_189" data-name="그룹 189" transform="translate(5.019)">
              <circle id="타원_114" data-name="타원 114" cx="1" cy="1" r="1" transform="translate(-0.019 -0.15)"/>
            </g>
            <g id="그룹_190" data-name="그룹 190" transform="translate(10.037)">
              <circle id="타원_115" data-name="타원 115" cx="1" cy="1" r="1" transform="translate(-0.037 -0.15)"/>
            </g>
            <g id="그룹_191" data-name="그룹 191" transform="translate(15.056)">
              <circle id="타원_116" data-name="타원 116" cx="1" cy="1" r="1" transform="translate(-0.056 -0.15)"/>
            </g>
            <g id="그룹_192" data-name="그룹 192" transform="translate(20.075)">
              <circle id="타원_117" data-name="타원 117" cx="1" cy="1" r="1" transform="translate(-0.075 -0.15)"/>
            </g>
            <g id="그룹_193" data-name="그룹 193" transform="translate(25.094)">
              <circle id="타원_118" data-name="타원 118" cx="1" cy="1" r="1" transform="translate(-0.094 -0.15)"/>
            </g>
            <g id="그룹_194" data-name="그룹 194" transform="translate(30.112)">
              <circle id="타원_119" data-name="타원 119" cx="1" cy="1" r="1" transform="translate(-0.112 -0.15)"/>
            </g>
            <g id="그룹_195" data-name="그룹 195" transform="translate(35.131)">
              <circle id="타원_120" data-name="타원 120" cx="1" cy="1" r="1" transform="translate(-0.131 -0.15)"/>
            </g>
            <g id="그룹_196" data-name="그룹 196" transform="translate(40.15)">
              <circle id="타원_121" data-name="타원 121" cx="1" cy="1" r="1" transform="translate(-0.15 -0.15)"/>
            </g>
          </g>
          <g id="그룹_206" data-name="그룹 206" transform="translate(0 35.131)">
            <g id="그룹_198" data-name="그룹 198">
              <circle id="타원_122" data-name="타원 122" cx="1" cy="1" r="1" transform="translate(0 -0.131)"/>
            </g>
            <g id="그룹_199" data-name="그룹 199" transform="translate(5.019)">
              <circle id="타원_123" data-name="타원 123" cx="1" cy="1" r="1" transform="translate(-0.019 -0.131)"/>
            </g>
            <g id="그룹_200" data-name="그룹 200" transform="translate(10.037)">
              <circle id="타원_124" data-name="타원 124" cx="1" cy="1" r="1" transform="translate(-0.037 -0.131)"/>
            </g>
            <g id="그룹_201" data-name="그룹 201" transform="translate(15.056)">
              <circle id="타원_125" data-name="타원 125" cx="1" cy="1" r="1" transform="translate(-0.056 -0.131)"/>
            </g>
            <g id="그룹_202" data-name="그룹 202" transform="translate(20.075)">
              <circle id="타원_126" data-name="타원 126" cx="1" cy="1" r="1" transform="translate(-0.075 -0.131)"/>
            </g>
            <g id="그룹_203" data-name="그룹 203" transform="translate(25.094)">
              <circle id="타원_127" data-name="타원 127" cx="1" cy="1" r="1" transform="translate(-0.094 -0.131)"/>
            </g>
            <g id="그룹_204" data-name="그룹 204" transform="translate(30.112)">
              <circle id="타원_128" data-name="타원 128" cx="1" cy="1" r="1" transform="translate(-0.112 -0.131)"/>
            </g>
            <g id="그룹_205" data-name="그룹 205" transform="translate(35.131)">
              <circle id="타원_129" data-name="타원 129" cx="1" cy="1" r="1" transform="translate(-0.131 -0.131)"/>
            </g>
          </g>
          <g id="그룹_214" data-name="그룹 214" transform="translate(0 30.112)">
            <g id="그룹_207" data-name="그룹 207">
              <circle id="타원_130" data-name="타원 130" cx="1" cy="1" r="1" transform="translate(0 -0.112)"/>
            </g>
            <g id="그룹_208" data-name="그룹 208" transform="translate(5.019)">
              <circle id="타원_131" data-name="타원 131" cx="1" cy="1" r="1" transform="translate(-0.019 -0.112)"/>
            </g>
            <g id="그룹_209" data-name="그룹 209" transform="translate(10.037)">
              <circle id="타원_132" data-name="타원 132" cx="1" cy="1" r="1" transform="translate(-0.037 -0.112)"/>
            </g>
            <g id="그룹_210" data-name="그룹 210" transform="translate(15.056)">
              <circle id="타원_133" data-name="타원 133" cx="1" cy="1" r="1" transform="translate(-0.056 -0.112)"/>
            </g>
            <g id="그룹_211" data-name="그룹 211" transform="translate(20.075)">
              <circle id="타원_134" data-name="타원 134" cx="1" cy="1" r="1" transform="translate(-0.075 -0.112)"/>
            </g>
            <g id="그룹_212" data-name="그룹 212" transform="translate(25.094)">
              <circle id="타원_135" data-name="타원 135" cx="1" cy="1" r="1" transform="translate(-0.094 -0.112)"/>
            </g>
            <g id="그룹_213" data-name="그룹 213" transform="translate(30.112)">
              <circle id="타원_136" data-name="타원 136" cx="1" cy="1" r="1" transform="translate(-0.112 -0.112)"/>
            </g>
          </g>
          <g id="그룹_221" data-name="그룹 221" transform="translate(0 25.094)">
            <g id="그룹_215" data-name="그룹 215">
              <circle id="타원_137" data-name="타원 137" cx="1" cy="1" r="1" transform="translate(0 -0.094)"/>
            </g>
            <g id="그룹_216" data-name="그룹 216" transform="translate(5.019)">
              <circle id="타원_138" data-name="타원 138" cx="1" cy="1" r="1" transform="translate(-0.019 -0.094)"/>
            </g>
            <g id="그룹_217" data-name="그룹 217" transform="translate(10.037)">
              <circle id="타원_139" data-name="타원 139" cx="1" cy="1" r="1" transform="translate(-0.037 -0.094)"/>
            </g>
            <g id="그룹_218" data-name="그룹 218" transform="translate(15.056)">
              <circle id="타원_140" data-name="타원 140" cx="1" cy="1" r="1" transform="translate(-0.056 -0.094)"/>
            </g>
            <g id="그룹_219" data-name="그룹 219" transform="translate(20.075)">
              <circle id="타원_141" data-name="타원 141" cx="1" cy="1" r="1" transform="translate(-0.075 -0.094)"/>
            </g>
            <g id="그룹_220" data-name="그룹 220" transform="translate(25.094)">
              <circle id="타원_142" data-name="타원 142" cx="1" cy="1" r="1" transform="translate(-0.094 -0.094)"/>
            </g>
          </g>
          <g id="그룹_227" data-name="그룹 227" transform="translate(0 20.075)">
            <g id="그룹_222" data-name="그룹 222">
              <circle id="타원_143" data-name="타원 143" cx="1" cy="1" r="1" transform="translate(0 -0.075)"/>
            </g>
            <g id="그룹_223" data-name="그룹 223" transform="translate(5.019)">
              <circle id="타원_144" data-name="타원 144" cx="1" cy="1" r="1" transform="translate(-0.019 -0.075)"/>
            </g>
            <g id="그룹_224" data-name="그룹 224" transform="translate(10.037)">
              <circle id="타원_145" data-name="타원 145" cx="1" cy="1" r="1" transform="translate(-0.037 -0.075)"/>
            </g>
            <g id="그룹_225" data-name="그룹 225" transform="translate(15.056)">
              <circle id="타원_146" data-name="타원 146" cx="1" cy="1" r="1" transform="translate(-0.056 -0.075)"/>
            </g>
            <g id="그룹_226" data-name="그룹 226" transform="translate(20.075)">
              <circle id="타원_147" data-name="타원 147" cx="1" cy="1" r="1" transform="translate(-0.075 -0.075)"/>
            </g>
          </g>
          <g id="그룹_232" data-name="그룹 232" transform="translate(0 15.056)">
            <g id="그룹_228" data-name="그룹 228">
              <circle id="타원_148" data-name="타원 148" cx="1" cy="1" r="1" transform="translate(0 -0.056)"/>
            </g>
            <g id="그룹_229" data-name="그룹 229" transform="translate(5.019)">
              <circle id="타원_149" data-name="타원 149" cx="1" cy="1" r="1" transform="translate(-0.019 -0.056)"/>
            </g>
            <g id="그룹_230" data-name="그룹 230" transform="translate(10.037)">
              <circle id="타원_150" data-name="타원 150" cx="1" cy="1" r="1" transform="translate(-0.037 -0.056)"/>
            </g>
            <g id="그룹_231" data-name="그룹 231" transform="translate(15.056)">
              <circle id="타원_151" data-name="타원 151" cx="1" cy="1" r="1" transform="translate(-0.056 -0.056)"/>
            </g>
          </g>
          <g id="그룹_236" data-name="그룹 236" transform="translate(0 10.037)">
            <g id="그룹_233" data-name="그룹 233">
              <circle id="타원_152" data-name="타원 152" cx="1" cy="1" r="1" transform="translate(0 -0.037)"/>
            </g>
            <g id="그룹_234" data-name="그룹 234" transform="translate(5.019)">
              <circle id="타원_153" data-name="타원 153" cx="1" cy="1" r="1" transform="translate(-0.019 -0.037)"/>
            </g>
            <g id="그룹_235" data-name="그룹 235" transform="translate(10.037)">
              <circle id="타원_154" data-name="타원 154" cx="1" cy="1" r="1" transform="translate(-0.037 -0.037)"/>
            </g>
          </g>
          <g id="그룹_239" data-name="그룹 239" transform="translate(0 5.019)">
            <g id="그룹_237" data-name="그룹 237">
              <circle id="타원_155" data-name="타원 155" cx="1" cy="1" r="1" transform="translate(0 -0.019)"/>
            </g>
            <g id="그룹_238" data-name="그룹 238" transform="translate(5.019)">
              <circle id="타원_156" data-name="타원 156" cx="1" cy="1" r="1" transform="translate(-0.019 -0.019)"/>
            </g>
          </g>
          <g id="그룹_241" data-name="그룹 241">
            <g id="그룹_240" data-name="그룹 240">
              <circle id="타원_157" data-name="타원 157" cx="1" cy="1" r="1"/>
            </g>
          </g>
        </g>
      </g>
    </g>
    <g id="그룹_245" data-name="그룹 245" transform="translate(196.674 368.938)" opacity="0.6">
      <path id="패스_259" data-name="패스 259" d="M1456.656,388.063l-6.622-4.935-6.622,4.935-6.623-4.935-6.622,4.935-6.623-4.935-5.53,4.12-2.187-2.935,7.717-5.75,6.623,4.935,6.622-4.935,6.623,4.935,6.622-4.935,6.622,4.935,6.621-4.935,6.622,4.935,6.622-4.935,7.716,5.75-2.187,2.935-5.528-4.12-6.622,4.935-6.622-4.935Z"/>
    </g>
    <g id="그룹_246" data-name="그룹 246" transform="translate(1467.236 2279.785) rotate(-90)" opacity="0.3">
      <path id="패스_260" data-name="패스 260" d="M1796.646,438.16a2.352,2.352,0,1,1,2.353-2.352,2.352,2.352,0,0,1-2.353,2.352"/>
      <path id="패스_261" data-name="패스 261" d="M1829.493,438.16a2.352,2.352,0,1,1,2.352-2.352,2.352,2.352,0,0,1-2.352,2.352" transform="translate(-22.766)"/>
      <path id="패스_262" data-name="패스 262" d="M1862.339,438.16a2.352,2.352,0,1,1,2.352-2.352,2.352,2.352,0,0,1-2.352,2.352" transform="translate(-45.531)"/>
      <path id="패스_263" data-name="패스 263" d="M1895.186,438.16a2.352,2.352,0,1,1,2.352-2.352,2.352,2.352,0,0,1-2.352,2.352" transform="translate(-68.297)"/>
      <path id="패스_264" data-name="패스 264" d="M1928.032,438.16a2.352,2.352,0,1,1,2.352-2.352,2.352,2.352,0,0,1-2.352,2.352" transform="translate(-91.063)"/>
      <path id="패스_265" data-name="패스 265" d="M1960.879,438.16a2.352,2.352,0,1,1,2.352-2.352,2.352,2.352,0,0,1-2.352,2.352" transform="translate(-113.828)"/>
      <path id="패스_266" data-name="패스 266" d="M1993.725,438.16a2.352,2.352,0,1,1,2.352-2.352,2.352,2.352,0,0,1-2.352,2.352" transform="translate(-136.594)"/>
      <path id="패스_267" data-name="패스 267" d="M2026.571,438.16a2.352,2.352,0,1,1,2.352-2.352,2.352,2.352,0,0,1-2.352,2.352" transform="translate(-159.359)"/>
      <path id="패스_268" data-name="패스 268" d="M2059.418,438.16a2.352,2.352,0,1,1,2.352-2.352,2.352,2.352,0,0,1-2.352,2.352" transform="translate(-182.125)"/>
      <path id="패스_269" data-name="패스 269" d="M2092.264,438.16a2.352,2.352,0,1,1,2.352-2.352,2.352,2.352,0,0,1-2.352,2.352" transform="translate(-204.891)"/>
      <path id="패스_270" data-name="패스 270" d="M2125.111,438.16a2.352,2.352,0,1,1,2.352-2.352,2.352,2.352,0,0,1-2.352,2.352" transform="translate(-227.657)"/>
      <path id="패스_271" data-name="패스 271" d="M2157.957,438.16a2.352,2.352,0,1,1,2.353-2.352,2.352,2.352,0,0,1-2.353,2.352" transform="translate(-250.422)"/>
      <path id="패스_272" data-name="패스 272" d="M2190.8,438.16a2.352,2.352,0,1,1,2.352-2.352,2.352,2.352,0,0,1-2.352,2.352" transform="translate(-273.187)"/>
    </g>
    <g id="그룹_275" data-name="그룹 275" transform="translate(758.461 -42.736)" opacity="0.5">
      <g id="그룹_247" data-name="그룹 247" transform="translate(927.711 663.737)">
        <path id="패스_273" data-name="패스 273" d="M1011.345,665.371a1.634,1.634,0,1,1-1.634-1.634A1.634,1.634,0,0,1,1011.345,665.371Z" transform="translate(-1008.077 -663.737)"/>
      </g>
      <g id="그룹_248" data-name="그룹 248" transform="translate(919.217 664.694)">
        <path id="패스_274" data-name="패스 274" d="M984.926,667.978a1.634,1.634,0,1,1-1.957-1.229A1.634,1.634,0,0,1,984.926,667.978Z" transform="translate(-981.699 -666.707)"/>
      </g>
      <g id="그룹_249" data-name="그룹 249" transform="translate(911.149 667.517)">
        <path id="패스_275" data-name="패스 275" d="M959.75,676.4a1.634,1.634,0,1,1-2.181-.763A1.634,1.634,0,0,1,959.75,676.4Z" transform="translate(-956.644 -675.474)"/>
      </g>
      <g id="그룹_250" data-name="그룹 250" transform="translate(903.912 672.065)">
        <path id="패스_276" data-name="패스 276" d="M937.081,690.212a1.634,1.634,0,1,1-2.3-.259A1.634,1.634,0,0,1,937.081,690.212Z" transform="translate(-934.17 -689.597)"/>
      </g>
      <g id="그룹_251" data-name="그룹 251" transform="translate(897.868 678.109)">
        <path id="패스_277" data-name="패스 277" d="M918.053,708.723a1.634,1.634,0,1,1-2.3.259A1.634,1.634,0,0,1,918.053,708.723Z" transform="translate(-915.401 -708.367)"/>
      </g>
      <g id="그룹_252" data-name="그룹 252" transform="translate(893.32 685.346)">
        <path id="패스_278" data-name="패스 278" d="M903.62,731a1.634,1.634,0,1,1-2.181.763A1.634,1.634,0,0,1,903.62,731Z" transform="translate(-901.277 -730.841)"/>
      </g>
      <g id="그룹_253" data-name="그룹 253" transform="translate(890.497 693.414)">
        <path id="패스_279" data-name="패스 279" d="M894.508,755.937a1.634,1.634,0,1,1-1.956,1.229A1.634,1.634,0,0,1,894.508,755.937Z" transform="translate(-892.51 -755.895)"/>
      </g>
      <g id="그룹_254" data-name="그룹 254" transform="translate(889.54 701.908)">
        <path id="패스_280" data-name="패스 280" d="M891.174,782.274a1.634,1.634,0,1,1-1.634,1.634A1.634,1.634,0,0,1,891.174,782.274Z" transform="translate(-889.54 -782.274)"/>
      </g>
      <g id="그룹_255" data-name="그룹 255" transform="translate(890.497 710.402)">
        <path id="패스_281" data-name="패스 281" d="M893.781,808.691a1.634,1.634,0,1,1-1.229,1.956A1.634,1.634,0,0,1,893.781,808.691Z" transform="translate(-892.51 -808.649)"/>
      </g>
      <g id="그룹_256" data-name="그룹 256" transform="translate(893.32 718.47)">
        <path id="패스_282" data-name="패스 282" d="M902.2,833.865a1.634,1.634,0,1,1-.763,2.181A1.634,1.634,0,0,1,902.2,833.865Z" transform="translate(-901.277 -833.703)"/>
      </g>
      <g id="그룹_257" data-name="그룹 257" transform="translate(897.868 725.708)">
        <path id="패스_283" data-name="패스 283" d="M916.016,856.536a1.634,1.634,0,1,1-.259,2.3A1.634,1.634,0,0,1,916.016,856.536Z" transform="translate(-915.401 -856.18)"/>
      </g>
      <g id="그룹_258" data-name="그룹 258" transform="translate(903.912 731.752)">
        <path id="패스_284" data-name="패스 284" d="M934.526,875.564a1.634,1.634,0,1,1,.259,2.3A1.634,1.634,0,0,1,934.526,875.564Z" transform="translate(-934.17 -874.949)"/>
      </g>
      <g id="그룹_259" data-name="그룹 259" transform="translate(911.149 736.299)">
        <path id="패스_285" data-name="패스 285" d="M956.806,890a1.634,1.634,0,1,1,.763,2.181A1.633,1.633,0,0,1,956.806,890Z" transform="translate(-956.644 -889.07)"/>
      </g>
      <g id="그룹_260" data-name="그룹 260" transform="translate(919.217 739.122)">
        <path id="패스_286" data-name="패스 286" d="M981.74,899.108a1.634,1.634,0,1,1,1.229,1.956A1.633,1.633,0,0,1,981.74,899.108Z" transform="translate(-981.699 -897.837)"/>
      </g>
      <g id="그룹_261" data-name="그룹 261" transform="translate(927.711 740.08)">
        <path id="패스_287" data-name="패스 287" d="M1008.077,902.444a1.634,1.634,0,1,1,1.634,1.634A1.634,1.634,0,0,1,1008.077,902.444Z" transform="translate(-1008.077 -900.81)"/>
      </g>
      <g id="그룹_262" data-name="그룹 262" transform="translate(936.205 739.122)">
        <path id="패스_288" data-name="패스 288" d="M1034.494,899.835a1.634,1.634,0,1,1,1.956,1.229A1.633,1.633,0,0,1,1034.494,899.835Z" transform="translate(-1034.453 -897.837)"/>
      </g>
      <g id="그룹_263" data-name="그룹 263" transform="translate(944.273 736.299)">
        <path id="패스_289" data-name="패스 289" d="M1059.668,891.413a1.634,1.634,0,1,1,2.181.763A1.633,1.633,0,0,1,1059.668,891.413Z" transform="translate(-1059.506 -889.07)"/>
      </g>
      <g id="그룹_264" data-name="그룹 264" transform="translate(951.511 731.752)">
        <path id="패스_290" data-name="패스 290" d="M1082.339,877.6a1.634,1.634,0,1,1,2.3.259A1.634,1.634,0,0,1,1082.339,877.6Z" transform="translate(-1081.983 -874.949)"/>
      </g>
      <g id="그룹_265" data-name="그룹 265" transform="translate(957.555 725.708)">
        <path id="패스_291" data-name="패스 291" d="M1101.368,859.091a1.634,1.634,0,1,1,2.3-.259A1.634,1.634,0,0,1,1101.368,859.091Z" transform="translate(-1100.752 -856.18)"/>
      </g>
      <g id="그룹_266" data-name="그룹 266" transform="translate(962.102 718.47)">
        <path id="패스_292" data-name="패스 292" d="M1115.8,836.809a1.634,1.634,0,1,1,2.181-.763A1.634,1.634,0,0,1,1115.8,836.809Z" transform="translate(-1114.873 -833.703)"/>
      </g>
      <g id="그룹_267" data-name="그룹 267" transform="translate(964.925 710.402)">
        <path id="패스_293" data-name="패스 293" d="M1124.911,811.876a1.634,1.634,0,1,1,1.956-1.229A1.633,1.633,0,0,1,1124.911,811.876Z" transform="translate(-1123.641 -808.649)"/>
      </g>
      <g id="그룹_268" data-name="그룹 268" transform="translate(965.883 701.908)">
        <path id="패스_294" data-name="패스 294" d="M1128.247,785.542a1.634,1.634,0,1,1,1.634-1.634A1.634,1.634,0,0,1,1128.247,785.542Z" transform="translate(-1126.613 -782.274)"/>
      </g>
      <g id="그룹_269" data-name="그룹 269" transform="translate(964.925 693.414)">
        <path id="패스_295" data-name="패스 295" d="M1125.638,759.123a1.634,1.634,0,1,1,1.229-1.957A1.633,1.633,0,0,1,1125.638,759.123Z" transform="translate(-1123.641 -755.895)"/>
      </g>
      <g id="그룹_270" data-name="그룹 270" transform="translate(962.102 685.346)">
        <path id="패스_296" data-name="패스 296" d="M1117.217,733.947a1.634,1.634,0,1,1,.763-2.181A1.634,1.634,0,0,1,1117.217,733.947Z" transform="translate(-1114.873 -730.841)"/>
      </g>
      <g id="그룹_271" data-name="그룹 271" transform="translate(957.555 678.109)">
        <path id="패스_297" data-name="패스 297" d="M1103.4,711.278a1.634,1.634,0,1,1,.259-2.3A1.634,1.634,0,0,1,1103.4,711.278Z" transform="translate(-1100.752 -708.367)"/>
      </g>
      <g id="그룹_272" data-name="그룹 272" transform="translate(951.511 672.065)">
        <path id="패스_298" data-name="패스 298" d="M1084.894,692.25a1.634,1.634,0,1,1-.259-2.3A1.634,1.634,0,0,1,1084.894,692.25Z" transform="translate(-1081.983 -689.597)"/>
      </g>
      <g id="그룹_273" data-name="그룹 273" transform="translate(944.273 667.517)">
        <path id="패스_299" data-name="패스 299" d="M1062.613,677.817a1.634,1.634,0,1,1-.763-2.181A1.634,1.634,0,0,1,1062.613,677.817Z" transform="translate(-1059.506 -675.474)"/>
      </g>
      <g id="그룹_274" data-name="그룹 274" transform="translate(936.205 664.694)">
        <path id="패스_300" data-name="패스 300" d="M1037.679,668.705a1.634,1.634,0,1,1-1.229-1.956A1.634,1.634,0,0,1,1037.679,668.705Z" transform="translate(-1034.453 -666.707)"/>
      </g>
    </g>
  </g>
</svg>
