<svg xmlns="http://www.w3.org/2000/svg" width="80" height="80" viewBox="0 0 80 80">
  <g id="그룹_1238" data-name="그룹 1238" transform="translate(-1402 -655)">
    <g id="타원_8" data-name="타원 8" transform="translate(1402 655)" fill="#fff" stroke="#a1b2c8" stroke-width="1">
      <circle cx="40" cy="40" r="40" stroke="none"/>
      <circle cx="40" cy="40" r="39.5" fill="none"/>
    </g>
    <g id="그룹_41" data-name="그룹 41" transform="translate(1287 341)">
      <path id="패스_249" data-name="패스 249" d="M145.848,370.5h-7.239A1.608,1.608,0,0,1,137,368.891V353.609A1.608,1.608,0,0,1,138.609,352h33.782A1.608,1.608,0,0,1,174,353.609v15.283a1.608,1.608,0,0,1-1.609,1.609h-7.239" transform="translate(0 -2.935)" fill="none" stroke="#3d3d3d" stroke-linecap="round" stroke-linejoin="round" stroke-width="2"/>
      <line id="선_21" data-name="선 21" x1="25" transform="translate(143 360)" fill="none" stroke="#3d3d3d" stroke-linecap="round" stroke-linejoin="round" stroke-width="2"/>
      <path id="패스_250" data-name="패스 250" d="M148,367v11.261a1.608,1.608,0,0,0,1.609,1.609H165.7a1.608,1.608,0,0,0,1.609-1.609V367" transform="translate(-2.152 -5.87)" fill="none" stroke="#3d3d3d" stroke-linecap="round" stroke-linejoin="round" stroke-width="2"/>
      <path id="패스_251" data-name="패스 251" d="M167.3,345.848v-7.239A1.608,1.608,0,0,0,165.7,337H149.609A1.608,1.608,0,0,0,148,338.609v7.239" transform="translate(-2.152)" fill="none" stroke="#3d3d3d" stroke-linecap="round" stroke-linejoin="round" stroke-width="2"/>
      <line id="선_22" data-name="선 22" x1="3" transform="translate(154 353)" fill="none" stroke="#3d3d3d" stroke-linecap="round" stroke-linejoin="round" stroke-width="2"/>
    </g>
  </g>
</svg>
