<svg xmlns="http://www.w3.org/2000/svg" width="80" height="80" viewBox="0 0 80 80">
  <g id="그룹_1236" data-name="그룹 1236" transform="translate(-1402 -401)">
    <g id="타원_6" data-name="타원 6" transform="translate(1402 401)" fill="#fff" stroke="#a1b2c8" stroke-width="1">
      <circle cx="40" cy="40" r="40" stroke="none"/>
      <circle cx="40" cy="40" r="39.5" fill="none"/>
    </g>
    <g id="그룹_40" data-name="그룹 40" transform="translate(1143.957 -1396.5)">
      <g id="그룹_39" data-name="그룹 39" transform="translate(298.343 1833.15)">
        <circle id="타원_10" data-name="타원 10" cx="6.8" cy="6.8" r="6.8" transform="translate(0 0)" fill="none" stroke="#3d3d3d" stroke-linecap="round" stroke-linejoin="round" stroke-width="2"/>
        <line id="선_20" data-name="선 20" x2="7.092" y2="7.092" transform="translate(11.608 11.608)" fill="none" stroke="#3d3d3d" stroke-linecap="round" stroke-linejoin="round" stroke-width="2"/>
      </g>
      <path id="패스_243" data-name="패스 243" d="M288.143,1849.087h-3.4a1.7,1.7,0,0,0-1.7,1.7v30.6a1.7,1.7,0,0,0,1.7,1.7h23.8a1.7,1.7,0,0,0,1.7-1.7v-4.25" transform="translate(0 -26.987)" fill="none" stroke="#3d3d3d" stroke-linecap="round" stroke-linejoin="round" stroke-width="2"/>
      <path id="패스_244" data-name="패스 244" d="M422.087,1849.087h3.4a1.7,1.7,0,0,1,1.7,1.7v6.8" transform="translate(-116.944 -26.987)" fill="none" stroke="#3d3d3d" stroke-linecap="round" stroke-linejoin="round" stroke-width="2"/>
      <path id="패스_245" data-name="패스 245" d="M309.783,1889.072l1.7,1.7,4.25-4.25" transform="translate(-22.49 -58.472)" fill="none" stroke="#3d3d3d" stroke-linecap="round" stroke-linejoin="round" stroke-width="2"/>
      <path id="패스_246" data-name="패스 246" d="M309.783,1942.55l1.7,1.7,4.25-4.25" transform="translate(-22.49 -103.45)" fill="none" stroke="#3d3d3d" stroke-linecap="round" stroke-linejoin="round" stroke-width="2"/>
      <path id="패스_247" data-name="패스 247" d="M309.783,2001.376l1.7,1.7,4.25-4.25" transform="translate(-22.49 -152.926)" fill="none" stroke="#3d3d3d" stroke-linecap="round" stroke-linejoin="round" stroke-width="2"/>
      <path id="패스_248" data-name="패스 248" d="M341.374,1819.55h-.85v-1.7a.85.85,0,0,0-.85-.85h-5.1a.85.85,0,0,0-.85.85v1.7h-.85a1.7,1.7,0,0,0-1.7,1.7v1.7a.85.85,0,0,0,.85.85h10.2a.85.85,0,0,0,.85-.85v-1.7A1.7,1.7,0,0,0,341.374,1819.55Z" transform="translate(-40.481)" fill="none" stroke="#3d3d3d" stroke-linecap="round" stroke-linejoin="round" stroke-width="2"/>
    </g>
  </g>
</svg>
