<svg xmlns="http://www.w3.org/2000/svg" width="80" height="80" viewBox="0 0 80 80">
  <g id="그룹_1237" data-name="그룹 1237" transform="translate(-1402 -530)">
    <g id="타원_7" data-name="타원 7" transform="translate(1402 530)" fill="#fff" stroke="#a1b2c8" stroke-width="1">
      <circle cx="40" cy="40" r="40" stroke="none"/>
      <circle cx="40" cy="40" r="39.5" fill="none"/>
    </g>
    <g id="그룹_37" data-name="그룹 37" transform="translate(201 -411)">
      <path id="패스_236" data-name="패스 236" d="M1254.211,1008h4.137a1.652,1.652,0,0,1,1.652,1.652v22.375a1.652,1.652,0,0,1-1.652,1.652h-34.7a1.652,1.652,0,0,1-1.652-1.652v-22.375a1.652,1.652,0,0,1,1.652-1.652h3.246" transform="translate(0 -37.469)" fill="none" stroke="#3d3d3d" stroke-linecap="round" stroke-linejoin="round" stroke-width="2"/>
      <line id="선_9" data-name="선 9" x2="21" transform="translate(1231 1002)" fill="none" stroke="#3d3d3d" stroke-linecap="round" stroke-linejoin="round" stroke-width="2"/>
      <line id="선_10" data-name="선 10" y1="3" transform="translate(1235 999)" fill="none" stroke="#3d3d3d" stroke-linecap="round" stroke-linejoin="round" stroke-width="2"/>
      <line id="선_11" data-name="선 11" y2="3" transform="translate(1247 999)" fill="none" stroke="#3d3d3d" stroke-linecap="round" stroke-linejoin="round" stroke-width="2"/>
      <line id="선_12" data-name="선 12" x2="38" transform="translate(1222 992)" fill="none" stroke="#3d3d3d" stroke-linecap="round" stroke-linejoin="round" stroke-width="2"/>
      <path id="패스_237" data-name="패스 237" d="M1301.156,964h-20.678a2.478,2.478,0,0,0-2.478,2.478v19.045" transform="translate(-47.688)" fill="none" stroke="#3d3d3d" stroke-linecap="round" stroke-linejoin="round" stroke-width="2"/>
      <line id="선_13" data-name="선 13" x2="9" transform="translate(1236 976)" fill="none" stroke="#3d3d3d" stroke-linecap="round" stroke-linejoin="round" stroke-width="2"/>
      <line id="선_14" data-name="선 14" x2="5" transform="translate(1236 980)" fill="none" stroke="#3d3d3d" stroke-linecap="round" stroke-linejoin="round" stroke-width="2"/>
      <line id="선_15" data-name="선 15" x2="9" transform="translate(1236 971)" fill="none" stroke="#3d3d3d" stroke-linecap="round" stroke-linejoin="round" stroke-width="2"/>
      <path id="패스_238" data-name="패스 238" d="M1420.266,968.3h.807a.826.826,0,0,0,.826-.826v-.826a2.471,2.471,0,0,0-2.449-2.478h0a2.471,2.471,0,0,0-2.449,2.478v18.574" transform="translate(-166.055 -0.148)" fill="none" stroke="#3d3d3d" stroke-linecap="round" stroke-linejoin="round" stroke-width="2"/>
    </g>
  </g>
</svg>
