<svg xmlns="http://www.w3.org/2000/svg" width="80" height="80" viewBox="0 0 80 80">
  <g id="그룹_1235" data-name="그룹 1235" transform="translate(-1402 -272)">
    <g id="타원_5" data-name="타원 5" transform="translate(1402 272)" fill="#fff" stroke="#a1b2c8" stroke-width="1">
      <circle cx="40" cy="40" r="40" stroke="none"/>
      <circle cx="40" cy="40" r="39.5" fill="none"/>
    </g>
    <g id="그룹_38" data-name="그룹 38" transform="translate(668 -236.453)">
      <path id="패스_239" data-name="패스 239" d="M787.869,544.847v-11.24a1.605,1.605,0,0,0-1.6-1.607H768.38a1.6,1.6,0,0,0-1.121.459L759.6,540a1.989,1.989,0,0,0-.6,1.642v25.706a1.605,1.605,0,0,0,1.6,1.607h19.182" transform="translate(0)" fill="none" stroke="#3d3d3d" stroke-linecap="round" stroke-linejoin="round" stroke-width="2"/>
      <path id="패스_240" data-name="패스 240" d="M786.63,554v4.826a.8.8,0,0,1-.8.8H781" transform="translate(-18.824 -18.824)" fill="none" stroke="#3d3d3d" stroke-linecap="round" stroke-linejoin="round" stroke-width="2"/>
      <path id="패스_241" data-name="패스 241" d="M937,706.713V693h6.351v13.713" transform="translate(-152.307 -137.76)" fill="none" stroke="#3d3d3d" stroke-linecap="round" stroke-linejoin="round" stroke-width="2"/>
      <path id="패스_242" data-name="패스 242" d="M937,655.351,940.176,649l3.176,6.351" transform="translate(-152.307 -100.112)" fill="none" stroke="#3d3d3d" stroke-linecap="round" stroke-linejoin="round" stroke-width="2"/>
      <line id="선_16" data-name="선 16" x2="14" transform="translate(766 550.452)" fill="none" stroke="#3d3d3d" stroke-linecap="round" stroke-linejoin="round" stroke-width="2"/>
      <line id="선_17" data-name="선 17" x2="15" transform="translate(766 546.452)" fill="none" stroke="#3d3d3d" stroke-linecap="round" stroke-linejoin="round" stroke-width="2"/>
      <line id="선_18" data-name="선 18" x2="12" transform="translate(766 555.452)" fill="none" stroke="#3d3d3d" stroke-linecap="round" stroke-linejoin="round" stroke-width="2"/>
      <line id="선_19" data-name="선 19" x2="10" transform="translate(766 559.452)" fill="none" stroke="#3d3d3d" stroke-linecap="round" stroke-linejoin="round" stroke-width="2"/>
    </g>
  </g>
</svg>
