<svg xmlns="http://www.w3.org/2000/svg" width="174.628" height="65" viewBox="0 0 174.628 65">
  <g id="그룹_1245" data-name="그룹 1245" transform="translate(-1357.372 -749)">
    <text id="진진시스템_" data-name="진진시스템㈜" transform="translate(1414 810)" fill="#3d3d3d" font-size="15" font-family="NotoSansCJKkr-Regular, Noto Sans CJK KR"><tspan x="0" y="0">진진시스템㈜</tspan></text>
    <text id="_02-2144-8141" data-name="02-2144-8141" transform="translate(1414 788)" fill="#3d3d3d" font-size="18" font-family="Roboto-Bold, Roboto" font-weight="700"><tspan x="0" y="0">02-2144-8141</tspan></text>
    <text id="시스템장애처리" transform="translate(1414 766)" fill="#3d3d3d" font-size="15" font-family="NotoSansCJKkr-Bold, Noto Sans CJK KR" font-weight="700"><tspan x="0" y="0">시스템장애처리</tspan></text>
    <g id="support" transform="translate(370.111 329.73)">
      <g id="그룹_567" data-name="그룹 567" transform="translate(991.701 421.27)">
        <path id="패스_377" data-name="패스 377" d="M997.619,447.722a.943.943,0,0,1-.943-.943V439.4a18.128,18.128,0,0,1,36.257,0v6.795a.943.943,0,1,1-1.886,0V439.4a16.242,16.242,0,0,0-32.484,0v7.38A.943.943,0,0,1,997.619,447.722Z" transform="translate(-996.676 -421.27)" fill="#3d3d3d"/>
      </g>
      <g id="그룹_568" data-name="그룹 568" transform="translate(987.261 437.325)">
        <path id="패스_378" data-name="패스 378" d="M990.887,467.16h-.925a2.7,2.7,0,0,1-2.7-2.7v-6.445a2.7,2.7,0,0,1,2.7-2.7h.925a2.7,2.7,0,0,1,2.7,2.7v6.445A2.7,2.7,0,0,1,990.887,467.16Zm-.925-9.96a.815.815,0,0,0-.814.814v6.445a.815.815,0,0,0,.814.814h.925a.815.815,0,0,0,.814-.814v-6.445a.815.815,0,0,0-.814-.814Z" transform="translate(-987.261 -455.314)" fill="#3d3d3d"/>
      </g>
      <g id="그룹_569" data-name="그룹 569" transform="translate(1026.072 437.325)">
        <path id="패스_379" data-name="패스 379" d="M1073.184,467.16h-.925a2.7,2.7,0,0,1-2.7-2.7v-6.445a2.7,2.7,0,0,1,2.7-2.7h.925a2.7,2.7,0,0,1,2.7,2.7v6.445A2.7,2.7,0,0,1,1073.184,467.16Zm-.925-9.96a.815.815,0,0,0-.814.814v6.445a.815.815,0,0,0,.814.814h.925a.815.815,0,0,0,.814-.814v-6.445a.815.815,0,0,0-.814-.814Z" transform="translate(-1069.558 -455.314)" fill="#3d3d3d"/>
      </g>
      <g id="그룹_570" data-name="그룹 570" transform="translate(1010.834 443.932)">
        <path id="패스_380" data-name="패스 380" d="M1038.191,492.446a.944.944,0,0,1-.358-1.817c2.907-1.19,14.651-8.553,14.651-20.361a.943.943,0,1,1,1.886,0c0,12.977-12.481,20.739-15.823,22.107A.939.939,0,0,1,1038.191,492.446Z" transform="translate(-1037.247 -469.325)" fill="#3d3d3d"/>
      </g>
      <path id="패스_381" data-name="패스 381" d="M1033.493,446.52c0-.034,0-.067-.01-.1s-.01-.058-.018-.086a.837.837,0,0,0-.027-.088c-.01-.029-.022-.057-.034-.084a.884.884,0,0,0-.043-.079c-.016-.026-.032-.051-.049-.075s-.038-.048-.059-.071-.04-.043-.061-.063a.878.878,0,0,0-.073-.059.859.859,0,0,0-.152-.093.863.863,0,0,0-.093-.04c-.014-.005-.026-.013-.04-.017-12.613-3.916-15.824-12.352-15.862-12.456a.943.943,0,0,0-1.776.637,15.806,15.806,0,0,0,2.181,3.772c-4.987,6.7-9.879,7.372-9.923,7.378a.943.943,0,0,0-.84.938v1.576c0,6.91,1.072,8.978,3.5,13,2.437,4.039,6.991,7.452,9.945,7.452s7.509-3.412,9.946-7.452c2.376-3.94,3.5-6.6,3.5-13.941C1033.5,446.548,1033.493,446.535,1033.493,446.52Zm-5.107,13.009c-2.258,3.743-6.259,6.54-8.33,6.54s-6.072-2.8-8.33-6.54c-2.294-3.8-3.225-5.6-3.225-12.023v-.81c1.735-.457,5.883-2.083,10.1-7.582a29.387,29.387,0,0,0,13,8.13C1031.539,453.611,1030.551,455.939,1028.386,459.529Z" transform="translate(-10.226 -5.978)" fill="#3d3d3d"/>
    </g>
  </g>
</svg>
