<svg xmlns="http://www.w3.org/2000/svg" width="393.33" height="272.373" viewBox="0 0 393.33 272.373">
  <g id="그룹_1602" data-name="그룹 1602" transform="translate(-795.36 -475.152)">
    <g id="그룹_742" data-name="그룹 742" transform="translate(-581.617 31.594)">
      <g id="그룹_721" data-name="그룹 721" transform="translate(1533.02 445.591)">
        <g id="그룹_717" data-name="그룹 717">
          <path id="패스_386" data-name="패스 386" d="M1658.006,469.4a23.86,23.86,0,1,1,23.809,23.912A23.887,23.887,0,0,1,1658.006,469.4Z" transform="translate(-1656.064 -445.591)" fill="#a6a8ab"/>
          <path id="패스_387" data-name="패스 387" d="M1651.1,470.424A23.523,23.523,0,1,1,1674.569,494,23.55,23.55,0,0,1,1651.1,470.424Z" transform="translate(-1651.097 -446.569)" fill="#fff" stroke="#929497" stroke-miterlimit="10" stroke-width="4.83"/>
          <g id="그룹_716" data-name="그룹 716" transform="translate(2.58 2.877)">
            <g id="그룹_688" data-name="그룹 688" transform="translate(39.792 25.201)">
              <path id="패스_388" data-name="패스 388" d="M1801.888,545.591a.11.11,0,0,1,.13-.076l1.371.3a.1.1,0,0,1,.077.13.113.113,0,0,1-.132.084l-1.368-.312A.1.1,0,0,1,1801.888,545.591Z" transform="translate(-1801.885 -545.512)" fill="#808184"/>
            </g>
            <g id="그룹_689" data-name="그룹 689" transform="translate(38.365 29.318)">
              <path id="패스_389" data-name="패스 389" d="M1796.817,560.221a.106.106,0,0,1,.141-.047l1.27.6a.108.108,0,0,1,.049.145.109.109,0,0,1-.144.054l-1.264-.609A.1.1,0,0,1,1796.817,560.221Z" transform="translate(-1796.807 -560.163)" fill="#808184"/>
            </g>
            <g id="그룹_690" data-name="그룹 690" transform="translate(36.073 33.022)">
              <path id="패스_390" data-name="패스 390" d="M1788.67,573.384a.1.1,0,0,1,.145-.016l1.107.863a.111.111,0,0,1,.018.155.105.105,0,0,1-.15.022l-1.1-.875A.109.109,0,0,1,1788.67,573.384Z" transform="translate(-1788.65 -573.345)" fill="#808184"/>
            </g>
            <g id="그룹_691" data-name="그룹 691" transform="translate(33.012 36.133)">
              <path id="패스_391" data-name="패스 391" d="M1777.8,584.434a.11.11,0,0,1,.15.022l.888,1.086a.1.1,0,0,1-.021.149.113.113,0,0,1-.156-.017l-.876-1.1A.1.1,0,0,1,1777.8,584.434Z" transform="translate(-1777.759 -584.414)" fill="#808184"/>
            </g>
            <g id="그룹_692" data-name="그룹 692" transform="translate(29.332 38.462)">
              <path id="패스_392" data-name="패스 392" d="M1764.719,592.713a.106.106,0,0,1,.139.051l.624,1.257a.107.107,0,0,1-.052.144.108.108,0,0,1-.146-.048l-.61-1.263A.1.1,0,0,1,1764.719,592.713Z" transform="translate(-1764.662 -592.703)" fill="#808184"/>
            </g>
            <g id="그룹_693" data-name="그룹 693" transform="translate(25.23 39.923)">
              <path id="패스_393" data-name="패스 393" d="M1750.143,597.908a.1.1,0,0,1,.124.079l.325,1.365a.111.111,0,0,1-.083.131.105.105,0,0,1-.131-.077l-.31-1.368A.109.109,0,0,1,1750.143,597.908Z" transform="translate(-1750.064 -597.905)" fill="#808184"/>
            </g>
            <g id="그룹_694" data-name="그룹 694" transform="translate(20.898 40.439)">
              <path id="패스_394" data-name="패스 394" d="M1734.752,599.739a.1.1,0,0,1,.1.1l.012,1.4a.114.114,0,0,1-.11.112.1.1,0,0,1-.11-.1l0-1.4A.112.112,0,0,1,1734.752,599.739Z" transform="translate(-1734.647 -599.739)" fill="#808184"/>
            </g>
            <g id="그룹_695" data-name="그룹 695" transform="translate(16.252 39.956)">
              <path id="패스_395" data-name="패스 395" d="M1718.556,598.025a.11.11,0,0,1,.076.13l-.3,1.37a.1.1,0,0,1-.13.076.112.112,0,0,1-.083-.132l.316-1.367A.1.1,0,0,1,1718.556,598.025Z" transform="translate(-1718.115 -598.022)" fill="#808184"/>
            </g>
            <g id="그룹_696" data-name="그룹 696" transform="translate(11.841 38.515)">
              <path id="패스_396" data-name="패스 396" d="M1703.181,592.9a.106.106,0,0,1,.046.141l-.6,1.267a.11.11,0,0,1-.2-.1l.616-1.261A.1.1,0,0,1,1703.181,592.9Z" transform="translate(-1702.416 -592.892)" fill="#808184"/>
            </g>
            <g id="그룹_697" data-name="그룹 697" transform="translate(7.88 36.203)">
              <path id="패스_397" data-name="패스 397" d="M1689.373,584.686a.1.1,0,0,1,.015.145l-.87,1.1a.112.112,0,0,1-.155.017.1.1,0,0,1-.021-.15l.881-1.092A.109.109,0,0,1,1689.373,584.686Z" transform="translate(-1688.321 -584.666)" fill="#808184"/>
            </g>
            <g id="그룹_698" data-name="그룹 698" transform="translate(4.576 33.121)">
              <path id="패스_398" data-name="패스 398" d="M1677.85,573.738a.11.11,0,0,1-.022.149l-1.092.881a.1.1,0,0,1-.15-.022.113.113,0,0,1,.018-.155l1.1-.87A.1.1,0,0,1,1677.85,573.738Z" transform="translate(-1676.563 -573.698)" fill="#808184"/>
            </g>
            <g id="그룹_699" data-name="그룹 699" transform="translate(2.096 29.428)">
              <path id="패스_399" data-name="패스 399" d="M1669.2,560.611a.106.106,0,0,1-.052.139l-1.26.617a.108.108,0,0,1-.144-.053.109.109,0,0,1,.049-.146l1.267-.6A.1.1,0,0,1,1669.2,560.611Z" transform="translate(-1667.737 -560.554)" fill="#808184"/>
            </g>
            <g id="그룹_700" data-name="그룹 700" transform="translate(0.543 25.318)">
              <path id="패스_400" data-name="패스 400" d="M1663.792,546.009a.1.1,0,0,1-.079.124l-1.366.321a.111.111,0,0,1-.131-.083.105.105,0,0,1,.077-.131l1.369-.306A.109.109,0,0,1,1663.792,546.009Z" transform="translate(-1662.212 -545.931)" fill="#808184"/>
            </g>
            <g id="그룹_701" data-name="그룹 701" transform="translate(0 20.983)">
              <path id="패스_401" data-name="패스 401" d="M1661.9,530.608a.1.1,0,0,1-.1.1l-1.4.012a.114.114,0,0,1-.112-.11.1.1,0,0,1,.1-.11l1.4,0A.111.111,0,0,1,1661.9,530.608Z" transform="translate(-1660.279 -530.502)" fill="#808184"/>
            </g>
            <g id="그룹_702" data-name="그룹 702" transform="translate(0.508 16.338)">
              <path id="패스_402" data-name="패스 402" d="M1663.67,514.41a.11.11,0,0,1-.13.076l-1.371-.3a.1.1,0,0,1-.077-.13.113.113,0,0,1,.132-.084l1.368.312A.1.1,0,0,1,1663.67,514.41Z" transform="translate(-1662.088 -513.973)" fill="#808184"/>
            </g>
            <g id="그룹_703" data-name="그룹 703" transform="translate(2.039 11.922)">
              <path id="패스_403" data-name="패스 403" d="M1669.006,499.016a.106.106,0,0,1-.141.047l-1.27-.6a.107.107,0,0,1-.049-.145.109.109,0,0,1,.144-.053l1.264.609A.1.1,0,0,1,1669.006,499.016Z" transform="translate(-1667.534 -498.258)" fill="#808184"/>
            </g>
            <g id="그룹_704" data-name="그룹 704" transform="translate(4.5 7.949)">
              <path id="패스_404" data-name="패스 404" d="M1677.584,485.163a.1.1,0,0,1-.146.016l-1.106-.863a.111.111,0,0,1-.018-.155.105.105,0,0,1,.15-.022l1.1.875A.109.109,0,0,1,1677.584,485.163Z" transform="translate(-1676.292 -484.118)" fill="#808184"/>
            </g>
            <g id="그룹_705" data-name="그룹 705" transform="translate(7.773 4.623)">
              <path id="패스_405" data-name="패스 405" d="M1689,473.561a.111.111,0,0,1-.15-.021l-.888-1.086a.1.1,0,0,1,.021-.149.113.113,0,0,1,.155.017l.876,1.1A.1.1,0,0,1,1689,473.561Z" transform="translate(-1687.941 -472.281)" fill="#808184"/>
            </g>
            <g id="그룹_706" data-name="그룹 706" transform="translate(11.723 2.12)">
              <path id="패스_406" data-name="패스 406" d="M1702.77,464.84a.106.106,0,0,1-.14-.051l-.624-1.257a.107.107,0,0,1,.052-.144.109.109,0,0,1,.146.048l.61,1.264A.1.1,0,0,1,1702.77,464.84Z" transform="translate(-1701.996 -463.376)" fill="#808184"/>
            </g>
            <g id="그룹_707" data-name="그룹 707" transform="translate(16.126 0.55)">
              <path id="패스_407" data-name="패스 407" d="M1718.116,459.368a.1.1,0,0,1-.124-.078l-.324-1.365a.111.111,0,0,1,.083-.131.106.106,0,0,1,.131.077l.31,1.369A.108.108,0,0,1,1718.116,459.368Z" transform="translate(-1717.665 -457.789)" fill="#808184"/>
            </g>
            <g id="그룹_708" data-name="그룹 708" transform="translate(20.767)">
              <path id="패스_408" data-name="패스 408" d="M1734.3,457.447a.1.1,0,0,1-.1-.1l-.012-1.4a.114.114,0,0,1,.11-.112.1.1,0,0,1,.11.1l0,1.4A.111.111,0,0,1,1734.3,457.447Z" transform="translate(-1734.183 -455.83)" fill="#808184"/>
            </g>
            <g id="그룹_709" data-name="그룹 709" transform="translate(25.113 0.515)">
              <path id="패스_409" data-name="패스 409" d="M1749.726,459.245a.11.11,0,0,1-.076-.13l.3-1.37a.1.1,0,0,1,.13-.077.113.113,0,0,1,.083.132l-.316,1.367A.1.1,0,0,1,1749.726,459.245Z" transform="translate(-1749.648 -457.664)" fill="#808184"/>
            </g>
            <g id="그룹_710" data-name="그룹 710" transform="translate(29.223 2.063)">
              <path id="패스_410" data-name="패스 410" d="M1764.33,464.64a.106.106,0,0,1-.046-.141l.6-1.268a.11.11,0,0,1,.2.1l-.615,1.261A.1.1,0,0,1,1764.33,464.64Z" transform="translate(-1764.274 -463.172)" fill="#808184"/>
            </g>
            <g id="그룹_711" data-name="그룹 711" transform="translate(32.914 4.545)">
              <path id="패스_411" data-name="패스 411" d="M1777.447,473.293a.1.1,0,0,1-.016-.146l.87-1.1a.112.112,0,0,1,.155-.017.1.1,0,0,1,.021.15l-.881,1.092A.109.109,0,0,1,1777.447,473.293Z" transform="translate(-1777.408 -472.006)" fill="#808184"/>
            </g>
            <g id="그룹_712" data-name="그룹 712" transform="translate(36.003 7.842)">
              <path id="패스_412" data-name="패스 412" d="M1788.421,484.79a.111.111,0,0,1,.023-.149l1.092-.881a.1.1,0,0,1,.149.022.112.112,0,0,1-.018.155l-1.1.87A.1.1,0,0,1,1788.421,484.79Z" transform="translate(-1788.401 -483.737)" fill="#808184"/>
            </g>
            <g id="그룹_713" data-name="그룹 713" transform="translate(38.313 11.804)">
              <path id="패스_413" data-name="패스 413" d="M1796.631,498.6a.106.106,0,0,1,.052-.139l1.26-.617a.107.107,0,0,1,.144.053.108.108,0,0,1-.049.146l-1.266.6A.1.1,0,0,1,1796.631,498.6Z" transform="translate(-1796.621 -497.836)" fill="#808184"/>
            </g>
            <g id="그룹_714" data-name="그룹 714" transform="translate(39.76 16.212)">
              <path id="패스_414" data-name="패스 414" d="M1801.773,513.969a.1.1,0,0,1,.079-.124l1.366-.321a.111.111,0,0,1,.131.083.1.1,0,0,1-.077.131l-1.369.306A.108.108,0,0,1,1801.773,513.969Z" transform="translate(-1801.77 -513.522)" fill="#808184"/>
            </g>
            <g id="그룹_715" data-name="그룹 715" transform="translate(40.268 20.852)">
              <path id="패스_415" data-name="패스 415" d="M1803.581,530.152a.1.1,0,0,1,.1-.1l1.4-.012a.114.114,0,0,1,.112.11.1.1,0,0,1-.1.11l-1.4,0A.111.111,0,0,1,1803.581,530.152Z" transform="translate(-1803.58 -530.037)" fill="#808184"/>
            </g>
          </g>
        </g>
        <circle id="타원_170" data-name="타원 170" cx="2.279" cy="2.279" r="2.279" transform="translate(21.244 22.349)" fill="#58595b"/>
        <g id="그룹_720" data-name="그룹 720" transform="translate(12.789 9.453)">
          <g id="그룹_718" data-name="그룹 718" transform="translate(9.286 8.786)">
            <path id="패스_416" data-name="패스 416" d="M1730.725,518.165a1.07,1.07,0,0,1-.406-2.06l13.387-5.525a1.07,1.07,0,1,1,.816,1.979l-13.387,5.525A1.069,1.069,0,0,1,1730.725,518.165Z" transform="translate(-1729.656 -510.499)" fill="#58595b"/>
          </g>
          <g id="그룹_719" data-name="그룹 719">
            <path id="패스_417" data-name="패스 417" d="M1706.966,495.372a.757.757,0,0,1-.633-.342l-9.6-14.623a.758.758,0,0,1,1.267-.831l9.6,14.623a.758.758,0,0,1-.634,1.174Z" transform="translate(-1696.609 -479.232)" fill="#58595b"/>
          </g>
        </g>
      </g>
      <g id="그룹_741" data-name="그룹 741" transform="translate(1486.872 491.542)">
        <g id="그룹_725" data-name="그룹 725" transform="translate(22.562 71.521)">
          <g id="그룹_723" data-name="그룹 723" transform="translate(0 16.991)">
            <path id="패스_418" data-name="패스 418" d="M1581.523,924.1v2.272a7.571,7.571,0,1,0,15.142,0V924.1Z" transform="translate(-1577.487 -924.103)" fill="#18a2f7"/>
            <path id="패스_419" data-name="패스 419" d="M1567.161,953.193c2.611,1.421,6.83,2.348,11.607,2.348s9-.927,11.607-2.348Z" transform="translate(-1567.161 -945.019)" fill="#18a2f7"/>
            <g id="그룹_722" data-name="그룹 722" transform="translate(14.931 1.11)">
              <path id="패스_420" data-name="패스 420" d="M1620.349,935.022l-.053-.819c.041,0,4.1-.29,5.335-2.027a2.051,2.051,0,0,0,.182-2.274c-.877-1.491-3.732-.954-4.3-.831l-.174-.8c.929-.2,4.045-.713,5.181,1.217a2.89,2.89,0,0,1-.221,3.166C1624.841,934.706,1620.532,935.009,1620.349,935.022Z" transform="translate(-1620.296 -928.053)" fill="#18a2f7"/>
            </g>
          </g>
          <g id="그룹_724" data-name="그룹 724" transform="translate(10.018)">
            <path id="패스_421" data-name="패스 421" d="M1605.417,863.636a3.823,3.823,0,0,1,.986.753,3.286,3.286,0,0,1,.708,1.1,2.9,2.9,0,0,1,.176,1.378,2.189,2.189,0,0,1-.617,1.316,3.328,3.328,0,0,1-1.128.693,10.7,10.7,0,0,0-1.087.47,2.035,2.035,0,0,0-.808.716,1.471,1.471,0,0,0-.139.993,2.113,2.113,0,0,0,.417.874,7.046,7.046,0,0,0,.7.784c.267.259.56.523.848.82a4.879,4.879,0,0,1,.8,1.038,3.145,3.145,0,0,1,.387,1.383,3.448,3.448,0,0,1-.245,1.347,5.9,5.9,0,0,1-1.415,2.024l-.107-.064a16.856,16.856,0,0,0,.571-2.216,3.271,3.271,0,0,0-.011-.977,2.7,2.7,0,0,0-.339-.832,19.114,19.114,0,0,0-1.366-1.73,5.045,5.045,0,0,1-.7-1.087,2.626,2.626,0,0,1-.226-1.358,2.505,2.505,0,0,1,.475-1.235,4.09,4.09,0,0,1,.943-.822,5.8,5.8,0,0,0,1.629-1.491,2.239,2.239,0,0,0,.315-.8,2.736,2.736,0,0,0-.009-.944,4.677,4.677,0,0,0-.324-1c-.152-.338-.339-.678-.525-1.041Z" transform="translate(-1602.81 -863.636)" fill="#d0ccc8"/>
          </g>
        </g>
        <g id="그룹_733" data-name="그룹 733" transform="translate(0 0)">
          <g id="그룹_731" data-name="그룹 731" transform="translate(97.804)">
            <path id="패스_422" data-name="패스 422" d="M1967.84,878.147c-7.28,9.1-14.968,16.984-25.9,21.026a40.039,40.039,0,0,0,37.767-14.279Z" transform="translate(-1911.867 -802.548)" fill="#f6bd96"/>
            <path id="패스_423" data-name="패스 423" d="M2046.717,785.886c.708.83-4.138,11.722-4.828,13.283a36.515,36.515,0,0,1-3.3,5.872c-1.033,1.509-4,3.68-4.421,5.29a2.142,2.142,0,0,0,.65,1.933,12.671,12.671,0,0,0,1.685,1.3,8.432,8.432,0,0,1,2.977,4.214c.277.888.485,1.933,1.3,2.382a2.055,2.055,0,0,0,2.359-.537c5.809-6,11.152-13.331,14.261-21.212Z" transform="translate(-1978.142 -736.213)" fill="#667cd7"/>
            <path id="패스_424" data-name="패스 424" d="M2025.364,866.074a15.253,15.253,0,0,1,10.547,9.161,5.416,5.416,0,0,0,4.854-3,7.521,7.521,0,0,0,.242-5.859,12.5,12.5,0,0,0-3.4-4.9c-2.019-1.876-4.961-3.577-7.828-3.205C2027.021,858.62,2026.26,863.754,2025.364,866.074Z" transform="translate(-1971.85 -788.215)" fill="#576fd2"/>
            <line id="선_49" data-name="선 49" y2="72.224" transform="translate(82.347 129.917)" fill="none" stroke="#6d6e71" stroke-linejoin="round" stroke-width="11.942"/>
            <path id="패스_425" data-name="패스 425" d="M1921.3,848.3l-22.8,6.584,62.371,18.254s55.935-1.764,58.462-78l-50.657-11.282s-1.856,39.938-12.023,50.233S1921.3,848.3,1921.3,848.3Z" transform="translate(-1880.641 -734.758)" fill="#ee8d1b"/>
            <path id="패스_426" data-name="패스 426" d="M1906.016,845.829l-22.795,6.584,62.371,18.254s55.936-1.765,58.462-78L1953.4,781.386s-1.856,39.938-12.023,50.233S1906.016,845.829,1906.016,845.829Z" transform="translate(-1869.65 -732.978)" fill="#ffa82f"/>
            <path id="패스_427" data-name="패스 427" d="M2134.072,1113.4a3.1,3.1,0,0,0,2.771,2.41c.942-.026,1.638-2.851,1.9-3.485.539-1.287.813-2.61,1.267-3.935a39.127,39.127,0,0,0,1.1-5.593c.432-2.376.893-4.764,1.19-7.162.217-1.755.307-3.7-.762-5.112-1.182-1.558-3.343-1.907-5.284-2.143s-4.1-.6-5.265-2.176l-2.773,6.24a2.061,2.061,0,0,0-.242.882c.05,1.485,6.51,4.295,6.112,15.438a18.013,18.013,0,0,0-.1,4.293C2134.008,1113.174,2134.037,1113.288,2134.072,1113.4Z" transform="translate(-2045.625 -952.142)" fill="#d24242"/>
            <path id="패스_428" data-name="패스 428" d="M1857.866,1326.789a3.1,3.1,0,0,0-1.531,3.338c.29.9,25.262.794,26.029.339,1.385-.821.836-2.058.671-3.3-.232-1.729-.6-3.479-.725-5.22-.041-.59-.341-5.939.777-5.791l-6.769-.9a2.058,2.058,0,0,0-.914.016c-1.411.467-2.284,7.458-13.088,10.219a18,18,0,0,0-4.148,1.114Q1858.015,1326.691,1857.866,1326.789Z" transform="translate(-1850.243 -1116.8)" fill="#d24242"/>
            <path id="패스_429" data-name="패스 429" d="M1953.561,965.71c-7.719,5.858-17.539,8.577-27.228,8.671s-19.275-2.308-28.281-5.883c-8.294-3.292-13.54-3.721-21.656-7.409-1.61-.731-2.667-5.23-.429-8.155,1.381-1.805.558-3.578,2.7-3.779,16.51-1.548,32.952.807,48.843,5.537A126.809,126.809,0,0,1,1953.561,965.71Z" transform="translate(-1863.514 -853.263)" fill="#2c2c4c"/>
            <path id="패스_430" data-name="패스 430" d="M1951.962,1032.314c4.433-1.847,8.887-3.65,13.307-5.528,3.943-1.676,8.233-2.629,12.156-4.487a23.184,23.184,0,0,0,9.321-7.46c1.487-2.152,2.493-4.833,1.9-7.38-2.081-8.878-17.773-8.216-24.452-7.193-18.368,2.813-41.14,17.823-48.221,35.509-3.549,8.865-6.914,40.03-6.914,56.634l12.257,1.436,11.887-45.02c.734-2.781,1.507-5.641,3.251-7.928,2.329-3.052,6.043-4.651,9.588-6.124Z" transform="translate(-1888.224 -889.937)" fill="#4c4c75"/>
            <path id="패스_431" data-name="패스 431" d="M1998.179,1072.5a153.191,153.191,0,0,1-16.382,3.508c-7.511,1.4-15.675,2.985-21.644,8.114-3.163,2.718-5.188,6.422-6.853,10.19a80.574,80.574,0,0,0-4.223,12.721c-1.075,4.225-1.933,8.5-2.786,12.773-.989,4.957-2.195,9.866-3.359,14.784-.727,3.072-1.452,6.149-2.154,9.23l3.342.391,11.888-45.02c.734-2.781,1.506-5.641,3.251-7.928,2.329-3.052,6.043-4.651,9.588-6.124l5.924-2.46c4.433-1.847,8.887-3.65,13.307-5.528,3.943-1.676,8.233-2.629,12.156-4.487a28.117,28.117,0,0,0,4.877-2.923A39.877,39.877,0,0,1,1998.179,1072.5Z" transform="translate(-1911.034 -940.306)" fill="#39395c"/>
            <path id="패스_432" data-name="패스 432" d="M2104.1,744.51a49.738,49.738,0,0,0-10.543-6.709c-3.459-1.721-7.2-3.543-11.16-3.451a23.7,23.7,0,0,0-7.352,1.336,24.187,24.187,0,0,0-13.991,13.144,31.85,31.85,0,0,0-2.553,12.655c.156,4.623,1.189,9.077,1,13.774a62.7,62.7,0,0,1-2.123,13.881c-.58,2.145-1.141,5.128-2.273,7.043-1.08,1.826-1.58,2.834-.257,4.867a13.113,13.113,0,0,0,4.243,3.62,74.545,74.545,0,0,0,11.914,6.531,38.107,38.107,0,0,0,6.544,1.817,50.981,50.981,0,0,1,6.635,2.274c2.724.98,5.753,1.959,8.436.872,2.571-1.042,4.067-3.684,5.279-6.18,5.415-11.151,8.636-23.161,12.182-35C2113.245,764.433,2113.006,752.225,2104.1,744.51Z" transform="translate(-1992.481 -699.156)" fill="#7e8ee8"/>
            <path id="패스_433" data-name="패스 433" d="M2143.941,756.823l1.551.952c.071-.321.152-.628.219-.952Z" transform="translate(-2057.106 -715.317)" fill="#a6a8ab"/>
            <g id="그룹_729" data-name="그룹 729" transform="translate(70.695)">
              <g id="그룹_727" data-name="그룹 727">
                <path id="패스_434" data-name="패스 434" d="M2147.32,680.9h0a6.954,6.954,0,0,0,6.853-7.053l-.376-26.157-13.906.2.376,26.157A6.954,6.954,0,0,0,2147.32,680.9Z" transform="translate(-2124.889 -636.853)" fill="#f6bd96"/>
                <path id="패스_435" data-name="패스 435" d="M2152.623,660.959l1.175-13.265-13.906.2.376,26.157a6.874,6.874,0,0,0,.907,3.271C2148.7,674.869,2151.113,668.124,2152.623,660.959Z" transform="translate(-2124.889 -636.853)" fill="#e7a579"/>
                <g id="그룹_726" data-name="그룹 726">
                  <path id="패스_436" data-name="패스 436" d="M2109.186,649.128c-15.486,5.608-19.174-30.276-3.436-36.4C2129.948,603.322,2129.146,641.9,2109.186,649.128Z" transform="translate(-2093.05 -610.659)" fill="#f6bd96"/>
                  <path id="패스_437" data-name="패스 437" d="M2114.808,634.355a7.811,7.811,0,0,0,.882,3.243c-.213-.369,1.479-3.276,1.674-3.738,1.508-3.582,3.039-7.262,3.182-11.145a12.612,12.612,0,0,0-.459-3.94c-3.77-13.157-22.343-10.931-31.115-4.759a6.331,6.331,0,0,0-2.027,2.02,4.385,4.385,0,0,0,.5,4.591c2.056,2.763,7.027,4,10.308,3.984a14.6,14.6,0,0,0,10.27-4.147,9.639,9.639,0,0,0,5.537,10.125c.407-.733,1.08-.668,1.727-.134A6.738,6.738,0,0,0,2114.808,634.355Z" transform="translate(-2086.505 -609.116)" fill="#3a3837"/>
                </g>
              </g>
              <g id="그룹_728" data-name="그룹 728" transform="translate(0.142 21.455)">
                <path id="패스_438" data-name="패스 438" d="M2093.386,688.961a3.235,3.235,0,1,1-2.807-3.191A3.019,3.019,0,0,1,2093.386,688.961Z" transform="translate(-2087.011 -685.662)" fill="none" stroke="#808184" stroke-miterlimit="10" stroke-width="1.469"/>
                <ellipse id="타원_171" data-name="타원 171" cx="2.792" cy="3.205" rx="2.792" ry="3.205" transform="translate(8.337 6.378) rotate(-82.397)" fill="none" stroke="#808184" stroke-miterlimit="10" stroke-width="1.469"/>
                <line id="선_50" data-name="선 50" y1="4.021" x2="11.48" transform="translate(15.118)" fill="none" stroke="#808184" stroke-miterlimit="10" stroke-width="1.574"/>
                <path id="패스_439" data-name="패스 439" d="M2109.907,695.3a2.681,2.681,0,0,1,2.331.311" transform="translate(-2103.473 -692.438)" fill="none" stroke="#808184" stroke-miterlimit="10" stroke-width="1.574"/>
              </g>
              <path id="패스_440" data-name="패스 440" d="M2181.664,683.26a1.9,1.9,0,0,1,1.026-.819,1.1,1.1,0,0,1,1.195.384,1.563,1.563,0,0,1-.058,1.457,12.044,12.044,0,0,1-2.163,3.034Z" transform="translate(-2154.924 -661.805)" fill="#f6bd96"/>
              <path id="패스_441" data-name="패스 441" d="M2109.4,697.649c.141,1.743.249,3.627-.688,5.1-.167.262-.373.554-.291.854a.913.913,0,0,0,.564.516,5.093,5.093,0,0,0,1.187.368" transform="translate(-2102.25 -672.771)" fill="none" stroke="#e7a579" stroke-linecap="round" stroke-miterlimit="10" stroke-width="1.706"/>
              <path id="패스_442" data-name="패스 442" d="M2110.863,727.936a7.392,7.392,0,0,0,3.05.436" transform="translate(-2104.019 -694.547)" fill="none" stroke="#d79468" stroke-linecap="round" stroke-miterlimit="10" stroke-width="1.706"/>
            </g>
            <path id="패스_443" data-name="패스 443" d="M1874.235,956.625c-9.762-4.076-23.16-10.11-33.321-3.432-3.271,2.15-5.839,5.757-5.982,9.742-.155,4.313,2.536,8.288,5.968,10.728s7.542,3.622,11.568,4.765l31.475,8.934c6.162,1.749,12.316,3.858,18.517,5.408,4.784,1.193,17.189,5.865,17.189,5.865a42.843,42.843,0,0,0,4.856-10.212C1910.291,973.953,1892.768,964.364,1874.235,956.625Z" transform="translate(-1834.925 -854.359)" fill="#4c4c75"/>
            <path id="패스_444" data-name="패스 444" d="M2013.151,990.648a141.912,141.912,0,0,1,12.405,8.47c1.849,1.421,3.609,2.949,5.44,4.391,1.673,1.318,3.416,2.546,5.171,3.751,4.294,2.947,8.864,5.844,12.72,9.424.13-.389.262-.779.365-1.163-11.773-11.984-25.818-20.616-40.825-27.626C2010.008,988.8,2011.6,989.7,2013.151,990.648Z" transform="translate(-1959.673 -881.457)" fill="#39395c"/>
            <path id="패스_445" data-name="패스 445" d="M1914.839,1011.285c-5.125-1.9-10.369-3.429-15.521-5.247-9.039-3.189-17.615-7.483-26.349-11.395-5.182-2.321-10.628-4.006-15.874-6.176-5.15-2.13-10.453-4.64-14.45-8.623a17.022,17.022,0,0,1-4.089-6.213,14.375,14.375,0,0,1-.705-3.115,11.592,11.592,0,0,0-2.92,7.021c-.155,4.313,2.536,8.288,5.968,10.728s7.542,3.623,11.568,4.765l31.475,8.934c6.162,1.749,12.316,3.858,18.517,5.408,4.784,1.193,17.189,5.865,17.189,5.865l.038-.058C1918.08,1012.526,1916.467,1011.888,1914.839,1011.285Z" transform="translate(-1834.925 -868.962)" fill="#39395c"/>
            <g id="그룹_730" data-name="그룹 730" transform="translate(69.215 50.915)">
              <path id="패스_446" data-name="패스 446" d="M2110.161,900.364a3.983,3.983,0,0,0-1.684,1.822c-2.48,4.673-7.312,7.856-11.841,10.608a61.8,61.8,0,0,1-7.9,4.056c-1.536.653-5.871,3.085-7.5,2.627,8.718,2.451,15.7.342,24-2.057,6.664-1.926,12.5-5.081,16.523-11.064,1.028-1.529-5.072-4.35-5.915-4.751C2113.691,900.577,2111.748,899.583,2110.161,900.364Z" transform="translate(-2081.238 -869.236)" fill="#f6bd96"/>
              <path id="패스_447" data-name="패스 447" d="M2201.243,797.441a11.459,11.459,0,0,0-1.9-4.655c-2.64-3.658-6.841-3.066-9.19.441a15.712,15.712,0,0,0-1.817,4.261c-1.716,5.677-2.209,11.428-3.348,17.19a25.4,25.4,0,0,1-1.865,6.31,15.706,15.706,0,0,1,11.893,6.437,29.233,29.233,0,0,0,2.576-4.693,51.431,51.431,0,0,0,3.6-15.619A35.428,35.428,0,0,0,2201.243,797.441Z" transform="translate(-2154.491 -790.307)" fill="#7e8ee8"/>
              <path id="패스_448" data-name="패스 448" d="M2188.714,805.768a70.11,70.11,0,0,1,1.635-8.234,14.6,14.6,0,0,1,1.75-3.9,7.2,7.2,0,0,0-1.948,1.985,15.713,15.713,0,0,0-1.817,4.261c-1.716,5.677-2.209,11.428-3.348,17.19a25.4,25.4,0,0,1-1.865,6.31,13.777,13.777,0,0,1,3.516.569C2187.748,817.946,2187.651,811.789,2188.714,805.768Z" transform="translate(-2154.491 -792.702)" fill="#a5b4f6"/>
              <path id="패스_449" data-name="패스 449" d="M2228.775,869.288c.162-.336.346-.665.492-1a49.951,49.951,0,0,0,3.5-14.624c-.378,1.014-.8,2.013-1.243,2.99-1.023,2.254-3.7,9.321-4.341,10.2C2228.252,867.855,2228.053,868.021,2228.775,869.288Z" transform="translate(-2186.169 -835.857)" fill="#576fd2"/>
              <path id="패스_450" data-name="패스 450" d="M2173.194,889.992a15.253,15.253,0,0,1,10.548,9.161,5.417,5.417,0,0,0,4.854-3,7.521,7.521,0,0,0,.242-5.859,12.5,12.5,0,0,0-3.4-4.9c-2.018-1.876-4.961-3.577-7.828-3.205C2174.851,882.538,2174.09,887.672,2173.194,889.992Z" transform="translate(-2147.354 -856.327)" fill="#576fd2"/>
            </g>
            <path id="패스_451" data-name="패스 451" d="M2046.728,1322.8l-31.753,5.931h63.505Z" transform="translate(-1964.381 -1122.252)" fill="#6d6e71"/>
            <path id="패스_452" data-name="패스 452" d="M2057.77,952a14.248,14.248,0,0,0-8.4,3.528c5.459.925,11.11,1.844,16.476.482,3.21-.815.3-2.115-1.051-2.679A15.266,15.266,0,0,0,2057.77,952Z" transform="translate(-1989.109 -855.627)" fill="#f6bd96"/>
          </g>
          <g id="그룹_732" data-name="그룹 732" transform="translate(0 103.382)">
            <line id="선_51" data-name="선 51" y1="119.345" x2="30.613" transform="translate(215.275 0.136)" fill="none" stroke="#d0ccc8" stroke-linejoin="round" stroke-width="12.276"/>
            <line id="선_52" data-name="선 52" x1="30.613" y1="119.345" transform="translate(246.878 0.136)" fill="none" stroke="#d0ccc8" stroke-linejoin="round" stroke-width="12.276"/>
            <line id="선_53" data-name="선 53" y1="119.345" x2="30.613" transform="translate(0 0.136)" fill="none" stroke="#d0ccc8" stroke-linejoin="round" stroke-width="12.276"/>
            <line id="선_54" data-name="선 54" x1="30.613" y1="119.345" transform="translate(31.603 0.136)" fill="none" stroke="#d0ccc8" stroke-linejoin="round" stroke-width="12.276"/>
            <line id="선_55" data-name="선 55" x2="253.602" transform="translate(12.54)" fill="none" stroke="#ff7e19" stroke-miterlimit="10" stroke-width="29.854"/>
          </g>
        </g>
        <g id="그룹_740" data-name="그룹 740" transform="translate(50.262 62.192)">
          <g id="그룹_734" data-name="그룹 734" transform="translate(9.203)">
            <path id="패스_453" data-name="패스 453" d="M1700.885,830.438l-.242.718.48-.011Z" transform="translate(-1700.037 -830.438)" fill="#808184"/>
            <path id="패스_454" data-name="패스 454" d="M1700.166,834.717l-.593-1.763-.48.011-.605,1.794v.025l1.679-.049Z" transform="translate(-1698.487 -832.247)" fill="#ffa82f"/>
            <path id="패스_455" data-name="패스 455" d="M1698.489,839.342l.543,22.457,1.679-.04-.543-22.466Z" transform="translate(-1698.489 -836.805)" fill="#808184"/>
          </g>
          <g id="그룹_735" data-name="그룹 735" transform="translate(14.295 3.748)">
            <path id="패스_456" data-name="패스 456" d="M1719.5,857.489l-2.878,16.908a1.258,1.258,0,0,0,1.029,1.452,1.207,1.207,0,0,0,.213.018,1.26,1.26,0,0,0,1.239-1.047l2.87-16.861Z" transform="translate(-1716.607 -853.635)" fill="#20a7f7"/>
            <path id="패스_457" data-name="패스 457" d="M1730.589,845.245a1.258,1.258,0,1,0-2.481-.423l-.2,1.156,2.475.454Z" transform="translate(-1724.735 -843.775)" fill="#fa9e9e"/>
            <path id="패스_458" data-name="패스 458" d="M1727.194,851.616l-.281,1.65,2.473.47.284-1.666Z" transform="translate(-1724.017 -849.413)" fill="#d0ccc8"/>
          </g>
          <g id="그룹_736" data-name="그룹 736" transform="translate(3.663 4.221)">
            <path id="패스_459" data-name="패스 459" d="M1679.943,858.861l1.931,15.823a1.17,1.17,0,0,0,1.3,1.02,1.118,1.118,0,0,0,.195-.041,1.171,1.171,0,0,0,.825-1.262l-1.926-15.779Z" transform="translate(-1679.614 -854.923)" fill="#00b580"/>
            <path id="패스_460" data-name="패스 460" d="M1681.1,846.488a1.169,1.169,0,1,0-2.322.283l.132,1.082,2.325-.254Z" transform="translate(-1678.772 -845.46)" fill="#fa9e9e"/>
            <path id="패스_461" data-name="패스 461" d="M1679.273,853.327l.188,1.544,2.327-.239-.19-1.559Z" transform="translate(-1679.132 -850.934)" fill="#d0ccc8"/>
          </g>
          <line id="선_56" data-name="선 56" x2="2.622" y2="11.325" transform="translate(6.757 8.883)" fill="none" stroke="#ff7e19" stroke-miterlimit="10" stroke-width="5.971"/>
          <g id="그룹_737" data-name="그룹 737" transform="translate(11.425 4.302)">
            <path id="패스_462" data-name="패스 462" d="M1708.428,845.748l-.205.729.479-.036Z" transform="translate(-1707.71 -845.748)" fill="#00b580"/>
            <path id="패스_463" data-name="패스 463" d="M1708.07,849.948l-.682-1.731-.479.036-.513,1.822,0,.025,1.674-.134Z" transform="translate(-1706.396 -847.523)" fill="#ffa82f"/>
            <path id="패스_464" data-name="패스 464" d="M1706.4,854.575l1.684,22.4,1.675-.125-1.685-22.409Z" transform="translate(-1706.4 -851.998)" fill="#1a1a3a"/>
          </g>
          <g id="그룹_738" data-name="그룹 738" transform="translate(0 4.518)">
            <path id="패스_465" data-name="패스 465" d="M1666.631,846.515l-.09.8.495-.119Z" transform="translate(-1666.315 -846.515)" fill="#18a2f7"/>
            <path id="패스_466" data-name="패스 466" d="M1667.467,850.626l-1.01-1.694-.495.119-.226,1.994.006.026,1.729-.426Z" transform="translate(-1665.737 -848.253)" fill="#ffa82f"/>
            <path id="패스_467" data-name="패스 467" d="M1665.759,855.454l5.589,23.148,1.731-.417-5.591-23.157Z" transform="translate(-1665.753 -852.636)" fill="#18a2f7"/>
          </g>
          <g id="그룹_739" data-name="그룹 739" transform="translate(13.535 2.083)">
            <path id="패스_468" data-name="패스 468" d="M1719.247,837.849l-.282.7.48.016Z" transform="translate(-1717.543 -837.849)" fill="#ffa82f"/>
            <path id="패스_469" data-name="패스 469" d="M1718.132,842.162l-.493-1.794-.48-.016-.705,1.757v.025l1.679.046Z" transform="translate(-1715.737 -839.649)" fill="#d0d2d3"/>
            <path id="패스_470" data-name="패스 470" d="M1714.621,846.694l-.716,22.452,1.678.054.717-22.461Z" transform="translate(-1713.905 -844.209)" fill="#ffa82f"/>
          </g>
          <path id="패스_471" data-name="패스 471" d="M1686.467,914.732h-9.624l-3.356-18.692h16.335Z" transform="translate(-1671.31 -877.606)" fill="#ed5830"/>
        </g>
        <path id="패스_472" data-name="패스 472" d="M1845.356,854.888h-63.951l-8.852-42.132H1836.5Z" transform="translate(-1692.276 -755.533)" fill="#bbbdbf"/>
        <circle id="타원_172" data-name="타원 172" cx="2.135" cy="2.135" r="2.135" transform="translate(114.11 79.877) rotate(-76.718)" fill="#fff"/>
      </g>
    </g>
    <g id="그룹_757" data-name="그룹 757" transform="translate(-2491.293 -290.924)">
      <g id="그룹_746" data-name="그룹 746" transform="translate(3307.904 951.67)">
        <g id="그룹_743" data-name="그룹 743" transform="translate(25.116 13.624)">
          <path id="패스_473" data-name="패스 473" d="M3431.573,1260.854c-.037,0-.075,0-.114,0a1.053,1.053,0,0,1-1.042-1.066l.705-59.512a1.054,1.054,0,0,1,2.107.025l-.705,59.512A1.053,1.053,0,0,1,3431.573,1260.854Z" transform="translate(-3430.418 -1199.239)" fill="#3a3942"/>
        </g>
        <g id="그룹_744" data-name="그룹 744" transform="translate(0 10.868)">
          <path id="패스_474" data-name="패스 474" d="M3353.6,1265.079a1.093,1.093,0,0,1-.212-.021,1.055,1.055,0,0,1-.822-1.244l14.754-72.278a1.053,1.053,0,1,1,2.064.422l-14.754,72.278A1.054,1.054,0,0,1,3353.6,1265.079Z" transform="translate(-3352.543 -1190.693)" fill="#3a3942"/>
        </g>
        <g id="그룹_745" data-name="그룹 745" transform="translate(44.142 10.867)">
          <path id="패스_475" data-name="패스 475" d="M3505.218,1265.079a1.053,1.053,0,0,1-1.031-.843l-14.754-72.278a1.054,1.054,0,1,1,2.064-.422l14.754,72.278a1.054,1.054,0,0,1-.821,1.244A1.086,1.086,0,0,1,3505.218,1265.079Z" transform="translate(-3489.411 -1190.693)" fill="#3a3942"/>
        </g>
        <ellipse id="타원_173" data-name="타원 173" cx="23.104" cy="8.407" rx="23.104" ry="8.407" transform="translate(6.083)" fill="#3a3942"/>
        <ellipse id="타원_174" data-name="타원 174" cx="20.958" cy="5.454" rx="20.958" ry="5.454" transform="translate(9.582 37.153)" fill="none" stroke="#3a3942" stroke-miterlimit="10" stroke-width="5.96"/>
      </g>
      <g id="그룹_754" data-name="그룹 754" transform="translate(3286.653 853.923)">
        <g id="그룹_753" data-name="그룹 753">
          <g id="그룹_747" data-name="그룹 747" transform="translate(16.285)">
            <path id="패스_476" data-name="패스 476" d="M3379.946,904.22a.462.462,0,0,0-.211-.326.683.683,0,0,0-.242-.137,3.272,3.272,0,0,0-.633-.105.066.066,0,0,0-.063,0,5.711,5.711,0,0,0-3.267.875,13.935,13.935,0,0,0-4.7,4.774c-.137-1.2-.295-2.4-.485-3.6-.189-1.328-.421-2.656-.674-3.973-.032-.211-.074-.411-.116-.622-.158-.811-.327-1.623-.5-2.434q.411-.316.791-.632a12.534,12.534,0,0,0,4.236-5.354,12.049,12.049,0,0,0,.4-1.3c.306-1.3.306-2.751-1.359-2.656-1.865.116-3.246,2.118-4.184,3.562l-.063.095c-.316.506-.632,1.064-.917,1.634-.432-1.613-.9-3.215-1.4-4.816-.379-1.254-.8-2.519-1.233-3.763-.042-.147-.095-.284-.147-.432a.408.408,0,0,1,.105-.084c.5-.422,1.075-.727,1.539-1.191a5.924,5.924,0,0,0,1-1.286,6.415,6.415,0,0,0,.411-.738,14.614,14.614,0,0,0,1.127-4.247,9.849,9.849,0,0,0,.032-2.814c-.169-.991-.685-1.781-1.729-1.665-2.023.242-2.814,3.309-3.351,4.922a28.678,28.678,0,0,0-.749,3.088,59.073,59.073,0,0,0-5.838-10.454c1.771-1.054,2.593-3.952,2.287-6.028a7.68,7.68,0,0,0-.749-2.466,12.108,12.108,0,0,0-1.507-2.213,15.78,15.78,0,0,0-2.065-1.855,15.943,15.943,0,0,0-2.361-1.412.5.5,0,0,0-.759.516,79.746,79.746,0,0,0,1.865,9.253,40.182,40.182,0,0,0-4.384-4.289,14.078,14.078,0,0,0-4.647-6.228,9.8,9.8,0,0,0-7.915-1.634.489.489,0,0,0-.306.675,7.263,7.263,0,0,0,1.265,1.939,7.529,7.529,0,0,0,.78.748,8.836,8.836,0,0,0,.822.727c1.149.853,2.393,1.654,3.541,2.35a13.652,13.652,0,0,0,2.055,1.085c.685.358,1.433.643,2.16.98.664.337,1.349.611,2.013.938a8.059,8.059,0,0,1,1.844,1.307,40.074,40.074,0,0,1,3.1,3.446,9.872,9.872,0,0,0-2.624-1.138,7.886,7.886,0,0,0-2.74-.358,6.419,6.419,0,0,0-4.732,2.34.439.439,0,0,0,.053.706,25.312,25.312,0,0,0,5.533,1.781c2.213.39,4.542.516,6.4-.811l.105.137a.28.28,0,0,0,.084.074,59.731,59.731,0,0,1,6.165,11.245,13.743,13.743,0,0,0-2.245-1.707,13.959,13.959,0,0,0-3.709-1.823,10.737,10.737,0,0,0-4.068-.5.564.564,0,0,0-.527.632,4.6,4.6,0,0,0,1.739,2.951,4.508,4.508,0,0,0,.432.348,13.064,13.064,0,0,0,2.782,1.5,7.507,7.507,0,0,0,1.307.39c1.781.411,3.794.506,5.206,1.718,2.245,1.981,1.76,6.039,3.024,8.61.021.053.053.095.074.147-.032-.053-.063-.116-.1-.168a15.458,15.458,0,0,0-7.145-6.682,7.945,7.945,0,0,0-2.35-.622.593.593,0,0,0-.622.411c-.348,2.635,1.128,4.774,3.2,6.608.231.2.463.39.706.58a27.3,27.3,0,0,0,2.466,1.739c.327.2.643.4.97.6.99.59,1.96,1.117,2.845,1.581a1.18,1.18,0,0,0,.158.084c.168.084.348.168.506.253a.443.443,0,0,0,.158.042.394.394,0,0,0,.158,0,.216.216,0,0,0,.084.042q.285,1.344.537,2.688c.011.063.021.126.032.179.274,1.433.517,2.856.717,4.289.137.875.253,1.739.348,2.614.021.105.032.221.042.327-.063-.095-.116-.179-.179-.274-.147-.211-.295-.422-.453-.632-.232-.316-.485-.633-.759-.938a12.545,12.545,0,0,0-2.456-2.161,8.441,8.441,0,0,0-2.7-1.244h-.01a5.989,5.989,0,0,0-2.023-.19.492.492,0,0,0-.421.442.324.324,0,0,0,.042.263c.337.527.7,1.075,1.085,1.634a17.885,17.885,0,0,0,5.438,5.449,7.306,7.306,0,0,0,.906.453.192.192,0,0,0,.095.042,4.572,4.572,0,0,0,.665.263.037.037,0,0,0,.031.011,4.128,4.128,0,0,0,.474.148,6.029,6.029,0,0,0,.622.158,5.511,5.511,0,0,1,.232,1.928v.011c.031.611.052,1.275.063,1.886.032.938.032,1.728.042,1.918v.158a2.9,2.9,0,0,1,.011.305c.01.158.01.327.01.485a2.518,2.518,0,0,1,.011.284c.021.749.032,1.486.032,2.234,0,.422,0,.854-.011,1.286.011.464,0,.938-.01,1.412-.011.422-.021.843-.032,1.254a3.215,3.215,0,0,1-.011.327c-.021.8-.053,1.591-.1,2.371a42,42,0,0,1-.685,5.617v.011c-.074.348-.148.7-.243,1.043a2.891,2.891,0,0,1-.063.3c-.063.263-.137.527-.19.8.137,0,.274.011.411.011h.232c.358.01.727.021,1.1.01v-.021c.084-2.592.306-5.185.463-7.788.021-.305.042-.611.053-.927.032-.485.053-.97.074-1.455s.042-1,.053-1.5c0-.126.01-.253.01-.379v-.105c.011-.274-.021-1.265-.063-2.571-.011-.348-.021-.706-.032-1.085v-.211c-.021-.559-.042-1.138-.063-1.718,0-.126-.011-.253-.021-.39-.021-.78-.052-1.57-.084-2.3-.021-.769-.052-1.486-.074-2.076-.053-.99-.084-1.634-.105-1.634.253-.053.506-.105.748-.179a10.4,10.4,0,0,0,2.466-1.012,12.368,12.368,0,0,0,1.317-.822c.169-.116.348-.253.517-.379a7.431,7.431,0,0,0,.949-.864,4.615,4.615,0,0,0,.358-.411,27.372,27.372,0,0,0,2.413-3.762A.548.548,0,0,0,3379.946,904.22Z" transform="translate(-3337.148 -853.923)" fill="#00b580"/>
          </g>
          <g id="그룹_748" data-name="그룹 748" transform="translate(48.106 24.219)">
            <path id="패스_477" data-name="패스 477" d="M3487.532,936.25c-1.549-2.034-4.869-2.519-7.735-2.582a17.415,17.415,0,0,0-4.827.706c-1.465.369-2.75.959-4.279,1.212a40.693,40.693,0,0,0-4.458,1.033c3.056-1.981,6.481-4.342,6.165-7.282-.031-.263-.421-.39-.758-.285a17.177,17.177,0,0,0-6.26,3.436c-1.813,1.623-2.761,3.573-2.107,5.111l-.158.074c-.042.01-.063.042-.095.052a28.735,28.735,0,0,0-5.585,3.046,31.155,31.155,0,0,0-4.764,4.194c.432-.9.78-1.876,1.064-2.487a44.634,44.634,0,0,0,2.824-7.514c.074-.316-.243-.432-.622-.306a8,8,0,0,0-3.836,2.793,10.439,10.439,0,0,0-1.813,3.836c-.5,2.15.411,4.11-.158,6.207a11.724,11.724,0,0,1-2.287,3.847,18.512,18.512,0,0,0-2.14,3.183,6.608,6.608,0,0,0-.295.7c.084-.232.158-.453.232-.7a34.459,34.459,0,0,0,1.244-5.406,17.224,17.224,0,0,0,.116-5.564.343.343,0,0,0-.559-.179,9.908,9.908,0,0,0-4.121,7.282,16.967,16.967,0,0,0,.053,4.742,22.373,22.373,0,0,0,.6,2.867.593.593,0,0,0,.042.147c.042.158.095.316.126.464a.386.386,0,0,0,.158.2c.011.021.011.053.021.074-.3.6-.58,1.2-.843,1.813-.327.706-.643,1.433-.938,2.15q-1.044,2.466-1.9,5.006c-.021.074-.053.137-.074.211,0-.053-.011-.105-.011-.158a25.493,25.493,0,0,0-.252-2.666,15.479,15.479,0,0,0-.3-1.581c-.053-.2-.105-.4-.158-.59s-.105-.358-.159-.537a6.816,6.816,0,0,0-.979-2.023,3.709,3.709,0,0,0-1.012-1.012.207.207,0,0,0-.158-.032.451.451,0,0,0-.137.053.652.652,0,0,0-.327.474c-.095.611-.168,1.254-.211,1.9-.032.337-.042.674-.052,1.011-.011.538-.011,1.086.021,1.613a.05.05,0,0,0,0,.053,16.535,16.535,0,0,0,.232,1.95,9.763,9.763,0,0,0,.864,2.73,1.783,1.783,0,0,0,.147.274.964.964,0,0,0,.1.179c.042.073.084.147.126.211a5.281,5.281,0,0,0,.917,1.065.49.49,0,0,0,.074.063,1.791,1.791,0,0,0,.273.221c-.084.284-.168.579-.242.864-.095.358-.2.727-.284,1.086-.159.58-.295,1.159-.432,1.749q-.158.7-.317,1.423c-.021.105-.042.221-.063.337-.168.791-.327,1.581-.453,2.382-.168.948-.316,1.9-.442,2.856-.116.843-.211,1.686-.295,2.54-.074.78-.137,1.56-.19,2.35H3436c.137,0,.274.011.411.011h.232a72.111,72.111,0,0,1,.938-7.788c.137-.738.274-1.465.421-2.2.01-.053.032-.116.042-.179.1-.506.21-1,.337-1.507.011-.074.032-.137.042-.211.306-1.307.643-2.593,1.022-3.878a7.231,7.231,0,0,0,2.381-.032,12.782,12.782,0,0,0,1.876-.443,7.992,7.992,0,0,0,1.064-.422c1.127-.558,2.1-1.349,3.235-2.034a.5.5,0,0,0,.095-.78,3.946,3.946,0,0,0-3.678-.885,7.66,7.66,0,0,0-1.233.327,7.843,7.843,0,0,0-1.254.559,8.651,8.651,0,0,0-1.686,1.149c.19-.59.4-1.17.611-1.75.453-1.286.959-2.561,1.5-3.815.485-1.191,1.022-2.361,1.591-3.51.053-.126.116-.263.179-.39.063-.01.116-.01.179-.021a18.031,18.031,0,0,0,4.32-.759,10.364,10.364,0,0,0,1.6-.7,5.95,5.95,0,0,0,1.992-1.5,1,1,0,0,0-.147-1.36c-.959-1.064-2.856-.706-4.226-.274-.337.105-.7.221-1.054.369-.179.074-.358.148-.537.232.105-.19.221-.369.327-.558a59.519,59.519,0,0,1,4.637-6.882c.537.095,1,.379,1.528.485a6.985,6.985,0,0,0,1.939.074,30.97,30.97,0,0,0,3.309-.559,12.729,12.729,0,0,0,1.929-.5c.622-.253,1.064-.643.854-1.4a2.323,2.323,0,0,0-1.7-1.444,7.591,7.591,0,0,0-2.477-.221,10.468,10.468,0,0,0-2.666.474,28.177,28.177,0,0,1,4.353-3.646,27.377,27.377,0,0,1,5-2.666,3.833,3.833,0,0,0,1.686,1.833,9.78,9.78,0,0,0,2.414,1.054c2.456.653,5.153.011,7.683-.8a.382.382,0,0,0,.137-.685,14.87,14.87,0,0,0-7.114-2.951,47.627,47.627,0,0,1,5.712-1c4.395,1.3,8.842,2.5,13.553.864A.358.358,0,0,0,3487.532,936.25Z" transform="translate(-3435.812 -929.015)" fill="#0a8e6d"/>
          </g>
          <g id="그룹_749" data-name="그룹 749" transform="translate(0 21.541)">
            <path id="패스_478" data-name="패스 478" d="M3340.162,953.274c-1.307-.253-2.529.58-3.5,1.876a10.8,10.8,0,0,0-1.392,2.551,12.477,12.477,0,0,0-.485,1.507l-.01.011c-.011.053-.021.095-.031.147-.211-.7-.422-1.391-.643-2.086-.032-.095-.053-.179-.084-.274-.706-2.224-1.476-4.416-2.329-6.576-.126-.358-.264-.717-.411-1.064.147-.211.295-.432.453-.643v-.01a9.978,9.978,0,0,0,1.886-4.416,5.391,5.391,0,0,0,.074-.748,2.184,2.184,0,0,0,.021-.274c.063-1.012-.031-3.014-.969-3.552-.01-.011-.01-.021-.021-.021a1.006,1.006,0,0,0-.506-.137,1.777,1.777,0,0,0-.326.032c-1.075.232-1.6,1.507-1.939,2.74q-.142.553-.253,1.043c-.063.284-.126.569-.179.875-.052.274-.095.548-.137.843a50.2,50.2,0,0,0-2.867-5.1c-.622-.959-1.265-1.876-1.96-2.771.21-.506.59-.9.79-1.423a5.249,5.249,0,0,0,.3-2.034c-.011-.242-.032-.5-.063-.748a13.531,13.531,0,0,0-.885-3.172c-.053-.137-.105-.285-.179-.453a8.491,8.491,0,0,0-1.127-1.981c-.633-.8-1.444-1.37-2.234-1.012a1.3,1.3,0,0,0-.727,1.107,4.292,4.292,0,0,0-.01,1.043,22.373,22.373,0,0,0,.569,2.719c.222.864.475,1.823.78,2.75a28.273,28.273,0,0,0-9.685-6.524,3.037,3.037,0,0,0-.148-2.529,6.688,6.688,0,0,0-1.95-2.392,9.683,9.683,0,0,0-4.858-1.792,15.527,15.527,0,0,0-5.227.4c-.442.105-.516.5-.21.675,2.361,1.454,4.837,3.014,7.345,4.3a31.064,31.064,0,0,0-6.017-.285,18.6,18.6,0,0,0-7.167-1.117,14,14,0,0,0-7.008,2.182.349.349,0,0,0-.063.569c2.076,1.591,5.48,1.223,8.294.906a36.531,36.531,0,0,0,4.7-1.022,14.453,14.453,0,0,1,4.331-.727,27.9,27.9,0,0,1,4.479.59,9.11,9.11,0,0,0-4.826,1.634,4.408,4.408,0,0,0-1.95,3.678.431.431,0,0,0,.538.379,35.443,35.443,0,0,0,5.069-1.644c1.728-.727,3.478-1.581,4.079-3.162l.158.063c.042.01.074.01.105.021a27.551,27.551,0,0,1,10.128,7.072,12.476,12.476,0,0,0-2.413-.969,8.6,8.6,0,0,0-6.8.3.4.4,0,0,0-.095.622,5.317,5.317,0,0,0,2.5,1.686,14.235,14.235,0,0,0,3.13.685c1.8.242,3.825-.474,5.7.569a7.808,7.808,0,0,1,2.782,3.457,30.408,30.408,0,0,0,2.129,4.1,14.53,14.53,0,0,0-4.521-4.089,7.871,7.871,0,0,0-4.837-1.2.37.37,0,0,0-.327.453c.58,2.213,2.213,3.731,4.247,5.132a48.6,48.6,0,0,0,5.606,3.151h.01c.253.116.5.232.738.348a.33.33,0,0,0,.137.064c.148.063.3.137.432.2a.36.36,0,0,0,.253.021.549.549,0,0,0,.074.032c.906,2.276,1.728,4.595,2.476,6.934.285.854.559,1.718.822,2.582a15.309,15.309,0,0,0-1.391-1.6,8.648,8.648,0,0,0-.844-.8c-.158-.147-.316-.274-.474-.4a8.125,8.125,0,0,0-3.236-1.686,3.92,3.92,0,0,0-.769-.084,2.8,2.8,0,0,0-.843.063c-.243.052-.316.485-.137.717.105.148.221.3.337.443a34.983,34.983,0,0,0,2.7,3.246c.011.01.021.01.021.021a16.349,16.349,0,0,0,2.15,1.9,7.169,7.169,0,0,0,3.425,1.443c.126.474.253.959.379,1.433.053.169.095.337.137.506.232.928.464,1.855.674,2.793.084.337.158.664.232,1,.095.411.189.822.274,1.244.126.569.253,1.149.359,1.728a.5.5,0,0,1,.031.179q.142.632.253,1.265c.063.305.126.611.169.927.422,2.234.769,4.489,1.054,6.745.053.358.105.717.147,1.086a2.278,2.278,0,0,0,.274-.011c.179.011.348,0,.516,0-.042-.327-.074-.643-.126-.959-.063-.527-.126-1.054-.211-1.581-.242-1.77-.527-3.541-.854-5.291-.137-.79-.284-1.591-.453-2.371-.105-.579-.221-1.138-.348-1.707-.01-.063-.021-.116-.031-.169-.116-.537-.232-1.064-.348-1.591l-.316-1.328c-.137-.569-.274-1.128-.411-1.686-.042-.168-.084-.327-.137-.5a.708.708,0,0,0-.053-.2,1.4,1.4,0,0,0-.074-.284c-.147-.611-.316-1.223-.484-1.834a5.038,5.038,0,0,0,.674-.337,5.6,5.6,0,0,0,.885-.622,7.8,7.8,0,0,0,1.18-1.18,6.911,6.911,0,0,0,.548-.7,7.17,7.17,0,0,0,.843-1.591c.179-.464.327-.938.464-1.433.179-.664.337-1.359.516-2.066A.668.668,0,0,0,3340.162,953.274Z" transform="translate(-3286.653 -920.713)" fill="#0a8e6d"/>
          </g>
          <g id="그룹_750" data-name="그룹 750" transform="translate(19.614 45.193)">
            <path id="패스_479" data-name="패스 479" d="M3378.645,1013.38a1.15,1.15,0,0,0-.263.053,3.517,3.517,0,0,0-.938.316.809.809,0,0,0-.168.074c-.021.01-.032.021-.042.021a6.077,6.077,0,0,0-.654.4,3.915,3.915,0,0,0-.548.411,6.222,6.222,0,0,0-.78.717,11.157,11.157,0,0,0-2.1,2.94,53.794,53.794,0,0,0-2.4-5.111c.464-.506.906-1.012,1.3-1.518a9.931,9.931,0,0,0,.59-.822,6.853,6.853,0,0,0,.948-2.161,5.03,5.03,0,0,0,.126-.664,2.243,2.243,0,0,0,.021-.59c-.021-.516-.222-.928-.844-.8-.032.011-.063.021-.105.032a2.213,2.213,0,0,0-.274.095,4.75,4.75,0,0,0-2.034,2.161l-.011.011c-.179.316-.327.622-.453.9-.169.369-.348.78-.506,1.191a48.929,48.929,0,0,0-2.761-4.11c.3-.4.7-.759.991-1.17.01-.021.021-.032.031-.053a5.041,5.041,0,0,0,.643-1.222,2.314,2.314,0,0,0,.095-.242,8.624,8.624,0,0,0,.369-2.729c0-.126,0-.3-.011-.485-.063-.8-.337-1.939-1.127-1.9a1.2,1.2,0,0,0-.485.148c-1.275.727-1.455,2.835-1.665,3.889-.105.643-.2,1.328-.242,1.982a19.184,19.184,0,0,0-4.658-4.194,4.647,4.647,0,0,0,.169-4.521c-1.043-1.981-3.509-2.592-5.375-2.308a.433.433,0,0,0-.263.622,39.817,39.817,0,0,0,2.951,5,19.559,19.559,0,0,0-3.1-.875c-1.971-2.234-4.816-3.646-7.451-2.045a.47.47,0,0,0-.116.527c.8,2.066,2.593,2.582,4.057,2.887a7.7,7.7,0,0,0,2.55-.084,5.828,5.828,0,0,1,2.371-.137,17.522,17.522,0,0,1,2.234.8,4.981,4.981,0,0,0-2.951,1.317,6.266,6.266,0,0,0-1.781,3.373c-.052.263.042.453.168.422a9.031,9.031,0,0,0,2.772-1.307,9.8,9.8,0,0,0,3.2-3.056l.084.042a.079.079,0,0,0,.053.011,19.252,19.252,0,0,1,4.816,4.447,7.777,7.777,0,0,0-1.6-.316,6.683,6.683,0,0,0-4.89,1.265.623.623,0,0,0-.285.517c.179,1.1,1.581,1.043,3.193.906,1.349-.137,3.183-1.022,4.49-.685,1.728.453,1.76,2.856,2.93,3.847a7.756,7.756,0,0,0-7.145-1.307c-.179.063-.379.253-.379.4-.021,1.518,1.127,2.171,2.7,2.55a27.019,27.019,0,0,0,5.227.485.431.431,0,0,0,.116.011h.379a.489.489,0,0,0,.221-.053h.063a48.943,48.943,0,0,1,2.276,4.816,7.323,7.323,0,0,0-6.629-.7c-.221.095-.327.358-.19.443a10.722,10.722,0,0,0,7.472,1.929c.148.4.285.791.411,1.191.263.748.495,1.5.706,2.255a51.106,51.106,0,0,1,1.612,7.546c.074,0,.148.011.221.011h.168c.137,0,.274.011.411.011q-.064-.554-.158-1.107c-.063-.422-.137-.843-.211-1.254-.137-.812-.305-1.623-.5-2.424-.21-.959-.463-1.908-.738-2.856-.211-.759-.453-1.518-.706-2.266-.179-.527-.359-1.064-.559-1.591a9.523,9.523,0,0,0,1.655-.959,8.216,8.216,0,0,0,.769-.59c.306-.253.6-.527.885-.812a3,3,0,0,0,.253-.284,2.892,2.892,0,0,0,.243-.284,6.332,6.332,0,0,0,.379-.548,8.508,8.508,0,0,0,.5-.906.98.98,0,0,1,.074-.148c.2-.442.379-.9.59-1.359C3379.15,1013.517,3378.94,1013.348,3378.645,1013.38Z" transform="translate(-3347.469 -994.049)" fill="#0a8e6d"/>
          </g>
          <g id="그룹_751" data-name="그룹 751" transform="translate(51.338 40.742)">
            <path id="패스_480" data-name="패스 480" d="M3488.839,985.84c-1.381-1.855-3.826-1.929-5.87-1.7a10.035,10.035,0,0,0-3.309,1.138,17.458,17.458,0,0,1-2.866,1.455c-1.033.316-2.066.664-3.078,1.054,1.949-1.823,3.952-4.395,3.225-7.261a.409.409,0,0,0-.59-.232,11.465,11.465,0,0,0-3.92,3.478,4.943,4.943,0,0,0-.77,4.848l-.116.053a.229.229,0,0,0-.063.042,34.049,34.049,0,0,0-7.672,4.732,14.547,14.547,0,0,0,.78-1.9,18.314,18.314,0,0,0,1.633-6.208.379.379,0,0,0-.506-.369,4.473,4.473,0,0,0-2.719,1.781,6.854,6.854,0,0,0-1.286,2.919c-.379,1.7.453,3.636-.031,5.227a5.6,5.6,0,0,1-2,2.519,8.365,8.365,0,0,0-2.171,2.477,17.926,17.926,0,0,0,1.5-8.831,1.717,1.717,0,0,0-.042-.327.379.379,0,0,0-.474-.3,5.028,5.028,0,0,0-1.476.769,6.509,6.509,0,0,0-1.6,2.044,7.815,7.815,0,0,0-.664,2.161,11.264,11.264,0,0,0-.063,3.309,14.885,14.885,0,0,0,.6,2.961.6.6,0,0,0,.042.126c.042.126.074.263.116.39a.385.385,0,0,0,.147.19.152.152,0,0,0,.021.074,63.673,63.673,0,0,0-3.71,6.049,14.276,14.276,0,0,0-.348-3.352,6.092,6.092,0,0,0-.158-.59,7.051,7.051,0,0,0-1.422-2.782,4.419,4.419,0,0,0-.506-.485.4.4,0,0,0-.59.232c-.063.263-.116.537-.158.811a13.418,13.418,0,0,0-.105,3.678c.01.137.021.264.042.39a6.96,6.96,0,0,0,2.139,4.2c-.19.379-.39.769-.569,1.159q-.569,1.154-1.107,2.34c-.791,1.707-1.539,3.446-2.255,5.185-.2.485-.4.98-.6,1.465-.148.358-.285.727-.432,1.086h.579a2.282,2.282,0,0,0,.274-.011c.126-.316.263-.643.39-.959.906-2.255,1.865-4.5,2.887-6.713.358-.78.727-1.549,1.106-2.319.179-.379.369-.759.559-1.138a11.106,11.106,0,0,0,4.068.738,16.385,16.385,0,0,0,4.131-.769c.284-.063.306-.337.116-.559-1.518-1.8-5.143-2.044-7.419-1.1a61.494,61.494,0,0,1,3.815-6.228,15.5,15.5,0,0,0,5.522.432c.864-.179,2.645-.369,1.581-1.707-.854-1.107-2.519-1.359-3.752-1.391a8.113,8.113,0,0,0-1.423.063c.664-.833,1.381-1.633,2.087-2.424.759-.759,1.454-1.571,2.266-2.255.464.232.864.59,1.317.832a7.032,7.032,0,0,0,1.633.58,18.939,18.939,0,0,0,2.771.38c.791.01,2.688.379,2.224-1.107-.4-1.423-2.35-2.108-3.52-2.361a8.254,8.254,0,0,0-2.181-.211,31.96,31.96,0,0,1,6.924-4.194,6.172,6.172,0,0,0,3.52,2.961c1.96.685,3.846-.042,5.5-1.043a.433.433,0,0,0-.021-.675,12.207,12.207,0,0,0-5.659-2.571c1.307-.453,2.624-.854,3.962-1.2,3.383.969,6.671,1.613,9.706-.516A.43.43,0,0,0,3488.839,985.84Z" transform="translate(-3445.831 -980.247)" fill="#0b7c5c"/>
          </g>
          <g id="그룹_752" data-name="그룹 752" transform="translate(41.25 3.8)">
            <path id="패스_481" data-name="패스 481" d="M3430.058,876.75c3.383-3,6.534-6.028,7.767-10.58a.369.369,0,0,0-.337-.464c-2.508.021-4.816,2.5-6.312,4.879a16.052,16.052,0,0,0-1.854,4.384,35.1,35.1,0,0,1-1.181,4.152c-.559,1.359-1.1,2.729-1.591,4.11a17.424,17.424,0,0,0-.369-5.216,4.892,4.892,0,0,0-2.466-3.552c-.242-.116-.537.126-.622.464a16.838,16.838,0,0,0-.39,6.607c.327,2.2,1.275,4.036,2.877,4.532l-.053.158a.288.288,0,0,0-.011.1,96.792,96.792,0,0,0-2.888,11.8c-.137-.959-.4-1.908-.548-2.529a21.21,21.21,0,0,0-1.813-5.164,11.638,11.638,0,0,0-1.043-1.665c-.179-.232-.485-.127-.643.158a6.936,6.936,0,0,0-.854,3.983c.011.179.021.348.042.516a11.388,11.388,0,0,0,.833,3,6.639,6.639,0,0,0,.4.759c.7,1.117,1.687,2.013,2.319,3.183a4.736,4.736,0,0,1,.453,1.086c.7,2.529-.9,5.8-.7,8.484.011.074.011.148.021.221-.011-.137-.032-.263-.053-.4a24.456,24.456,0,0,0-.706-3.478,20.926,20.926,0,0,0-1.476-3.983,10.42,10.42,0,0,0-1.792-2.614.345.345,0,0,0-.558.105,7.992,7.992,0,0,0-.885,4.679,12.31,12.31,0,0,0,.538,2.519c.053.168.1.337.168.506a17.971,17.971,0,0,0,2.044,3.952v.01a24.5,24.5,0,0,0,1.771,2.361,1.109,1.109,0,0,0,.1.116c.105.116.21.243.316.348a.287.287,0,0,0,.211.116.354.354,0,0,0,.063.063c-.011.285-.031.58-.042.864-.063,1.465-.105,2.94-.126,4.416,0,.074-.011.158-.011.232-.021,1.359-.021,2.719-.021,4.079a19.368,19.368,0,0,0-1.476-2.961,10.614,10.614,0,0,0-.927-1.36,4.688,4.688,0,0,0-.369-.432,5.384,5.384,0,0,0-2.909-1.9c-.126-.021-.242.074-.327.211a.685.685,0,0,0-.063.432,24.518,24.518,0,0,0,1.36,3.942.039.039,0,0,0,.01.032,14.168,14.168,0,0,0,1.56,2.719,6.745,6.745,0,0,0,3.172,2.53c.011.39.011.769.031,1.159q.032,1.676.1,3.351c.021.812.052,1.623.095,2.424.032.78.063,1.57.105,2.35.042.969.095,1.928.147,2.9q.142,2.387.285,4.774h.168c.137,0,.274.011.411.011h.21q-.062-1.075-.126-2.15v-.011c-.063-.917-.116-1.823-.158-2.74-.053-.948-.105-1.9-.147-2.835-.042-.79-.074-1.57-.105-2.35-.042-.991-.084-1.971-.116-2.961-.032-1.159-.063-2.319-.084-3.478-.011-.284-.021-.559-.021-.843.148-.021.3-.042.432-.074a4.461,4.461,0,0,0,.643-.168c.032-.011.074-.021.116-.032a2.165,2.165,0,0,0,.232-.095,6.493,6.493,0,0,0,.927-.4,10.43,10.43,0,0,0,1.349-.812.228.228,0,0,0,.084-.053c.042-.032.095-.063.137-.095a6.832,6.832,0,0,0,1.075-.98,31.684,31.684,0,0,0,2.16-2.835.526.526,0,0,0-.168-.79,2.17,2.17,0,0,0-.5-.19,2.605,2.605,0,0,0-.812-.116,3.358,3.358,0,0,0-.843.105,6.06,6.06,0,0,0-1.686.706,8.424,8.424,0,0,0-.959.685,8.955,8.955,0,0,0-.875.8v.011a7.8,7.8,0,0,0-1.107,1.359,2.8,2.8,0,0,0-.242.369v-2.308l.01-.011a.048.048,0,0,1,0-.053c0-.527,0-1.064.011-1.6,0-.337.01-.674.021-1.022.011-1,.042-2,.084-3,.021-.643.053-1.3.084-1.95a1.218,1.218,0,0,1,.158-.085c.337-.19.664-.369.991-.548a11.062,11.062,0,0,0,3.794-3.172c.674-.906,2.023-2.782.421-3.393-1.317-.506-2.888.643-3.92,1.6a9.532,9.532,0,0,0-.97.99c-.073.063-.126.137-.189.2.021-.274.042-.548.074-.822.074-1.022.18-2.044.3-3.067.168-1.592.379-3.172.622-4.753.516-.179,1.054-.169,1.56-.337a6.191,6.191,0,0,0,1.708-.938,8.429,8.429,0,0,0,.748-.622c.611-.548,1.17-1.18,1.739-1.8a8.858,8.858,0,0,0,1.317-1.739c.369-.674.485-1.37-.158-1.854-1.233-.927-3.278.537-4.342,1.444a14.8,14.8,0,0,0-1.907,1.908,98.4,98.4,0,0,1,2.677-10.729c1.455.579,3.583-.453,4.806-1.486,2.023-1.718,3.035-4.458,3.6-7.008a.377.377,0,0,0-.506-.464,16.419,16.419,0,0,0-6.3,4.321c.337-.885.706-1.75,1.054-2.624Z" transform="translate(-3414.553 -865.706)" fill="#0b7c5c"/>
          </g>
        </g>
      </g>
      <g id="그룹_756" data-name="그룹 756" transform="translate(3319.607 930.821)">
        <g id="그룹_755" data-name="그룹 755" transform="translate(1.534)">
          <path id="패스_482" data-name="패스 482" d="M3420.988,1122.534a44.137,44.137,0,0,1-23.078,0c-1.372-10.07-2.789-20.135-4.324-30.182h31.727C3423.777,1102.4,3422.36,1112.464,3420.988,1122.534Z" transform="translate(-3393.585 -1092.353)" fill="#bbbdbf"/>
        </g>
        <path id="패스_483" data-name="패스 483" d="M3425.312,1092.353h-31.727l1.426,9.3h28.875Z" transform="translate(-3392.051 -1092.353)" fill="#929497"/>
        <path id="패스_484" data-name="패스 484" d="M3423.624,1092.353H3388.83l1.108,7.226h32.578Z" transform="translate(-3388.83 -1092.353)" fill="#d0d2d3"/>
        <line id="선_57" data-name="선 57" x1="0.603" y2="4.404" transform="translate(32.427 1.101)" fill="none" stroke="#fff" stroke-linecap="round" stroke-miterlimit="10" stroke-width="1.884" opacity="0.64"/>
        <line id="선_58" data-name="선 58" x1="1.852" y2="15.786" transform="translate(27.929 10.533)" fill="none" stroke="#fff" stroke-linecap="round" stroke-miterlimit="10" stroke-width="1.884" opacity="0.47"/>
      </g>
    </g>
  </g>
</svg>
