<svg xmlns="http://www.w3.org/2000/svg" width="174.622" height="48" viewBox="0 0 174.622 48">
  <g id="그룹_1244" data-name="그룹 1244" transform="translate(-1357.378 -659)">
    <text id="_사_대한골프협회" data-name="(사)대한골프협회" transform="translate(1414 678)" fill="#3d3d3d" font-size="16" font-family="NotoSansCJKkr-Regular, Noto Sans CJK KR"><tspan x="0" y="0">(사)대한골프협회</tspan></text>
    <text id="_031-955-2255" data-name="031-955-2255" transform="translate(1414 702)" fill="#3d3d3d" font-size="18" font-family="Roboto-Bold, Roboto" font-weight="700"><tspan x="0" y="0">031-955-2255</tspan></text>
    <g id="그룹_33" data-name="그룹 33" transform="translate(364.374 236)">
      <path id="패스_226" data-name="패스 226" d="M1058.877,429a1.548,1.548,0,0,1,1.548,1.548v9.308a1.548,1.548,0,0,1-1.548,1.548h-8.568a1.551,1.551,0,0,0-1.159.521l-2.946,3.325a.588.588,0,0,1-1.028-.39v-2.682a.774.774,0,0,0-.774-.774h-.627a1.549,1.549,0,0,1-1.549-1.548v-9.308a1.549,1.549,0,0,1,1.549-1.548Z" transform="translate(-28.174 -0.002)" fill="none" stroke="#3d3d3d" stroke-linecap="round" stroke-linejoin="round" stroke-width="2"/>
      <path id="패스_227" data-name="패스 227" d="M1053.477,443.036a.454.454,0,1,1-.454-.454A.454.454,0,0,1,1053.477,443.036Z" transform="translate(-34.216 -7.934)" fill="none" stroke="#3d3d3d" stroke-linecap="round" stroke-linejoin="round" stroke-width="2"/>
      <path id="패스_228" data-name="패스 228" d="M1063.909,443.036a.454.454,0,1,1-.454-.454A.454.454,0,0,1,1063.909,443.036Z" transform="translate(-40.311 -7.934)" fill="none" stroke="#3d3d3d" stroke-linecap="round" stroke-linejoin="round" stroke-width="2"/>
      <path id="패스_229" data-name="패스 229" d="M1074.34,443.036a.454.454,0,1,1-.454-.454A.454.454,0,0,1,1074.34,443.036Z" transform="translate(-46.405 -7.934)" fill="none" stroke="#3d3d3d" stroke-linecap="round" stroke-linejoin="round" stroke-width="2"/>
      <g id="그룹_32" data-name="그룹 32" transform="translate(993.999 429)">
        <path id="패스_230" data-name="패스 230" d="M1004.625,440.831l2.365-1.137a2.084,2.084,0,0,0,1-2.728l-3-6.73a2.086,2.086,0,0,0-2.995-.927c-5.617,3.442-8.425,4.943-7.941,8.194a33.729,33.729,0,0,0,9.978,19.652l.035.034.034.035a33.727,33.727,0,0,0,19.652,9.978c3.25.484,4.752-2.323,8.195-7.94a2.086,2.086,0,0,0-.928-2.995l-6.73-3a2.085,2.085,0,0,0-2.728,1l-1.137,2.365" transform="translate(-993.999 -429)" fill="none" stroke="#3d3d3d" stroke-linecap="round" stroke-linejoin="round" stroke-width="2"/>
        <path id="패스_231" data-name="패스 231" d="M1031.15,478.014a33.186,33.186,0,0,1-4.711-3.959c-.012-.011-.022-.023-.034-.034l-.035-.033a31.361,31.361,0,0,1-4.6-5.7" transform="translate(-1010.223 -451.949)" fill="none" stroke="#3d3d3d" stroke-linecap="round" stroke-linejoin="round" stroke-width="2"/>
      </g>
    </g>
  </g>
</svg>
