<svg xmlns="http://www.w3.org/2000/svg" width="56.306" height="48.452" viewBox="0 0 56.306 48.452">
  <defs>
    <style>
      .cls-1, .cls-2 {
        fill: none;
        stroke: #fff;
        stroke-width: 2px;
      }

      .cls-1 {
        stroke-miterlimit: 10;
      }

      .cls-2 {
        stroke-linecap: round;
        stroke-linejoin: round;
      }
    </style>
  </defs>
  <g id="그룹_962" data-name="그룹 962" transform="translate(1 1.004)">
    <g id="그룹_950" data-name="그룹 950" transform="translate(0 0)">
      <g id="그룹_949" data-name="그룹 949" transform="translate(14.167 9.444)">
        <path id="패스_1479" data-name="패스 1479" class="cls-1" d="M330.9,143.656a5.9,5.9,0,0,1-5.9,5.9h0" transform="translate(-325 -143.656)"/>
      </g>
      <path id="패스_1480" data-name="패스 1480" class="cls-2" d="M328.347,177.382H317.722A4.722,4.722,0,0,1,313,172.66V161.04a5.9,5.9,0,0,1,3.885-5.547l6.74-2.021V149.8a5.87,5.87,0,0,1-2.361-4.7v-3.288a6.074,6.074,0,0,1,5.323-6.128,5.9,5.9,0,0,1,6.482,5.874V145.1a5.87,5.87,0,0,1-2.361,4.7v3.676l6.766,2.06a5.9,5.9,0,0,1,3.859,5.538" transform="translate(-313 -135.656)"/>
      <path id="패스_1481" data-name="패스 1481" class="cls-2" d="M327.444,162l4.722,4.722H318" transform="translate(-312.097 -130.9)"/>
      <line id="선_76" data-name="선 76" class="cls-2" y2="4.722" transform="translate(4.722 41.725)"/>
    </g>
    <path id="패스_1482" data-name="패스 1482" class="cls-1" d="M341.8,173.219l3.6-11.875-.207-.31L332.247,161l-4.9,16.342.186.186h10.383" transform="translate(-310.41 -131.08)"/>
    <path id="패스_1483" data-name="패스 1483" class="cls-1" d="M341.122,175.722H336.4v-3.454l.944-1.269h5.667v1.889Z" transform="translate(-308.775 -129.275)"/>
    <g id="그룹_953" data-name="그룹 953" transform="translate(30.377 0)">
      <g id="그룹_952" data-name="그룹 952">
        <g id="그룹_951" data-name="그룹 951" transform="translate(3.859 9.444)">
          <path id="패스_1484" data-name="패스 1484" class="cls-1" d="M342,143.656a5.9,5.9,0,0,0,5.9,5.9h0" transform="translate(-342 -143.656)"/>
        </g>
        <path id="패스_1485" data-name="패스 1485" class="cls-2" d="M362.66,182.1V161.04a5.9,5.9,0,0,0-3.885-5.547l-6.74-2.021V149.8a5.87,5.87,0,0,0,2.361-4.7v-3.288a6.074,6.074,0,0,0-5.323-6.128,5.9,5.9,0,0,0-6.482,5.874V145.1a5.87,5.87,0,0,0,2.361,4.7v3.676l-6.22,2" transform="translate(-338.731 -135.656)"/>
        <line id="선_77" data-name="선 77" class="cls-2" y2="14.167" transform="translate(18.026 32.281)"/>
      </g>
    </g>
  </g>
</svg>
