<svg xmlns="http://www.w3.org/2000/svg" width="52.162" height="49.658" viewBox="0 0 52.162 49.658">
  <defs>
    <style>
      .cls-1, .cls-2 {
        fill: none;
        stroke: #fff;
        stroke-width: 2px;
      }

      .cls-1 {
        stroke-miterlimit: 10;
      }

      .cls-2 {
        stroke-linejoin: round;
      }
    </style>
  </defs>
  <g id="그룹_961" data-name="그룹 961" transform="translate(0.88 1.159)">
    <path id="패스_1470" data-name="패스 1470" class="cls-1" d="M228.942,168.793l1.689-2.926s4.193-.506,5.742-3.187l2.252-3.9" transform="translate(-207.609 -129.023)"/>
    <path id="패스_1471" data-name="패스 1471" class="cls-1" d="M236.293,142.885l-7.129,1.086c-2.108.47-3.1.86-4.2,2.776l-3.822,6.621-5.186,8.985" transform="translate(-209.249 -131.03)"/>
    <path id="패스_1472" data-name="패스 1472" class="cls-1" d="M210,167.989l4.752-8.819,18.532,10.7L229.442,177" transform="translate(-210 -128.974)"/>
    <path id="패스_1473" data-name="패스 1473" class="cls-1" d="M225.92,151.289l12.308-3.3c2.834-.759,3.044,5.328-.643,6.769l-3.862,1.035c-.252.438-1.469,2.545-1.689,2.926a4.194,4.194,0,0,1-6.154,1.649" transform="translate(-207.995 -130.394)"/>
    <path id="패스_1474" data-name="패스 1474" class="cls-1" d="M230.513,151.041l10.136-17.556a2.253,2.253,0,0,1,3.077-.824l12.68,7.321a2.253,2.253,0,0,1,.824,3.077l-11.826,20.483a2.254,2.254,0,0,1-3.077.824l-9.754-5.631" transform="translate(-207.41 -132.359)"/>
    <line id="선_62" data-name="선 62" class="cls-2" y1="5.631" transform="translate(16.894 0.722)"/>
    <line id="선_63" data-name="선 63" class="cls-2" x1="4.585" y1="4.585" transform="translate(8.93 2.895)"/>
    <line id="선_64" data-name="선 64" class="cls-2" x1="5.631" transform="translate(6.757 10.858)"/>
  </g>
</svg>
