<svg xmlns="http://www.w3.org/2000/svg" width="50" height="50" viewBox="0 0 50 50">
  <g id="그룹_1596" data-name="그룹 1596" transform="translate(-1510 -687)">
    <g id="그룹_1591" data-name="그룹 1591">
      <g id="타원_67" data-name="타원 67" transform="translate(1510 687)" fill="#f1f1f1" stroke="#929292" stroke-width="1">
        <circle cx="25" cy="25" r="25" stroke="none"/>
        <circle cx="25" cy="25" r="24.5" fill="none"/>
      </g>
      <g id="그룹_1587" data-name="그룹 1587" transform="translate(1212 644)">
        <circle id="타원_217" data-name="타원 217" cx="15" cy="15" r="15" transform="translate(308 53)" fill="none" stroke="#505050" stroke-linejoin="round" stroke-width="2"/>
        <path id="패스_5418" data-name="패스 5418" d="M327.538,72.769V70.462c0-2.308-3.175-3.462-5.769-3.462S316,68.154,316,70.462v2.308" transform="translate(1.231 3.154)" fill="none" stroke="#505050" stroke-miterlimit="10" stroke-width="2"/>
        <path id="패스_5419" data-name="패스 5419" d="M321.462,68.077a3.358,3.358,0,0,0,3.462-3.462V63.462a3.462,3.462,0,0,0-6.923,0v1.154A3.358,3.358,0,0,0,321.462,68.077Z" transform="translate(1.538 1.077)" fill="none" stroke="#505050" stroke-miterlimit="10" stroke-width="2"/>
      </g>
    </g>
  </g>
</svg>
